<svg width="205" height="205" viewBox="0 0 205 205" fill="none" xmlns="http://www.w3.org/2000/svg">
<circle cx="102.5" cy="102.5" r="102.5" fill="#F9F9F9"/>
<circle cx="102.5" cy="102.5" r="61.5" fill="#FC764C"/>
<circle cx="51" cy="53" r="5" fill="#FC764C"/>
<circle cx="152" cy="48" r="3" fill="#FC764C"/>
<circle cx="59" cy="153" r="3" fill="#FC764C"/>
<circle cx="154" cy="155" r="5" fill="#FC764C"/>
<g filter="url(#filter0_d_775_30304)">
<path d="M64.8135 73.1925C64.8135 76.1659 67.2239 78.5763 70.1973 78.5763H132.733V73.1925C132.733 70.219 130.322 67.8086 127.349 67.8086H70.1973C67.2239 67.8086 64.8135 70.219 64.8135 73.1925Z" fill="#C2C2C2"/>
<path d="M64.8135 73.1924C64.8135 76.1658 67.2239 78.5762 70.1973 78.5762H134.804C137.777 78.5762 140.187 80.9867 140.187 83.9601V132.001C140.187 134.974 137.777 137.385 134.804 137.385H70.1973C67.2239 137.385 64.8135 134.974 64.8135 132.001V73.1924Z" fill="white"/>
<path d="M120.646 106.318C120.646 110.43 123.927 113.763 127.975 113.763H140.188V98.874H127.975C123.927 98.874 120.646 102.207 120.646 106.318Z" fill="#E0E0E0"/>
<circle cx="127.763" cy="106.738" r="3.31314" fill="#141414"/>
<path d="M81.3476 75.9496H92.73V80.2636H74.1846V77.3077L85.5342 61.33H74.1191V57H92.6155V59.876L81.3476 75.9496Z" fill="#141414"/>
<path d="M91.1221 95.5278H97.3825V97.9436H87.1825V96.2883L93.4248 87.3408H87.1465V84.916H97.3195V86.5266L91.1221 95.5278Z" fill="#141414"/>
<path d="M102.704 108.488H106.688V110.041H100.197V108.977L104.169 103.225H100.174V101.666H106.648V102.701L102.704 108.488Z" fill="#141414"/>
</g>
<path fill-rule="evenodd" clip-rule="evenodd" d="M128.07 111.902C131.143 111.902 133.634 109.402 133.634 106.319C133.634 103.235 131.143 100.735 128.07 100.735C124.998 100.735 122.507 103.235 122.507 106.319C122.507 109.402 124.998 111.902 128.07 111.902ZM127.623 102.123H126.517V103.117H125.145V104.631H125.85V108.424H125.145V109.937L126.517 109.937V110.865H127.623V109.937H128.465C128.529 109.937 128.593 109.936 128.657 109.932V110.729C128.861 110.707 129.348 110.629 129.663 110.49V109.705C129.699 109.69 129.736 109.674 129.772 109.657C130.18 109.47 130.535 109.22 130.835 108.906C131.142 108.593 131.379 108.231 131.547 107.821C131.722 107.405 131.809 106.973 131.809 106.527C131.809 106.075 131.722 105.644 131.547 105.234C131.373 104.818 131.133 104.456 130.826 104.148C130.526 103.835 130.171 103.584 129.763 103.397C129.729 103.382 129.696 103.367 129.663 103.353V102.501C129.348 102.362 128.861 102.284 128.657 102.262V103.122C128.593 103.119 128.529 103.117 128.465 103.117H127.623V102.123ZM128.023 108.436H127.617V104.619H128.023C128.323 104.619 128.594 104.667 128.834 104.763C129.074 104.86 129.276 104.992 129.438 105.161C129.606 105.33 129.735 105.532 129.826 105.767C129.916 106.003 129.961 106.256 129.961 106.527C129.961 106.805 129.916 107.061 129.826 107.296C129.741 107.525 129.615 107.724 129.447 107.893C129.285 108.062 129.083 108.195 128.843 108.291C128.603 108.388 128.329 108.436 128.023 108.436Z" fill="#FC764C"/>
<path fill-rule="evenodd" clip-rule="evenodd" d="M126.517 102.123H127.623V103.117H128.465C128.529 103.117 128.594 103.119 128.657 103.122V102.262C128.861 102.284 129.349 102.362 129.663 102.501V103.353C129.696 103.367 129.73 103.382 129.763 103.397C130.171 103.584 130.526 103.835 130.826 104.148C131.133 104.456 131.373 104.818 131.547 105.234C131.722 105.644 131.809 106.075 131.809 106.527C131.809 106.973 131.722 107.405 131.547 107.821C131.379 108.231 131.142 108.593 130.835 108.906C130.535 109.22 130.18 109.47 129.772 109.657C129.736 109.674 129.699 109.69 129.663 109.705V110.49C129.349 110.629 128.861 110.707 128.657 110.729V109.932C128.594 109.936 128.529 109.937 128.465 109.937H127.623V110.865H126.517V109.937L125.146 109.937V108.424H125.851V104.631H125.146V103.117H126.517V102.123ZM127.617 108.436H128.023C128.33 108.436 128.603 108.388 128.843 108.291C129.084 108.195 129.285 108.062 129.447 107.893C129.615 107.724 129.742 107.525 129.826 107.296C129.916 107.061 129.961 106.805 129.961 106.527C129.961 106.256 129.916 106.003 129.826 105.767C129.736 105.532 129.606 105.33 129.438 105.161C129.276 104.992 129.075 104.86 128.834 104.763C128.594 104.667 128.323 104.619 128.023 104.619H127.617V108.436Z" fill="white"/>
<defs>
<filter id="filter0_d_775_30304" x="32.8135" y="41" width="139.374" height="144.385" filterUnits="userSpaceOnUse" color-interpolation-filters="sRGB">
<feFlood flood-opacity="0" result="BackgroundImageFix"/>
<feColorMatrix in="SourceAlpha" type="matrix" values="0 0 0 0 0 0 0 0 0 0 0 0 0 0 0 0 0 0 127 0" result="hardAlpha"/>
<feOffset dy="16"/>
<feGaussianBlur stdDeviation="16"/>
<feComposite in2="hardAlpha" operator="out"/>
<feColorMatrix type="matrix" values="0 0 0 0 0 0 0 0 0 0 0 0 0 0 0 0 0 0 0.4 0"/>
<feBlend mode="normal" in2="BackgroundImageFix" result="effect1_dropShadow_775_30304"/>
<feBlend mode="normal" in="SourceGraphic" in2="effect1_dropShadow_775_30304" result="shape"/>
</filter>
</defs>
</svg>
