<svg width="205" height="205" viewBox="0 0 205 205" fill="none" xmlns="http://www.w3.org/2000/svg">
<circle cx="102.5" cy="102.5" r="102.5" fill="#F9F9F9"/>
<circle cx="102.5" cy="102.5" r="61.5" fill="#FC764C"/>
<circle cx="51" cy="53" r="5" fill="#FC764C"/>
<circle cx="152" cy="48" r="3" fill="#FC764C"/>
<circle cx="59" cy="153" r="3" fill="#FC764C"/>
<circle cx="154" cy="155" r="5" fill="#FC764C"/>
<path d="M89.712 130.472H67.7639C64.0283 130.472 61 127.444 61 123.708C61 119.973 64.0283 116.944 67.7639 116.944H135.955C138.471 116.944 140.51 118.984 140.51 121.5V124.536C140.51 125.375 139.83 126.055 138.992 126.055H138.716C138.03 126.055 137.473 126.611 137.473 127.297C137.473 127.983 138.03 128.54 138.716 128.54H157.903C160.495 128.54 162.596 130.641 162.596 133.233C162.596 135.825 160.495 137.926 157.903 137.926H124.636C123.492 137.926 122.565 138.853 122.565 139.997C122.565 141.14 123.492 142.067 124.636 142.067H132.918C133.452 142.067 133.884 142.5 133.884 143.034C133.884 143.567 133.452 144 132.918 144H82.9481C80.5848 144 78.6689 142.084 78.6689 139.721C78.6689 137.357 80.5848 135.441 82.9481 135.441H89.712C91.0843 135.441 92.1967 134.329 92.1967 132.957C92.1967 131.585 91.0843 130.472 89.712 130.472Z" fill="#B84926"/>
<g filter="url(#filter0_d_2582_13022)">
<path d="M113.833 68.6699L55.8038 84.7976C53.6375 85.3996 52.2691 87.5328 52.6251 89.7529L58.1065 123.936C58.4625 126.156 60.4292 127.755 62.6752 127.649L122.837 124.824L113.833 68.6699Z" fill="white"/>
<path d="M117.67 64.6994C120.079 64.3131 122.344 65.9527 122.731 68.3615L131.298 121.79C131.684 124.199 130.045 126.465 127.636 126.851L125.455 127.201C124.251 127.394 123.118 126.574 122.925 125.37L113.658 67.5795C113.465 66.3751 114.285 65.2422 115.489 65.0491L117.67 64.6994Z" fill="#E0E0E0"/>
<path d="M124.454 68.6446C125.658 68.4515 126.791 69.2713 126.984 70.4757L134.677 118.452C134.871 119.657 134.051 120.79 132.846 120.983L131.211 121.245L122.818 68.9069L124.454 68.6446Z" fill="#EBEBEB"/>
<path fill-rule="evenodd" clip-rule="evenodd" d="M84.242 107.005C96.1349 107.005 105.776 97.3641 105.776 85.4712C105.776 80.4572 104.062 75.8434 101.189 72.1836L62.8679 82.8338C62.7623 83.6982 62.708 84.5784 62.708 85.4712C62.708 97.3641 72.3491 107.005 84.242 107.005Z" fill="#FF9675"/>
</g>
<defs>
<filter id="filter0_d_2582_13022" x="20.5688" y="40.6426" width="146.137" height="127.012" filterUnits="userSpaceOnUse" color-interpolation-filters="sRGB">
<feFlood flood-opacity="0" result="BackgroundImageFix"/>
<feColorMatrix in="SourceAlpha" type="matrix" values="0 0 0 0 0 0 0 0 0 0 0 0 0 0 0 0 0 0 127 0" result="hardAlpha"/>
<feOffset dy="8"/>
<feGaussianBlur stdDeviation="16"/>
<feComposite in2="hardAlpha" operator="out"/>
<feColorMatrix type="matrix" values="0 0 0 0 0 0 0 0 0 0 0 0 0 0 0 0 0 0 0.4 0"/>
<feBlend mode="normal" in2="BackgroundImageFix" result="effect1_dropShadow_2582_13022"/>
<feBlend mode="normal" in="SourceGraphic" in2="effect1_dropShadow_2582_13022" result="shape"/>
</filter>
</defs>
</svg>
