<svg width="205" height="205" viewBox="0 0 205 205" fill="none" xmlns="http://www.w3.org/2000/svg">
<circle cx="102.5" cy="102.5" r="102.5" fill="#F9F9F9"/>
<circle cx="102.5" cy="102.5" r="61.5" fill="#FC764C"/>
<circle cx="51" cy="53" r="5" fill="#FC764C"/>
<circle cx="152" cy="48" r="3" fill="#FC764C"/>
<circle cx="59" cy="153" r="3" fill="#FC764C"/>
<circle cx="154" cy="155" r="5" fill="#FC764C"/>
<g filter="url(#filter0_d_2557_7717)">
<path fill-rule="evenodd" clip-rule="evenodd" d="M122.695 68.0448H63.1433C59.1042 68.0448 55.8299 71.3191 55.8299 75.3582V108.268C55.8299 112.307 59.1042 115.582 63.1433 115.582H122.695C126.734 115.582 130.009 112.307 130.009 108.268V75.3582C130.009 71.3191 126.734 68.0448 122.695 68.0448ZM63.1433 67C58.5272 67 54.7852 70.7421 54.7852 75.3582V108.268C54.7852 112.884 58.5272 116.627 63.1433 116.627H122.695C127.311 116.627 131.053 112.884 131.053 108.268V75.3582C131.053 70.7421 127.311 67 122.695 67H63.1433Z" fill="#141414"/>
<rect x="55.0463" y="75.6196" width="75.7458" height="9.40293" fill="#141414" stroke="#141414" stroke-width="0.522385"/>
<rect x="73.5911" y="87.8955" width="76.2682" height="49.6266" rx="8.35816" fill="white"/>
<path fill-rule="evenodd" clip-rule="evenodd" d="M135.983 109.82C139.86 109.82 143.003 106.666 143.003 102.776C143.003 98.8852 139.86 95.7314 135.983 95.7314C132.107 95.7314 128.964 98.8852 128.964 102.776C128.964 106.666 132.107 109.82 135.983 109.82ZM135.419 97.4821H134.023V98.7361H132.293V100.646H133.182V105.431H132.293V107.341L134.023 107.341V108.512H135.419V107.341H136.48C136.562 107.341 136.643 107.339 136.723 107.334V108.34C136.981 108.313 137.595 108.213 137.992 108.038V107.048C138.038 107.029 138.084 107.009 138.129 106.987C138.645 106.752 139.092 106.436 139.471 106.04C139.858 105.645 140.157 105.188 140.37 104.671C140.59 104.146 140.7 103.602 140.7 103.039C140.7 102.468 140.59 101.924 140.37 101.407C140.15 100.882 139.847 100.425 139.46 100.037C139.081 99.6415 138.634 99.3257 138.118 99.0899C138.076 99.0705 138.034 99.0519 137.992 99.0342V97.9592C137.595 97.7839 136.981 97.6848 136.723 97.6571V98.743C136.643 98.7384 136.562 98.7361 136.48 98.7361H135.419V97.4821ZM135.923 105.447H135.411V100.631H135.923C136.302 100.631 136.643 100.691 136.947 100.813C137.25 100.935 137.504 101.102 137.709 101.315C137.921 101.528 138.084 101.783 138.198 102.08C138.311 102.377 138.368 102.696 138.368 103.039C138.368 103.389 138.311 103.712 138.198 104.009C138.091 104.298 137.932 104.549 137.72 104.762C137.515 104.975 137.261 105.142 136.958 105.264C136.655 105.386 136.31 105.447 135.923 105.447Z" fill="#FC764C"/>
<path fill-rule="evenodd" clip-rule="evenodd" d="M134.023 97.4824H135.419V98.7364H136.48C136.562 98.7364 136.643 98.7387 136.723 98.7434V97.6575C136.981 97.6851 137.596 97.7843 137.992 97.9596V99.0345C138.034 99.0523 138.076 99.0709 138.118 99.0902C138.634 99.3261 139.081 99.6418 139.46 100.037C139.847 100.426 140.15 100.882 140.37 101.407C140.59 101.924 140.7 102.468 140.7 103.039C140.7 103.602 140.59 104.146 140.37 104.671C140.158 105.188 139.858 105.645 139.471 106.041C139.092 106.436 138.645 106.752 138.129 106.988C138.084 107.009 138.038 107.029 137.992 107.048V108.038C137.596 108.214 136.981 108.313 136.723 108.341V107.335C136.643 107.339 136.562 107.342 136.48 107.342H135.419V108.512H134.023V107.342L132.293 107.342V105.432H133.182V100.646H132.293V98.7364H134.023V97.4824ZM135.411 105.447H135.923C136.31 105.447 136.655 105.386 136.958 105.264C137.261 105.143 137.515 104.975 137.72 104.762C137.932 104.549 138.092 104.298 138.198 104.009C138.311 103.712 138.368 103.389 138.368 103.039C138.368 102.697 138.311 102.377 138.198 102.08C138.084 101.784 137.921 101.529 137.709 101.316C137.504 101.103 137.25 100.935 136.947 100.814C136.643 100.692 136.302 100.631 135.923 100.631H135.411V105.447Z" fill="white"/>
<rect x="79.8596" y="97.2988" width="14.1044" height="10.4477" rx="2.08954" fill="#141414"/>
<rect x="80.3821" y="124.462" width="12.5372" height="3.13431" rx="1.04477" fill="#141414"/>
<rect x="97.0984" y="124.462" width="12.5372" height="3.13431" rx="1.04477" fill="#141414"/>
<rect x="113.815" y="124.462" width="12.5372" height="3.13431" rx="1.04477" fill="#141414"/>
<rect x="130.531" y="124.462" width="12.5372" height="3.13431" rx="1.04477" fill="#141414"/>
</g>
<defs>
<filter id="filter0_d_2557_7717" x="22.7852" y="51" width="159.074" height="134.522" filterUnits="userSpaceOnUse" color-interpolation-filters="sRGB">
<feFlood flood-opacity="0" result="BackgroundImageFix"/>
<feColorMatrix in="SourceAlpha" type="matrix" values="0 0 0 0 0 0 0 0 0 0 0 0 0 0 0 0 0 0 127 0" result="hardAlpha"/>
<feOffset dy="16"/>
<feGaussianBlur stdDeviation="16"/>
<feComposite in2="hardAlpha" operator="out"/>
<feColorMatrix type="matrix" values="0 0 0 0 0 0 0 0 0 0 0 0 0 0 0 0 0 0 0.4 0"/>
<feBlend mode="normal" in2="BackgroundImageFix" result="effect1_dropShadow_2557_7717"/>
<feBlend mode="normal" in="SourceGraphic" in2="effect1_dropShadow_2557_7717" result="shape"/>
</filter>
</defs>
</svg>
