<svg width="205" height="205" viewBox="0 0 205 205" fill="none" xmlns="http://www.w3.org/2000/svg">
<circle cx="102.5" cy="102.5" r="102.5" fill="#F9F9F9"/>
<circle cx="102.5" cy="102.5" r="61.5" fill="#FC764C"/>
<circle cx="51" cy="53" r="5" fill="#FC764C"/>
<circle cx="152" cy="48" r="3" fill="#FC764C"/>
<circle cx="59" cy="153" r="3" fill="#FC764C"/>
<circle cx="154" cy="155" r="5" fill="#FC764C"/>
<g filter="url(#filter0_d_2203_2315)">
<path fill-rule="evenodd" clip-rule="evenodd" d="M121.783 87.3291C121.56 87.3491 121.335 87.3594 121.107 87.3594C116.996 87.3594 113.664 84.0271 113.664 79.9164C113.664 75.8057 116.996 72.4734 121.107 72.4734C121.522 72.4734 121.929 72.5074 122.326 72.5728C123.691 68.5789 127.477 65.707 131.933 65.707C137.324 65.707 141.734 69.9107 142.063 75.2193C142.291 75.1933 142.524 75.1799 142.759 75.1799C146.122 75.1799 148.849 77.9064 148.849 81.2697C148.849 84.6329 146.122 87.3594 142.759 87.3594H121.783V87.3291Z" fill="#EBEBEB"/>
<path fill-rule="evenodd" clip-rule="evenodd" d="M121.107 73.3747C117.494 73.3747 114.566 76.3031 114.566 79.9155C114.566 83.5279 117.494 86.4563 121.107 86.4563C121.605 86.4563 122.009 86.8602 122.009 87.3585C122.009 87.8568 121.605 88.2607 121.107 88.2607C116.498 88.2607 112.761 84.5244 112.761 79.9155C112.761 75.3066 116.498 71.5703 121.107 71.5703C125.716 71.5703 129.452 75.3066 129.452 79.9155C129.452 80.4138 129.048 80.8177 128.55 80.8177C128.051 80.8177 127.647 80.4138 127.647 79.9155C127.647 76.3031 124.719 73.3747 121.107 73.3747Z" fill="#333333"/>
<path fill-rule="evenodd" clip-rule="evenodd" d="M107.233 75.1755C100.132 75.1755 94.3752 80.9323 94.3752 88.0337C94.3752 88.532 93.9713 88.9359 93.473 88.9359C92.9748 88.9359 92.5709 88.532 92.5709 88.0337C92.5709 79.9358 99.1355 73.3711 107.233 73.3711C115.331 73.3711 121.896 79.9358 121.896 88.0337C121.896 96.1317 115.331 102.696 107.233 102.696H58.3075C57.8092 102.696 57.4053 102.292 57.4053 101.794C57.4053 101.296 57.8092 100.892 58.3075 100.892H107.233C114.335 100.892 120.092 95.1351 120.092 88.0337C120.092 80.9323 114.335 75.1755 107.233 75.1755Z" fill="#333333"/>
<path fill-rule="evenodd" clip-rule="evenodd" d="M100.886 143.238C100.477 143.275 100.064 143.294 99.6455 143.294C92.1093 143.294 86 137.184 86 129.648C86 122.112 92.1093 116.003 99.6455 116.003C100.407 116.003 101.154 116.065 101.881 116.185C104.384 108.863 111.324 103.598 119.494 103.598C129.378 103.598 137.462 111.304 138.065 121.037C138.484 120.989 138.91 120.965 139.342 120.965C145.508 120.965 150.506 125.963 150.506 132.129C150.506 138.295 145.508 143.294 139.342 143.294H100.886V143.238Z" fill="#EBEBEB"/>
<g filter="url(#filter1_d_2203_2315)">
<path d="M79.8084 136.391H127.663C128.895 136.391 129.895 135.391 129.895 134.159V73.6161C129.895 73.0273 129.662 72.4624 129.247 72.0444L120.933 63.6603C120.513 63.2377 119.943 63 119.348 63H79.8084C78.5757 63 77.5764 63.9993 77.5764 65.232V134.159C77.5764 135.391 78.5757 136.391 79.8084 136.391Z" fill="white"/>
</g>
<path fill-rule="evenodd" clip-rule="evenodd" d="M104.132 125.849C112.489 125.849 119.264 119.05 119.264 110.664C119.264 102.277 112.489 95.4785 104.132 95.4785C95.7747 95.4785 89 102.277 89 110.664C89 119.05 95.7747 125.849 104.132 125.849ZM102.915 99.2523H99.9064V101.956H96.176V106.072H98.0939V116.389H96.176V120.506L99.9064 120.506V123.03H102.915V120.506H105.203C105.38 120.506 105.554 120.501 105.727 120.491V122.659C106.282 122.6 107.607 122.386 108.462 122.008V119.873C108.562 119.832 108.66 119.789 108.758 119.743C109.87 119.235 110.834 118.554 111.651 117.701C112.485 116.848 113.13 115.864 113.588 114.749C114.062 113.617 114.299 112.444 114.299 111.231C114.299 110.001 114.062 108.828 113.588 107.713C113.114 106.581 112.46 105.597 111.627 104.76C110.809 103.907 109.845 103.227 108.734 102.718C108.644 102.677 108.553 102.637 108.462 102.598V100.281C107.607 99.903 106.282 99.6893 105.727 99.6297V101.971C105.554 101.961 105.379 101.956 105.203 101.956H102.915V99.2523ZM104.002 116.422H102.899V106.04H104.002C104.819 106.04 105.555 106.171 106.209 106.433C106.862 106.696 107.41 107.056 107.851 107.516C108.309 107.975 108.66 108.524 108.905 109.164C109.15 109.804 109.273 110.493 109.273 111.231C109.273 111.985 109.15 112.682 108.905 113.322C108.677 113.945 108.333 114.486 107.876 114.946C107.434 115.405 106.887 115.766 106.233 116.028C105.579 116.291 104.836 116.422 104.002 116.422Z" fill="#FC764C"/>
<path fill-rule="evenodd" clip-rule="evenodd" d="M99.9064 99.252H102.915V101.955H105.204C105.379 101.955 105.554 101.96 105.727 101.97V99.6294C106.282 99.689 107.607 99.9026 108.462 100.281V102.598C108.553 102.636 108.644 102.676 108.734 102.718C109.845 103.226 110.809 103.907 111.627 104.76C112.46 105.596 113.114 106.58 113.588 107.712C114.062 108.828 114.299 110 114.299 111.23C114.299 112.444 114.062 113.617 113.588 114.748C113.13 115.864 112.485 116.848 111.651 117.701C110.834 118.554 109.87 119.234 108.758 119.743C108.66 119.788 108.562 119.832 108.462 119.873V122.008C107.607 122.386 106.282 122.599 105.727 122.659V120.491C105.554 120.501 105.38 120.505 105.204 120.505H102.915V123.029H99.9064V120.505L96.176 120.505V116.388H98.0939V106.072H96.176V101.955H99.9064V99.252ZM102.899 116.421H104.002C104.836 116.421 105.579 116.29 106.233 116.028C106.887 115.765 107.434 115.405 107.876 114.945C108.333 114.486 108.677 113.945 108.905 113.322C109.151 112.682 109.273 111.985 109.273 111.23C109.273 110.492 109.151 109.803 108.905 109.164C108.66 108.524 108.309 107.975 107.851 107.515C107.41 107.056 106.862 106.695 106.209 106.433C105.555 106.17 104.819 106.039 104.002 106.039H102.899V116.421Z" fill="white"/>
<path d="M88.4723 77.8458C88.4723 77.5448 88.7163 77.3008 89.0173 77.3008H113.316C113.617 77.3008 113.861 77.5448 113.861 77.8458V77.8718C113.861 78.1728 113.617 78.4168 113.316 78.4168H89.0173C88.7163 78.4168 88.4723 78.1728 88.4723 77.8718V77.8458Z" fill="#333333"/>
<path d="M88.4723 84.5411C88.4723 84.2401 88.7163 83.9961 89.0173 83.9961H106.062C106.363 83.9961 106.607 84.2401 106.607 84.5411V84.5671C106.607 84.8681 106.363 85.1121 106.062 85.1121H89.0173C88.7163 85.1121 88.4723 84.8681 88.4723 84.5671V84.5411Z" fill="#333333"/>
<path d="M88.4723 81.1934C88.4723 80.8924 88.7163 80.6484 89.0173 80.6484H117.78C118.081 80.6484 118.325 80.8924 118.325 81.1934V81.2194C118.325 81.5204 118.081 81.7644 117.78 81.7644H89.0173C88.7163 81.7644 88.4723 81.5204 88.4723 81.2194V81.1934Z" fill="#333333"/>
<path d="M129.903 72.8371L120.138 63.0723V70.6051C120.138 71.8378 121.137 72.8371 122.37 72.8371H129.903Z" fill="#E0E0E0"/>
<g filter="url(#filter2_d_2203_2315)">
<path fill-rule="evenodd" clip-rule="evenodd" d="M57.7284 116.189C57.4313 116.216 57.1303 116.229 56.8262 116.229C51.3453 116.229 46.9022 111.786 46.9022 106.305C46.9022 100.824 51.3453 96.3812 56.8262 96.3812C57.38 96.3812 57.9233 96.4266 58.4524 96.5138C60.2722 91.1886 65.3195 87.3594 71.2611 87.3594C78.4497 87.3594 84.3291 92.9643 84.7676 100.042C85.0723 100.008 85.3821 99.9899 85.696 99.9899C90.1804 99.9899 93.8157 103.625 93.8157 108.11C93.8157 112.594 90.1804 116.229 85.696 116.229H57.7284V116.189Z" fill="white"/>
</g>
</g>
<defs>
<filter id="filter0_d_2203_2315" x="14.9022" y="47" width="167.604" height="144.293" filterUnits="userSpaceOnUse" color-interpolation-filters="sRGB">
<feFlood flood-opacity="0" result="BackgroundImageFix"/>
<feColorMatrix in="SourceAlpha" type="matrix" values="0 0 0 0 0 0 0 0 0 0 0 0 0 0 0 0 0 0 127 0" result="hardAlpha"/>
<feOffset dy="16"/>
<feGaussianBlur stdDeviation="16"/>
<feComposite in2="hardAlpha" operator="out"/>
<feColorMatrix type="matrix" values="0 0 0 0 0 0 0 0 0 0 0 0 0 0 0 0 0 0 0.4 0"/>
<feBlend mode="normal" in2="BackgroundImageFix" result="effect1_dropShadow_2203_2315"/>
<feBlend mode="normal" in="SourceGraphic" in2="effect1_dropShadow_2203_2315" result="shape"/>
</filter>
<filter id="filter1_d_2203_2315" x="67.5326" y="57.9781" width="72.4057" height="93.4782" filterUnits="userSpaceOnUse" color-interpolation-filters="sRGB">
<feFlood flood-opacity="0" result="BackgroundImageFix"/>
<feColorMatrix in="SourceAlpha" type="matrix" values="0 0 0 0 0 0 0 0 0 0 0 0 0 0 0 0 0 0 127 0" result="hardAlpha"/>
<feOffset dy="5.0219"/>
<feGaussianBlur stdDeviation="5.0219"/>
<feColorMatrix type="matrix" values="0 0 0 0 0 0 0 0 0 0 0 0 0 0 0 0 0 0 0.17 0"/>
<feBlend mode="normal" in2="BackgroundImageFix" result="effect1_dropShadow_2203_2315"/>
<feBlend mode="normal" in="SourceGraphic" in2="effect1_dropShadow_2203_2315" result="shape"/>
</filter>
<filter id="filter2_d_2203_2315" x="42.9022" y="83.3594" width="54.9135" height="36.8691" filterUnits="userSpaceOnUse" color-interpolation-filters="sRGB">
<feFlood flood-opacity="0" result="BackgroundImageFix"/>
<feColorMatrix in="SourceAlpha" type="matrix" values="0 0 0 0 0 0 0 0 0 0 0 0 0 0 0 0 0 0 127 0" result="hardAlpha"/>
<feOffset/>
<feGaussianBlur stdDeviation="2"/>
<feComposite in2="hardAlpha" operator="out"/>
<feColorMatrix type="matrix" values="0 0 0 0 0 0 0 0 0 0 0 0 0 0 0 0 0 0 0.25 0"/>
<feBlend mode="normal" in2="BackgroundImageFix" result="effect1_dropShadow_2203_2315"/>
<feBlend mode="normal" in="SourceGraphic" in2="effect1_dropShadow_2203_2315" result="shape"/>
</filter>
</defs>
</svg>
