<svg width="116" height="144" viewBox="0 0 116 144" fill="none" xmlns="http://www.w3.org/2000/svg">
<circle cx="58" cy="56" r="52" fill="#00875A"/>
<circle cx="14.4552" cy="14.1466" r="4.22764" fill="#00875A"/>
<ellipse cx="99.854" cy="9.91842" rx="2.53659" ry="2.53659" fill="#00875A"/>
<ellipse cx="21.2192" cy="98.6987" rx="2.53659" ry="2.53659" fill="#00875A"/>
<circle cx="101.545" cy="100.39" r="4.22764" fill="#00875A"/>
<g filter="url(#filter0_d_2432_3584)">
<path fill-rule="evenodd" clip-rule="evenodd" d="M37.6048 16.6826C34.6259 16.6826 32.2109 19.0975 32.2109 22.0765L32.2109 85.1558L32.2109 95.6342L38.8804 88.375L45.1052 95.1503L51.3301 88.375L57.5492 95.1441L64.0021 88.3628L70.4492 95.1381L76.8964 88.3628L83.7882 95.6054L83.7882 85.1558L83.7882 22.0765C83.7882 19.0975 81.3733 16.6826 78.3943 16.6826L37.6048 16.6826Z" fill="white"/>
</g>
<rect x="51.2734" y="33.8662" width="19.3828" height="1.14016" rx="0.570082" fill="#707070"/>
<rect x="51.2734" y="40.707" width="13.682" height="1.14017" rx="0.570084" fill="#707070"/>
<rect x="51.2734" y="37.2861" width="22.8033" height="1.14016" rx="0.570082" fill="#707070"/>
<path fill-rule="evenodd" clip-rule="evenodd" d="M58.0744 77.4869C64.3492 77.4869 69.436 72.3822 69.436 66.0852C69.436 59.7883 64.3492 54.6836 58.0744 54.6836C51.7996 54.6836 46.7129 59.7883 46.7129 66.0852C46.7129 72.3822 51.7996 77.4869 58.0744 77.4869ZM57.1609 57.5171H54.9019V59.5469H52.1009V62.638H53.541V70.384H52.1009V73.4751L54.9019 73.4751V75.3701H57.1609V73.4751H58.8791C59.0113 73.4751 59.1423 73.4715 59.2719 73.4642V75.092C59.6891 75.0473 60.684 74.8869 61.3261 74.6031V73.0003C61.4007 72.9692 61.4747 72.9366 61.5482 72.9025C62.3827 72.5207 63.1067 72.0096 63.7203 71.3692C64.3461 70.7289 64.8309 69.99 65.1745 69.1526C65.5303 68.3028 65.7083 67.4223 65.7083 66.511C65.7083 65.5874 65.5303 64.7068 65.1745 63.8694C64.8186 63.0197 64.3277 62.2808 63.7019 61.6527C63.0883 61.0124 62.3643 60.5013 61.5298 60.1195C61.4623 60.0882 61.3944 60.0581 61.3261 60.0294V58.2895C60.684 58.0057 59.6891 57.8453 59.2719 57.8005V59.5581C59.1422 59.5506 59.0112 59.5469 58.8791 59.5469H57.1609V57.5171ZM57.9772 70.4087H57.1488V62.6133H57.9772C58.5907 62.6133 59.143 62.7118 59.6338 62.9089C60.1247 63.1059 60.5358 63.3768 60.8671 63.7217C61.2107 64.0665 61.4746 64.479 61.6586 64.9593C61.8427 65.4396 61.9348 65.9568 61.9348 66.511C61.9348 67.0775 61.8427 67.6009 61.6586 68.0811C61.4868 68.5491 61.2291 68.9555 60.8855 69.3003C60.5542 69.6451 60.1431 69.9161 59.6522 70.1131C59.1614 70.3102 58.603 70.4087 57.9772 70.4087Z" fill="#00875A"/>
<path fill-rule="evenodd" clip-rule="evenodd" d="M54.9015 57.5176H57.1606V59.5473H58.8788C59.0109 59.5473 59.1418 59.5511 59.2716 59.5585V57.801C59.6888 57.8457 60.6837 58.0061 61.3257 58.2899V60.0298C61.3941 60.0586 61.462 60.0886 61.5295 60.12C62.3639 60.5017 63.088 61.0128 63.7015 61.6532C64.3274 62.2812 64.8183 63.0201 65.1741 63.8699C65.53 64.7073 65.708 65.5878 65.708 66.5114C65.708 67.4227 65.53 68.3033 65.1741 69.153C64.8305 69.9904 64.3458 70.7293 63.7199 71.3697C63.1064 72.0101 62.3823 72.5211 61.5479 72.9029C61.4744 72.937 61.4003 72.9696 61.3257 73.0007V74.6035C60.6837 74.8873 59.6888 75.0477 59.2716 75.0925V73.4646C59.1419 73.4719 59.011 73.4756 58.8788 73.4756H57.1606V75.3705H54.9015V73.4756L52.1006 73.4755V70.3844H53.5406V62.6384H52.1006V59.5473H54.9015V57.5176ZM57.1485 70.4091H57.9768C58.6027 70.4091 59.161 70.3106 59.6519 70.1136C60.1428 69.9165 60.5539 69.6456 60.8852 69.3008C61.2288 68.956 61.4865 68.5496 61.6583 68.0816C61.8424 67.6013 61.9344 67.0779 61.9344 66.5114C61.9344 65.9573 61.8424 65.44 61.6583 64.9597C61.4742 64.4795 61.2104 64.0669 60.8668 63.7221C60.5355 63.3773 60.1244 63.1063 59.6335 62.9093C59.1426 62.7123 58.5904 62.6137 57.9768 62.6137H57.1485V70.4091Z" fill="white"/>
<ellipse cx="42.722" cy="37.8568" rx="3.99058" ry="3.99058" fill="#00875A"/>
<path d="M41.838 39.3133C41.9646 39.4399 42.169 39.4399 42.2956 39.3133L44.7553 36.8503C44.8819 36.7238 44.8819 36.5193 44.7553 36.3928C44.6288 36.2662 44.4243 36.2662 44.2978 36.3928L42.0652 38.6254L41.1306 37.6908C41.004 37.5642 40.7996 37.5642 40.673 37.6908C40.5465 37.8174 40.5465 38.0218 40.673 38.1484L41.838 39.3133Z" fill="white"/>
<path d="M42.5526 26.6674C42.5073 27.1384 42.33 27.5063 42.0208 27.7711C41.7117 28.0339 41.3005 28.1652 40.7873 28.1652C40.4287 28.1652 40.1123 28.0824 39.8382 27.9166C39.5661 27.7488 39.3559 27.5113 39.2075 27.2041C39.0591 26.8968 38.9818 26.54 38.9756 26.1337V25.7214C38.9756 25.3049 39.0508 24.9381 39.2013 24.6207C39.3517 24.3033 39.5671 24.0587 39.8474 23.8869C40.1298 23.7151 40.4554 23.6292 40.8244 23.6292C41.3211 23.6292 41.721 23.7616 42.0239 24.0264C42.3269 24.2912 42.5031 24.6652 42.5526 25.1483H41.7735C41.7364 24.8309 41.6416 24.6025 41.4891 24.463C41.3386 24.3215 41.1171 24.2508 40.8244 24.2508C40.4843 24.2508 40.2225 24.3731 40.0391 24.6177C39.8577 24.8602 39.765 25.217 39.7609 25.688V26.0791C39.7609 26.5562 39.8474 26.9201 40.0206 27.1707C40.1958 27.4214 40.4513 27.5467 40.7873 27.5467C41.0944 27.5467 41.3252 27.479 41.4798 27.3435C41.6344 27.2081 41.7323 26.9827 41.7735 26.6674H42.5526Z" fill="#707070"/>
<path d="M43.0411 26.4339C43.0411 26.1125 43.106 25.8234 43.2359 25.5667C43.3657 25.308 43.5481 25.1099 43.7831 24.9724C44.018 24.8329 44.288 24.7632 44.5931 24.7632C45.0445 24.7632 45.4103 24.9057 45.6906 25.1907C45.973 25.4758 46.1255 25.8538 46.1482 26.3247L46.1513 26.4976C46.1513 26.821 46.0874 27.1101 45.9596 27.3648C45.8339 27.6195 45.6525 27.8166 45.4155 27.956C45.1805 28.0955 44.9084 28.1652 44.5993 28.1652C44.1273 28.1652 43.7491 28.0116 43.4646 27.7044C43.1823 27.3951 43.0411 26.9837 43.0411 26.4703V26.4339ZM43.7924 26.4976C43.7924 26.8352 43.8635 27.1 44.0057 27.292C44.1479 27.482 44.3458 27.577 44.5993 27.577C44.8528 27.577 45.0496 27.48 45.1898 27.2859C45.332 27.0919 45.4031 26.8079 45.4031 26.4339C45.4031 26.1024 45.3299 25.8396 45.1836 25.6456C45.0393 25.4515 44.8425 25.3545 44.5931 25.3545C44.3478 25.3545 44.153 25.4505 44.0088 25.6425C43.8645 25.8325 43.7924 26.1176 43.7924 26.4976Z" fill="#707070"/>
<path d="M47.493 24.8238L47.5147 25.1665C47.7497 24.8976 48.0712 24.7632 48.4793 24.7632C48.9265 24.7632 49.2326 24.931 49.3975 25.2665C49.6407 24.931 49.9828 24.7632 50.4239 24.7632C50.7929 24.7632 51.067 24.8633 51.2463 25.0634C51.4277 25.2635 51.5204 25.5586 51.5245 25.9488V28.1046H50.7733V25.97C50.7733 25.7618 50.7269 25.6092 50.6341 25.5121C50.5414 25.4151 50.3878 25.3666 50.1735 25.3666C50.0024 25.3666 49.8623 25.4121 49.753 25.503C49.6459 25.592 49.5706 25.7092 49.5273 25.8548L49.5304 28.1046H48.7792V25.9457C48.7689 25.5596 48.5679 25.3666 48.1763 25.3666C47.8754 25.3666 47.6621 25.4869 47.5363 25.7274V28.1046H46.7851V24.8238H47.493Z" fill="#707070"/>
<path d="M55.2252 26.4976C55.2252 27.005 55.1077 27.4102 54.8728 27.7135C54.6378 28.0146 54.3225 28.1652 53.9267 28.1652C53.5599 28.1652 53.2662 28.047 53.0456 27.8105V29.366H52.2944V24.8238H52.9869L53.0178 25.1574C53.2383 24.8946 53.5382 24.7632 53.9175 24.7632C54.3256 24.7632 54.645 24.9128 54.8759 25.212C55.1088 25.5091 55.2252 25.9225 55.2252 26.4521V26.4976ZM54.4771 26.4339C54.4771 26.1064 54.4101 25.8467 54.2761 25.6546C54.1442 25.4626 53.9546 25.3666 53.7072 25.3666C53.4001 25.3666 53.1796 25.4909 53.0456 25.7395V27.195C53.1817 27.4497 53.4043 27.577 53.7134 27.577C53.9525 27.577 54.139 27.483 54.273 27.295C54.409 27.105 54.4771 26.818 54.4771 26.4339Z" fill="#707070"/>
<path d="M57.6151 25.497C57.5161 25.4808 57.4141 25.4727 57.309 25.4727C56.9648 25.4727 56.7329 25.6021 56.6134 25.8608V28.1046H55.8621V24.8238H56.5794L56.5979 25.1907C56.7793 24.9057 57.0307 24.7632 57.3523 24.7632C57.4595 24.7632 57.5481 24.7774 57.6182 24.8057L57.6151 25.497Z" fill="#707070"/>
<path d="M57.8377 26.4339C57.8377 26.1125 57.9026 25.8234 58.0324 25.5667C58.1623 25.308 58.3447 25.1099 58.5797 24.9724C58.8146 24.8329 59.0846 24.7632 59.3897 24.7632C59.841 24.7632 60.2069 24.9057 60.4872 25.1907C60.7696 25.4758 60.9221 25.8538 60.9448 26.3247L60.9479 26.4976C60.9479 26.821 60.884 27.1101 60.7562 27.3648C60.6304 27.6195 60.4491 27.8166 60.212 27.956C59.9771 28.0955 59.705 28.1652 59.3958 28.1652C58.9239 28.1652 58.5457 28.0116 58.2612 27.7044C57.9788 27.3951 57.8377 26.9837 57.8377 26.4703V26.4339ZM58.5889 26.4976C58.5889 26.8352 58.66 27.1 58.8023 27.292C58.9445 27.482 59.1423 27.577 59.3958 27.577C59.6494 27.577 59.8462 27.48 59.9864 27.2859C60.1286 27.0919 60.1997 26.8079 60.1997 26.4339C60.1997 26.1024 60.1265 25.8396 59.9802 25.6456C59.8359 25.4515 59.6391 25.3545 59.3897 25.3545C59.1444 25.3545 58.9496 25.4505 58.8053 25.6425C58.6611 25.8325 58.5889 26.1176 58.5889 26.4976Z" fill="#707070"/>
<path d="M64.5187 26.4976C64.5187 27.007 64.4022 27.4123 64.1693 27.7135C63.9385 28.0146 63.6201 28.1652 63.214 28.1652C62.8224 28.1652 62.5174 28.0268 62.2989 27.7498L62.2618 28.1046H61.5816V23.4473H62.3329V25.1392C62.5493 24.8885 62.841 24.7632 63.2078 24.7632C63.6159 24.7632 63.9364 24.9118 64.1693 25.2089C64.4022 25.5061 64.5187 25.9215 64.5187 26.4551V26.4976ZM63.7674 26.4339C63.7674 26.0781 63.7035 25.8113 63.5757 25.6334C63.448 25.4555 63.2625 25.3666 63.0192 25.3666C62.6936 25.3666 62.4648 25.5061 62.3329 25.785V27.1374C62.4669 27.4224 62.6977 27.5649 63.0254 27.5649C63.2604 27.5649 63.4418 27.479 63.5696 27.3072C63.6973 27.1353 63.7633 26.8756 63.7674 26.5279V26.4339Z" fill="#707070"/>
<path d="M67.1497 28.1046C67.1167 28.0419 67.0878 27.9399 67.0631 27.7984C66.824 28.0429 66.5314 28.1652 66.1851 28.1652C65.8491 28.1652 65.575 28.0712 65.3627 27.8833C65.1504 27.6953 65.0443 27.4628 65.0443 27.1859C65.0443 26.8362 65.1762 26.5683 65.44 26.3824C65.7059 26.1944 66.0851 26.1004 66.5777 26.1004H67.0384V25.8851C67.0384 25.7153 66.9899 25.5799 66.8931 25.4788C66.7962 25.3757 66.6488 25.3241 66.451 25.3241C66.2799 25.3241 66.1397 25.3666 66.0305 25.4515C65.9213 25.5344 65.8666 25.6405 65.8666 25.7699H65.1154C65.1154 25.59 65.1762 25.4222 65.2978 25.2665C65.4194 25.1089 65.5843 24.9856 65.7924 24.8966C66.0027 24.8077 66.2366 24.7632 66.4943 24.7632C66.8859 24.7632 67.1981 24.8602 67.431 25.0543C67.6639 25.2463 67.7835 25.5172 67.7896 25.8669V27.3466C67.7896 27.6417 67.8319 27.8772 67.9164 28.0531V28.1046H67.1497ZM66.3242 27.574C66.4726 27.574 66.6117 27.5386 66.7416 27.4679C66.8735 27.3971 66.9724 27.3021 67.0384 27.1828V26.5643H66.6334C66.3551 26.5643 66.1459 26.6118 66.0058 26.7068C65.8656 26.8018 65.7955 26.9362 65.7955 27.1101C65.7955 27.2516 65.8429 27.3648 65.9378 27.4497C66.0346 27.5325 66.1634 27.574 66.3242 27.574Z" fill="#707070"/>
<path d="M69.2736 24.8238L69.2953 25.2029C69.5426 24.9098 69.8672 24.7632 70.2691 24.7632C70.9658 24.7632 71.3203 25.1543 71.3327 25.9366V28.1046H70.5814V25.9791C70.5814 25.7709 70.535 25.6173 70.4423 25.5182C70.3516 25.4171 70.2022 25.3666 69.994 25.3666C69.691 25.3666 69.4653 25.501 69.3169 25.7699V28.1046H68.5656V24.8238H69.2736Z" fill="#707070"/>
<path d="M73.0423 24.0264V24.8238H73.6328V25.3696H73.0423V27.201C73.0423 27.3264 73.0671 27.4173 73.1165 27.4739C73.1681 27.5285 73.2588 27.5558 73.3886 27.5558C73.4752 27.5558 73.5628 27.5457 73.6514 27.5255V28.0955C73.4803 28.142 73.3154 28.1652 73.1567 28.1652C72.5796 28.1652 72.2911 27.8529 72.2911 27.2283V25.3696H71.7408V24.8238H72.2911V24.0264H73.0423Z" fill="#707070"/>
<path d="M75.6826 28.1652C75.2065 28.1652 74.82 28.0187 74.5232 27.7256C74.2285 27.4305 74.0811 27.0383 74.0811 26.5491V26.4582C74.0811 26.1307 74.145 25.8386 74.2728 25.5819C74.4027 25.3231 74.584 25.122 74.8169 24.9785C75.0498 24.835 75.3095 24.7632 75.596 24.7632C76.0515 24.7632 76.403 24.9057 76.6503 25.1907C76.8997 25.4758 77.0244 25.879 77.0244 26.4006V26.6977H74.8386C74.8613 26.9686 74.953 27.1828 75.1137 27.3405C75.2766 27.4982 75.4806 27.577 75.7259 27.577C76.0701 27.577 76.3504 27.4406 76.5668 27.1677L76.9718 27.5467C76.8378 27.7428 76.6585 27.8954 76.4339 28.0045C76.2113 28.1117 75.9608 28.1652 75.6826 28.1652ZM75.5929 25.3545C75.3868 25.3545 75.2199 25.4252 75.0921 25.5667C74.9664 25.7082 74.886 25.9053 74.8509 26.158H76.2824V26.1034C76.2659 25.8568 76.1989 25.6708 76.0814 25.5455C75.9639 25.4181 75.8011 25.3545 75.5929 25.3545Z" fill="#707070"/>
<defs>
<filter id="filter0_d_2432_3584" x="0.210938" y="0.682617" width="115.577" height="142.951" filterUnits="userSpaceOnUse" color-interpolation-filters="sRGB">
<feFlood flood-opacity="0" result="BackgroundImageFix"/>
<feColorMatrix in="SourceAlpha" type="matrix" values="0 0 0 0 0 0 0 0 0 0 0 0 0 0 0 0 0 0 127 0" result="hardAlpha"/>
<feOffset dy="16"/>
<feGaussianBlur stdDeviation="16"/>
<feComposite in2="hardAlpha" operator="out"/>
<feColorMatrix type="matrix" values="0 0 0 0 0 0 0 0 0 0 0 0 0 0 0 0 0 0 0.4 0"/>
<feBlend mode="normal" in2="BackgroundImageFix" result="effect1_dropShadow_2432_3584"/>
<feBlend mode="normal" in="SourceGraphic" in2="effect1_dropShadow_2432_3584" result="shape"/>
</filter>
</defs>
</svg>
