<svg width="205" height="206" viewBox="0 0 205 206" fill="none" xmlns="http://www.w3.org/2000/svg">
<circle cx="102.5" cy="103" r="102.5" fill="#F9F9F9"/>
<circle cx="102.5" cy="103" r="61.5" fill="#FC764C"/>
<circle cx="51" cy="53.5" r="5" fill="#FC764C"/>
<circle cx="152" cy="48.5" r="3" fill="#FC764C"/>
<circle cx="59" cy="153.5" r="3" fill="#FC764C"/>
<circle cx="154" cy="155.5" r="5" fill="#FC764C"/>
<g filter="url(#filter0_d_2822_1631)">
<path fill-rule="evenodd" clip-rule="evenodd" d="M77.3939 56.5C74.4149 56.5 72 58.9149 72 61.8939L72 137.483L72 149.875L79.8879 141.29L87.25 149.303L94.6121 141.29L101.967 149.296L109.599 141.276L117.224 149.289L124.849 141.276L133 149.841L133 137.483L133 61.8939C133 58.9149 130.585 56.5 127.606 56.5L77.3939 56.5Z" fill="white"/>
</g>
<rect x="94.5449" y="76.8228" width="22.9239" height="1.34846" rx="0.674232" fill="#707070"/>
<rect x="94.5449" y="84.9136" width="16.1816" height="1.34846" rx="0.674232" fill="#707070"/>
<rect x="94.5449" y="80.8682" width="26.9693" height="1.34847" rx="0.674233" fill="#707070"/>
<path fill-rule="evenodd" clip-rule="evenodd" d="M102.589 128.413C110.01 128.413 116.026 122.375 116.026 114.928C116.026 107.481 110.01 101.443 102.589 101.443C95.1674 101.443 89.1514 107.481 89.1514 114.928C89.1514 122.375 95.1674 128.413 102.589 128.413ZM101.508 104.795H98.8364V107.195H95.5237V110.851H97.2269V120.012H95.5237V123.668L98.8364 123.668V125.909H101.508V123.668H103.54C103.697 123.668 103.851 123.664 104.005 123.655V125.58C104.498 125.527 105.675 125.338 106.434 125.002V123.106C106.522 123.07 106.61 123.031 106.697 122.991C107.684 122.539 108.54 121.935 109.266 121.177C110.006 120.42 110.579 119.546 110.986 118.556C111.407 117.551 111.617 116.509 111.617 115.432C111.617 114.339 111.407 113.298 110.986 112.307C110.565 111.302 109.984 110.429 109.244 109.686C108.518 108.928 107.662 108.324 106.675 107.872C106.595 107.835 106.515 107.8 106.434 107.766V105.708C105.675 105.372 104.498 105.183 104.005 105.13V107.208C103.851 107.2 103.697 107.195 103.54 107.195H101.508V104.795ZM102.474 120.041H101.494V110.822H102.474C103.199 110.822 103.852 110.938 104.433 111.171C105.013 111.404 105.5 111.725 105.891 112.133C106.298 112.54 106.61 113.028 106.828 113.596C107.045 114.164 107.154 114.776 107.154 115.432C107.154 116.102 107.045 116.721 106.828 117.289C106.624 117.842 106.32 118.323 105.913 118.73C105.521 119.138 105.035 119.459 104.455 119.692C103.874 119.925 103.214 120.041 102.474 120.041Z" fill="#FC764C"/>
<path fill-rule="evenodd" clip-rule="evenodd" d="M98.8361 104.794H101.508V107.195H103.54C103.696 107.195 103.851 107.199 104.005 107.208V105.13C104.498 105.182 105.675 105.372 106.434 105.708V107.766C106.515 107.8 106.595 107.835 106.675 107.872C107.662 108.324 108.518 108.928 109.244 109.686C109.984 110.428 110.565 111.302 110.985 112.307C111.406 113.298 111.617 114.339 111.617 115.431C111.617 116.509 111.406 117.551 110.985 118.556C110.579 119.546 110.006 120.42 109.266 121.177C108.54 121.935 107.684 122.539 106.697 122.991C106.61 123.031 106.522 123.069 106.434 123.106V125.002C105.675 125.337 104.498 125.527 104.005 125.58V123.655C103.851 123.663 103.696 123.668 103.54 123.668H101.508V125.909H98.8361V123.668L95.5234 123.668V120.012H97.2266V110.851H95.5234V107.195H98.8361V104.794ZM101.494 120.041H102.473C103.213 120.041 103.874 119.925 104.454 119.692C105.035 119.459 105.521 119.138 105.913 118.73C106.319 118.323 106.624 117.842 106.827 117.288C107.045 116.72 107.154 116.101 107.154 115.431C107.154 114.776 107.045 114.164 106.827 113.596C106.61 113.028 106.298 112.54 105.891 112.132C105.499 111.725 105.013 111.404 104.433 111.171C103.852 110.938 103.199 110.822 102.473 110.822H101.494V120.041Z" fill="white"/>
<circle cx="84.4315" cy="81.5424" r="4.71963" fill="#FC764C"/>
<path d="M83.3866 83.2656C83.5362 83.4153 83.778 83.4153 83.9277 83.2656L86.8368 80.3526C86.9865 80.2029 86.9865 79.9612 86.8368 79.8115C86.6872 79.6618 86.4454 79.6618 86.2957 79.8115L83.6552 82.452L82.5499 81.3466C82.4002 81.197 82.1584 81.197 82.0087 81.3466C81.8591 81.4963 81.8591 81.7381 82.0087 81.8878L83.3866 83.2656Z" fill="white"/>
<path d="M84.2305 68.3084C84.1769 68.8654 83.9673 69.3005 83.6016 69.6137C83.236 69.9245 82.7497 70.0799 82.1427 70.0799C81.7185 70.0799 81.3444 69.9819 81.0202 69.7859C80.6984 69.5874 80.4497 69.3065 80.2742 68.9431C80.0987 68.5797 80.0073 68.1578 80 67.6773V67.1895C80 66.6971 80.089 66.2631 80.2669 65.8878C80.4449 65.5125 80.6996 65.2232 81.0311 65.02C81.3651 64.8168 81.7502 64.7152 82.1866 64.7152C82.774 64.7152 83.2469 64.8718 83.6053 65.1849C83.9636 65.4981 84.172 65.9404 84.2305 66.5118H83.3091C83.2652 66.1364 83.1531 65.8663 82.9727 65.7013C82.7948 65.534 82.5327 65.4503 82.1866 65.4503C81.7844 65.4503 81.4748 65.5949 81.2578 65.8842C81.0433 66.1711 80.9336 66.5931 80.9287 67.1501V67.6127C80.9287 68.1769 81.0311 68.6072 81.2359 68.9037C81.4431 69.2001 81.7453 69.3484 82.1427 69.3484C82.5059 69.3484 82.7789 69.2683 82.9617 69.1081C83.1446 68.9479 83.2603 68.6814 83.3091 68.3084H84.2305Z" fill="#707070"/>
<path d="M84.8082 68.0323C84.8082 67.6522 84.885 67.3103 85.0386 67.0067C85.1922 66.7006 85.4079 66.4664 85.6858 66.3038C85.9637 66.1388 86.283 66.0564 86.6438 66.0564C87.1776 66.0564 87.6103 66.2249 87.9418 66.562C88.2758 66.8991 88.4562 67.3461 88.483 67.9032L88.4866 68.1076C88.4866 68.4901 88.4111 68.832 88.2599 69.1332C88.1112 69.4344 87.8967 69.6675 87.6164 69.8325C87.3385 69.9974 87.0167 70.0799 86.6511 70.0799C86.0929 70.0799 85.6456 69.8982 85.3092 69.5348C84.9752 69.1691 84.8082 68.6825 84.8082 68.0753V68.0323ZM85.6968 68.1076C85.6968 68.5068 85.7809 68.82 85.9491 69.0471C86.1172 69.2719 86.3513 69.3842 86.6511 69.3842C86.9509 69.3842 87.1837 69.2695 87.3495 69.04C87.5177 68.8105 87.6018 68.4746 87.6018 68.0323C87.6018 67.6402 87.5152 67.3294 87.3422 67.0999C87.1715 66.8704 86.9387 66.7556 86.6438 66.7556C86.3537 66.7556 86.1233 66.8692 85.9527 67.0963C85.7821 67.321 85.6968 67.6581 85.6968 68.1076Z" fill="#707070"/>
<path d="M90.0735 66.1281L90.0991 66.5333C90.377 66.2153 90.7573 66.0564 91.2399 66.0564C91.7689 66.0564 92.1309 66.2548 92.3259 66.6516C92.6136 66.2548 93.0182 66.0564 93.5399 66.0564C93.9762 66.0564 94.3004 66.1747 94.5125 66.4114C94.727 66.6481 94.8367 66.9971 94.8416 67.4585V70.0082H93.953V67.4836C93.953 67.2374 93.8982 67.0569 93.7885 66.9421C93.6788 66.8274 93.4972 66.77 93.2437 66.77C93.0414 66.77 92.8756 66.8238 92.7464 66.9314C92.6196 67.0365 92.5307 67.1752 92.4795 67.3473L92.4831 70.0082H91.5946V67.4549C91.5824 66.9983 91.3448 66.77 90.8816 66.77C90.5257 66.77 90.2734 66.9122 90.1247 67.1967V70.0082H89.2362V66.1281H90.0735Z" fill="#707070"/>
<path d="M99.2183 68.1076C99.2183 68.7077 99.0794 69.187 98.8015 69.5456C98.5236 69.9018 98.1506 70.0799 97.6826 70.0799C97.2487 70.0799 96.9014 69.9401 96.6405 69.6603V71.5H95.752V66.1281H96.5711L96.6076 66.5225C96.8684 66.2117 97.2231 66.0564 97.6716 66.0564C98.1543 66.0564 98.5321 66.2333 98.8051 66.5871C99.0806 66.9385 99.2183 67.4274 99.2183 68.0538V68.1076ZM98.3335 68.0323C98.3335 67.645 98.2542 67.3378 98.0958 67.1107C97.9398 66.8835 97.7155 66.77 97.423 66.77C97.0598 66.77 96.799 66.917 96.6405 67.2111V68.9324C96.8014 69.2336 97.0647 69.3842 97.4303 69.3842C97.7131 69.3842 97.9337 69.2731 98.0921 69.0507C98.253 68.826 98.3335 68.4865 98.3335 68.0323Z" fill="#707070"/>
<path d="M102.045 66.9242C101.928 66.9051 101.807 66.8955 101.683 66.8955C101.276 66.8955 101.001 67.0485 100.86 67.3545V70.0082H99.9716V66.1281H100.82L100.842 66.562C101.056 66.2249 101.354 66.0564 101.734 66.0564C101.861 66.0564 101.966 66.0731 102.048 66.1066L102.045 66.9242Z" fill="#707070"/>
<path d="M102.308 68.0323C102.308 67.6522 102.385 67.3103 102.538 67.0067C102.692 66.7006 102.908 66.4664 103.186 66.3038C103.463 66.1388 103.783 66.0564 104.144 66.0564C104.677 66.0564 105.11 66.2249 105.442 66.562C105.776 66.8991 105.956 67.3461 105.983 67.9032L105.986 68.1076C105.986 68.4901 105.911 68.832 105.76 69.1332C105.611 69.4344 105.397 69.6675 105.116 69.8325C104.838 69.9974 104.517 70.0799 104.151 70.0799C103.593 70.0799 103.145 69.8982 102.809 69.5348C102.475 69.1691 102.308 68.6825 102.308 68.0753V68.0323ZM103.197 68.1076C103.197 68.5068 103.281 68.82 103.449 69.0471C103.617 69.2719 103.851 69.3842 104.151 69.3842C104.451 69.3842 104.684 69.2695 104.849 69.04C105.017 68.8105 105.102 68.4746 105.102 68.0323C105.102 67.6402 105.015 67.3294 104.842 67.0999C104.671 66.8704 104.439 66.7556 104.144 66.7556C103.853 66.7556 103.623 66.8692 103.453 67.0963C103.282 67.321 103.197 67.6581 103.197 68.1076Z" fill="#707070"/>
<path d="M110.21 68.1076C110.21 68.71 110.072 69.1894 109.796 69.5456C109.523 69.9018 109.147 70.0799 108.667 70.0799C108.203 70.0799 107.843 69.9162 107.584 69.5886L107.54 70.0082H106.736V64.5H107.625V66.501C107.88 66.2046 108.225 66.0564 108.659 66.0564C109.142 66.0564 109.521 66.2321 109.796 66.5835C110.072 66.9349 110.21 67.4262 110.21 68.0574V68.1076ZM109.321 68.0323C109.321 67.6115 109.246 67.2959 109.094 67.0856C108.943 66.8752 108.724 66.77 108.436 66.77C108.051 66.77 107.781 66.9349 107.625 67.2649V68.8642C107.783 69.2013 108.056 69.3699 108.444 69.3699C108.721 69.3699 108.936 69.2683 109.087 69.0651C109.238 68.8619 109.316 68.5546 109.321 68.1434V68.0323Z" fill="#707070"/>
<path d="M113.321 70.0082C113.282 69.9341 113.248 69.8134 113.219 69.646C112.936 69.9353 112.59 70.0799 112.18 70.0799C111.783 70.0799 111.459 69.9688 111.208 69.7464C110.957 69.5241 110.831 69.2491 110.831 68.9216C110.831 68.508 110.987 68.1913 111.299 67.9713C111.614 67.749 112.062 67.6378 112.645 67.6378H113.19V67.3832C113.19 67.1824 113.132 67.0222 113.018 66.9027C112.903 66.7807 112.729 66.7198 112.495 66.7198C112.293 66.7198 112.127 66.77 111.998 66.8704C111.868 66.9684 111.804 67.0939 111.804 67.2469H110.915C110.915 67.0342 110.987 66.8357 111.131 66.6516C111.275 66.4652 111.47 66.3193 111.716 66.2141C111.965 66.1089 112.241 66.0564 112.546 66.0564C113.009 66.0564 113.379 66.1711 113.654 66.4006C113.929 66.6277 114.071 66.9481 114.078 67.3617V69.1117C114.078 69.4607 114.128 69.7392 114.228 69.9472V70.0082H113.321ZM112.345 69.3806C112.521 69.3806 112.685 69.3388 112.839 69.2551C112.995 69.1714 113.112 69.0591 113.19 68.918V68.1865H112.711C112.382 68.1865 112.134 68.2427 111.968 68.355C111.803 68.4674 111.72 68.6264 111.72 68.832C111.72 68.9993 111.776 69.1332 111.888 69.2336C112.003 69.3316 112.155 69.3806 112.345 69.3806Z" fill="#707070"/>
<path d="M115.833 66.1281L115.859 66.5763C116.151 66.2297 116.535 66.0564 117.011 66.0564C117.835 66.0564 118.254 66.519 118.268 67.4442V70.0082H117.38V67.4944C117.38 67.2481 117.325 67.0664 117.215 66.9493C117.108 66.8297 116.931 66.77 116.685 66.77C116.327 66.77 116.06 66.929 115.884 67.2469V70.0082H114.996V66.1281H115.833Z" fill="#707070"/>
<path d="M120.29 65.1849V66.1281H120.989V66.7736H120.29V68.9395C120.29 69.0878 120.32 69.1954 120.378 69.2623C120.439 69.3268 120.546 69.3591 120.7 69.3591C120.802 69.3591 120.906 69.3472 121.011 69.3233V69.9974C120.808 70.0524 120.613 70.0799 120.426 70.0799C119.743 70.0799 119.402 69.7106 119.402 68.9718V66.7736H118.751V66.1281H119.402V65.1849H120.29Z" fill="#707070"/>
<path d="M123.413 70.0799C122.85 70.0799 122.393 69.9066 122.042 69.5599C121.693 69.2109 121.519 68.7471 121.519 68.1685V68.061C121.519 67.6737 121.595 67.3282 121.746 67.0246C121.899 66.7186 122.114 66.4807 122.389 66.311C122.665 66.1412 122.972 66.0564 123.311 66.0564C123.849 66.0564 124.265 66.2249 124.558 66.562C124.853 66.8991 125 67.376 125 67.9928V68.3443H122.415C122.442 68.6646 122.55 68.918 122.74 69.1045C122.933 69.291 123.174 69.3842 123.464 69.3842C123.871 69.3842 124.203 69.2228 124.459 68.9001L124.938 69.3484C124.779 69.5803 124.567 69.7608 124.302 69.8899C124.038 70.0166 123.742 70.0799 123.413 70.0799ZM123.307 66.7556C123.063 66.7556 122.866 66.8393 122.715 67.0067C122.566 67.174 122.471 67.4071 122.43 67.7059H124.122V67.6414C124.103 67.3497 124.024 67.1298 123.885 66.9816C123.746 66.8309 123.553 66.7556 123.307 66.7556Z" fill="#707070"/>
<defs>
<filter id="filter0_d_2822_1631" x="40" y="40.5" width="125" height="157.375" filterUnits="userSpaceOnUse" color-interpolation-filters="sRGB">
<feFlood flood-opacity="0" result="BackgroundImageFix"/>
<feColorMatrix in="SourceAlpha" type="matrix" values="0 0 0 0 0 0 0 0 0 0 0 0 0 0 0 0 0 0 127 0" result="hardAlpha"/>
<feOffset dy="16"/>
<feGaussianBlur stdDeviation="16"/>
<feComposite in2="hardAlpha" operator="out"/>
<feColorMatrix type="matrix" values="0 0 0 0 0 0 0 0 0 0 0 0 0 0 0 0 0 0 0.4 0"/>
<feBlend mode="normal" in2="BackgroundImageFix" result="effect1_dropShadow_2822_1631"/>
<feBlend mode="normal" in="SourceGraphic" in2="effect1_dropShadow_2822_1631" result="shape"/>
</filter>
</defs>
</svg>
