<svg width="106" height="134" viewBox="0 0 106 134" fill="none" xmlns="http://www.w3.org/2000/svg">
<circle cx="53" cy="53" r="52" fill="#707070"/>
<circle cx="9.45518" cy="11.1466" r="4.22764" fill="#707070"/>
<circle cx="94.854" cy="6.91842" r="2.53659" fill="#707070"/>
<circle cx="16.2192" cy="95.6997" r="2.53659" fill="#707070"/>
<circle cx="96.545" cy="97.3907" r="4.22764" fill="#707070"/>
<g filter="url(#filter0_d_2517_752)">
<path fill-rule="evenodd" clip-rule="evenodd" d="M31.7716 13.6826C29.2529 13.6826 27.211 15.7245 27.211 18.2433L27.211 82.1559L27.2109 92.6342L33.8804 85.375L40.1052 92.1503L46.3301 85.375L52.5492 92.1441L59.0021 85.3628L65.4492 92.1381L71.8964 85.3628L78.7882 92.6054L78.7882 82.1559L78.7882 18.2433C78.7882 15.7245 76.7463 13.6826 74.2276 13.6826L31.7716 13.6826Z" fill="white"/>
</g>
<rect x="33.9756" y="30.5928" width="32.1301" height="1.69106" rx="0.688739" fill="#333333"/>
<rect x="33.9756" y="37.3574" width="22.8293" height="1.69106" rx="0.688739" fill="#333333"/>
<rect x="33.9756" y="33.9756" width="38.0488" height="1.69106" rx="0.688739" fill="#333333"/>
<path d="M37.5526 23.6674C37.5073 24.1384 37.33 24.5063 37.0208 24.7711C36.7117 25.0339 36.3005 25.1652 35.7873 25.1652C35.4287 25.1652 35.1123 25.0824 34.8382 24.9166C34.5661 24.7488 34.3559 24.5113 34.2075 24.2041C34.0591 23.8968 33.9818 23.54 33.9756 23.1337V22.7214C33.9756 22.3049 34.0508 21.9381 34.2013 21.6207C34.3517 21.3033 34.5671 21.0587 34.8474 20.8869C35.1298 20.7151 35.4554 20.6292 35.8244 20.6292C36.3211 20.6292 36.721 20.7616 37.0239 21.0264C37.3269 21.2912 37.5031 21.6652 37.5526 22.1483H36.7735C36.7364 21.8309 36.6416 21.6025 36.4891 21.463C36.3386 21.3215 36.1171 21.2508 35.8244 21.2508C35.4843 21.2508 35.2225 21.3731 35.0391 21.6177C34.8577 21.8602 34.765 22.217 34.7609 22.688V23.0791C34.7609 23.5562 34.8474 23.9201 35.0206 24.1707C35.1958 24.4214 35.4513 24.5467 35.7873 24.5467C36.0944 24.5467 36.3252 24.479 36.4798 24.3435C36.6344 24.2081 36.7323 23.9827 36.7735 23.6674H37.5526Z" fill="#707070"/>
<path d="M38.0411 23.4339C38.0411 23.1125 38.106 22.8234 38.2359 22.5667C38.3657 22.308 38.5481 22.1099 38.7831 21.9724C39.018 21.8329 39.288 21.7632 39.5931 21.7632C40.0445 21.7632 40.4103 21.9057 40.6906 22.1907C40.973 22.4758 41.1255 22.8538 41.1482 23.3247L41.1513 23.4976C41.1513 23.821 41.0874 24.1101 40.9596 24.3648C40.8339 24.6195 40.6525 24.8166 40.4155 24.956C40.1805 25.0955 39.9084 25.1652 39.5993 25.1652C39.1273 25.1652 38.7491 25.0116 38.4646 24.7044C38.1823 24.3951 38.0411 23.9837 38.0411 23.4703V23.4339ZM38.7924 23.4976C38.7924 23.8352 38.8635 24.1 39.0057 24.292C39.1479 24.482 39.3458 24.577 39.5993 24.577C39.8528 24.577 40.0496 24.48 40.1898 24.2859C40.332 24.0919 40.4031 23.8079 40.4031 23.4339C40.4031 23.1024 40.3299 22.8396 40.1836 22.6456C40.0393 22.4515 39.8425 22.3545 39.5931 22.3545C39.3478 22.3545 39.153 22.4505 39.0088 22.6425C38.8645 22.8325 38.7924 23.1176 38.7924 23.4976Z" fill="#707070"/>
<path d="M42.493 21.8238L42.5147 22.1665C42.7497 21.8976 43.0712 21.7632 43.4793 21.7632C43.9265 21.7632 44.2326 21.931 44.3975 22.2665C44.6407 21.931 44.9828 21.7632 45.4239 21.7632C45.7929 21.7632 46.067 21.8633 46.2463 22.0634C46.4277 22.2635 46.5204 22.5586 46.5245 22.9488V25.1046H45.7733V22.97C45.7733 22.7618 45.7269 22.6092 45.6341 22.5121C45.5414 22.4151 45.3878 22.3666 45.1735 22.3666C45.0024 22.3666 44.8623 22.4121 44.753 22.503C44.6459 22.592 44.5706 22.7092 44.5273 22.8548L44.5304 25.1046H43.7792V22.9457C43.7689 22.5596 43.5679 22.3666 43.1763 22.3666C42.8754 22.3666 42.6621 22.4869 42.5363 22.7274V25.1046H41.7851V21.8238H42.493Z" fill="#707070"/>
<path d="M50.2252 23.4976C50.2252 24.005 50.1077 24.4102 49.8728 24.7135C49.6378 25.0146 49.3225 25.1652 48.9267 25.1652C48.5599 25.1652 48.2662 25.047 48.0456 24.8105V26.366H47.2944V21.8238H47.9869L48.0178 22.1574C48.2383 21.8946 48.5382 21.7632 48.9175 21.7632C49.3256 21.7632 49.645 21.9128 49.8759 22.212C50.1088 22.5091 50.2252 22.9225 50.2252 23.4521V23.4976ZM49.4771 23.4339C49.4771 23.1064 49.4101 22.8467 49.2761 22.6546C49.1442 22.4626 48.9546 22.3666 48.7072 22.3666C48.4001 22.3666 48.1796 22.4909 48.0456 22.7395V24.195C48.1817 24.4497 48.4043 24.577 48.7134 24.577C48.9525 24.577 49.139 24.483 49.273 24.295C49.409 24.105 49.4771 23.818 49.4771 23.4339Z" fill="#707070"/>
<path d="M52.6151 22.497C52.5161 22.4808 52.4141 22.4727 52.309 22.4727C51.9648 22.4727 51.7329 22.6021 51.6134 22.8608V25.1046H50.8621V21.8238H51.5794L51.5979 22.1907C51.7793 21.9057 52.0307 21.7632 52.3523 21.7632C52.4595 21.7632 52.5481 21.7774 52.6182 21.8057L52.6151 22.497Z" fill="#707070"/>
<path d="M52.8377 23.4339C52.8377 23.1125 52.9026 22.8234 53.0324 22.5667C53.1623 22.308 53.3447 22.1099 53.5797 21.9724C53.8146 21.8329 54.0846 21.7632 54.3897 21.7632C54.841 21.7632 55.2069 21.9057 55.4872 22.1907C55.7696 22.4758 55.9221 22.8538 55.9448 23.3247L55.9479 23.4976C55.9479 23.821 55.884 24.1101 55.7562 24.3648C55.6304 24.6195 55.4491 24.8166 55.212 24.956C54.9771 25.0955 54.705 25.1652 54.3958 25.1652C53.9239 25.1652 53.5457 25.0116 53.2612 24.7044C52.9788 24.3951 52.8377 23.9837 52.8377 23.4703V23.4339ZM53.5889 23.4976C53.5889 23.8352 53.66 24.1 53.8023 24.292C53.9445 24.482 54.1423 24.577 54.3958 24.577C54.6494 24.577 54.8462 24.48 54.9864 24.2859C55.1286 24.0919 55.1997 23.8079 55.1997 23.4339C55.1997 23.1024 55.1265 22.8396 54.9802 22.6456C54.8359 22.4515 54.6391 22.3545 54.3897 22.3545C54.1444 22.3545 53.9496 22.4505 53.8053 22.6425C53.6611 22.8325 53.5889 23.1176 53.5889 23.4976Z" fill="#707070"/>
<path d="M59.5187 23.4976C59.5187 24.007 59.4022 24.4123 59.1693 24.7135C58.9385 25.0146 58.6201 25.1652 58.214 25.1652C57.8224 25.1652 57.5174 25.0268 57.2989 24.7498L57.2618 25.1046H56.5816V20.4473H57.3329V22.1392C57.5493 21.8885 57.841 21.7632 58.2078 21.7632C58.6159 21.7632 58.9364 21.9118 59.1693 22.2089C59.4022 22.5061 59.5187 22.9215 59.5187 23.4551V23.4976ZM58.7674 23.4339C58.7674 23.0781 58.7035 22.8113 58.5757 22.6334C58.448 22.4555 58.2625 22.3666 58.0192 22.3666C57.6936 22.3666 57.4648 22.5061 57.3329 22.785V24.1374C57.4669 24.4224 57.6977 24.5649 58.0254 24.5649C58.2604 24.5649 58.4418 24.479 58.5696 24.3072C58.6973 24.1353 58.7633 23.8756 58.7674 23.5279V23.4339Z" fill="#707070"/>
<path d="M62.1497 25.1046C62.1167 25.0419 62.0878 24.9399 62.0631 24.7984C61.824 25.0429 61.5314 25.1652 61.1851 25.1652C60.8491 25.1652 60.575 25.0712 60.3627 24.8833C60.1504 24.6953 60.0443 24.4628 60.0443 24.1859C60.0443 23.8362 60.1762 23.5683 60.44 23.3824C60.7059 23.1944 61.0851 23.1004 61.5777 23.1004H62.0384V22.8851C62.0384 22.7153 61.9899 22.5799 61.8931 22.4788C61.7962 22.3757 61.6488 22.3241 61.451 22.3241C61.2799 22.3241 61.1397 22.3666 61.0305 22.4515C60.9213 22.5344 60.8666 22.6405 60.8666 22.7699H60.1154C60.1154 22.59 60.1762 22.4222 60.2978 22.2665C60.4194 22.1089 60.5843 21.9856 60.7924 21.8966C61.0027 21.8077 61.2366 21.7632 61.4943 21.7632C61.8859 21.7632 62.1981 21.8602 62.431 22.0543C62.6639 22.2463 62.7835 22.5172 62.7896 22.8669V24.3466C62.7896 24.6417 62.8319 24.8772 62.9164 25.0531V25.1046H62.1497ZM61.3242 24.574C61.4726 24.574 61.6117 24.5386 61.7416 24.4679C61.8735 24.3971 61.9724 24.3021 62.0384 24.1828V23.5643H61.6334C61.3551 23.5643 61.1459 23.6118 61.0058 23.7068C60.8656 23.8018 60.7955 23.9362 60.7955 24.1101C60.7955 24.2516 60.8429 24.3648 60.9378 24.4497C61.0346 24.5325 61.1634 24.574 61.3242 24.574Z" fill="#707070"/>
<path d="M64.2736 21.8238L64.2953 22.2029C64.5426 21.9098 64.8672 21.7632 65.2691 21.7632C65.9658 21.7632 66.3203 22.1543 66.3327 22.9366V25.1046H65.5814V22.9791C65.5814 22.7709 65.535 22.6173 65.4423 22.5182C65.3516 22.4171 65.2022 22.3666 64.994 22.3666C64.691 22.3666 64.4653 22.501 64.3169 22.7699V25.1046H63.5656V21.8238H64.2736Z" fill="#707070"/>
<path d="M68.0423 21.0264V21.8238H68.6328V22.3696H68.0423V24.201C68.0423 24.3264 68.0671 24.4173 68.1165 24.4739C68.1681 24.5285 68.2588 24.5558 68.3886 24.5558C68.4752 24.5558 68.5628 24.5457 68.6514 24.5255V25.0955C68.4803 25.142 68.3154 25.1652 68.1567 25.1652C67.5796 25.1652 67.2911 24.8529 67.2911 24.2283V22.3696H66.7408V21.8238H67.2911V21.0264H68.0423Z" fill="#707070"/>
<path d="M70.6826 25.1652C70.2065 25.1652 69.82 25.0187 69.5232 24.7256C69.2285 24.4305 69.0811 24.0383 69.0811 23.5491V23.4582C69.0811 23.1307 69.145 22.8386 69.2728 22.5819C69.4027 22.3231 69.584 22.122 69.8169 21.9785C70.0498 21.835 70.3095 21.7632 70.596 21.7632C71.0515 21.7632 71.403 21.9057 71.6503 22.1907C71.8997 22.4758 72.0244 22.879 72.0244 23.4006V23.6977H69.8386C69.8613 23.9686 69.953 24.1828 70.1137 24.3405C70.2766 24.4982 70.4806 24.577 70.7259 24.577C71.0701 24.577 71.3504 24.4406 71.5668 24.1677L71.9718 24.5467C71.8378 24.7428 71.6585 24.8954 71.4339 25.0045C71.2113 25.1117 70.9608 25.1652 70.6826 25.1652ZM70.5929 22.3545C70.3868 22.3545 70.2199 22.4252 70.0921 22.5667C69.9664 22.7082 69.886 22.9053 69.8509 23.158H71.2824V23.1034C71.2659 22.8568 71.1989 22.6708 71.0814 22.5455C70.9639 22.4181 70.8011 22.3545 70.5929 22.3545Z" fill="#707070"/>
<path d="M68.7491 71.6453H66.7117L65.9896 70.949C68.517 68.0089 70.0386 64.192 70.0386 60.0398C70.0386 50.7812 62.5338 43.2764 53.2752 43.2764C44.0166 43.2764 36.5117 50.7812 36.5117 60.0398C36.5117 69.2984 44.0166 76.8033 53.2752 76.8033C57.4274 76.8033 61.2443 75.2817 64.1843 72.7543L64.8806 73.4764V75.5138L75.8523 86.4635C76.9148 87.5239 78.6355 87.523 79.697 86.4616C80.7584 85.4002 80.7593 83.6795 79.6989 82.617L68.7491 71.6453ZM53.2752 71.6453C46.8535 71.6453 41.6697 66.4615 41.6697 60.0398C41.6697 53.6181 46.8535 48.4344 53.2752 48.4344C59.6969 48.4344 64.8806 53.6181 64.8806 60.0398C64.8806 66.4615 59.6969 71.6453 53.2752 71.6453Z" fill="#141414"/>
<path d="M51.7818 63.2393C51.7818 62.443 51.8808 61.8084 52.0787 61.3353C52.2766 60.8623 52.6665 60.3444 53.2483 59.7816C53.836 59.2128 54.2079 58.8087 54.3638 58.5692C54.6037 58.2039 54.7237 57.8088 54.7237 57.3837C54.7237 56.8208 54.5827 56.3927 54.3008 56.0994C54.025 55.8 53.6171 55.6503 53.0773 55.6503C52.5615 55.6503 52.1447 55.797 51.8268 56.0904C51.5149 56.3778 51.359 56.77 51.359 57.2669H49.1729C49.1848 56.2071 49.5447 55.3689 50.2524 54.7522C50.9662 54.1355 51.9078 53.8271 53.0773 53.8271C54.2829 53.8271 55.2215 54.1325 55.8932 54.7432C56.571 55.3539 56.9098 56.2071 56.9098 57.3028C56.9098 58.2788 56.454 59.2398 55.5424 60.1858L54.4358 61.2725C54.04 61.7215 53.836 62.3772 53.824 63.2393H51.7818ZM51.6289 66.0325C51.6289 65.6792 51.7398 65.3948 51.9618 65.1793C52.1837 64.9577 52.4836 64.847 52.8614 64.847C53.2453 64.847 53.5481 64.9607 53.7701 65.1882C53.992 65.4098 54.1029 65.6912 54.1029 66.0325C54.1029 66.3618 53.995 66.6372 53.7791 66.8587C53.5631 67.0803 53.2573 67.191 52.8614 67.191C52.4656 67.191 52.1597 67.0803 51.9438 66.8587C51.7339 66.6372 51.6289 66.3618 51.6289 66.0325Z" fill="#141414"/>
<defs>
<filter id="filter0_d_2517_752" x="0.154026" y="0.154161" width="105.691" height="133.065" filterUnits="userSpaceOnUse" color-interpolation-filters="sRGB">
<feFlood flood-opacity="0" result="BackgroundImageFix"/>
<feColorMatrix in="SourceAlpha" type="matrix" values="0 0 0 0 0 0 0 0 0 0 0 0 0 0 0 0 0 0 127 0" result="hardAlpha"/>
<feOffset dy="13.5285"/>
<feGaussianBlur stdDeviation="13.5285"/>
<feComposite in2="hardAlpha" operator="out"/>
<feColorMatrix type="matrix" values="0 0 0 0 0 0 0 0 0 0 0 0 0 0 0 0 0 0 0.4 0"/>
<feBlend mode="normal" in2="BackgroundImageFix" result="effect1_dropShadow_2517_752"/>
<feBlend mode="normal" in="SourceGraphic" in2="effect1_dropShadow_2517_752" result="shape"/>
</filter>
</defs>
</svg>
