<svg width="160" height="160" viewBox="0 0 160 160" fill="none" xmlns="http://www.w3.org/2000/svg">
<circle cx="80" cy="80" r="80" fill="#F9F9F9"/>
<circle cx="80" cy="80" r="48" fill="#FC764C"/>
<circle cx="39.8048" cy="41.3663" r="3.90244" fill="#FC764C"/>
<circle cx="118.634" cy="37.4635" r="2.34146" fill="#FC764C"/>
<circle cx="46.0485" cy="119.415" r="2.34146" fill="#FC764C"/>
<circle cx="120.195" cy="120.976" r="3.90244" fill="#FC764C"/>
<g filter="url(#filter0_d_3167_8620)">
<path d="M107.812 99.1818C115.944 99.1818 122.536 92.5895 122.536 84.4576C122.536 76.3256 115.944 69.7334 107.812 69.7334C107.243 69.7334 106.681 69.7657 106.128 69.8286C105.333 56.9932 94.6712 46.8291 81.6355 46.8291C70.8608 46.8291 61.708 53.773 58.408 63.4297C57.4485 63.2716 56.4634 63.1893 55.4591 63.1893C45.5201 63.1893 37.4629 71.2465 37.4629 81.1856C37.4629 91.1246 45.5201 99.1818 55.4591 99.1818C56.0106 99.1818 56.5563 99.157 57.0952 99.1084V99.1818L107.812 99.1818Z" fill="white"/>
<circle cx="79.9997" cy="95.9997" r="18.3415" fill="#FC764C"/>
<path fill-rule="evenodd" clip-rule="evenodd" d="M80.7879 106.235C80.3077 106.715 79.529 106.715 79.0487 106.235L71.2223 98.4081C70.742 97.9278 70.742 97.1491 71.2223 96.6688C71.7025 96.1886 72.4812 96.1886 72.9615 96.6688L78.6885 102.396L78.6885 86.3028C78.6885 85.6236 79.2391 85.073 79.9183 85.073C80.5975 85.073 81.1481 85.6236 81.1481 86.3028L81.1481 102.396L86.8752 96.6688C87.3555 96.1886 88.1341 96.1886 88.6144 96.6688C89.0947 97.1491 89.0947 97.9278 88.6144 98.4081L80.7879 106.235Z" fill="#141414"/>
</g>
<defs>
<filter id="filter0_d_3167_8620" x="12.4873" y="34.3413" width="135.023" height="117.463" filterUnits="userSpaceOnUse" color-interpolation-filters="sRGB">
<feFlood flood-opacity="0" result="BackgroundImageFix"/>
<feColorMatrix in="SourceAlpha" type="matrix" values="0 0 0 0 0 0 0 0 0 0 0 0 0 0 0 0 0 0 127 0" result="hardAlpha"/>
<feOffset dy="12.4878"/>
<feGaussianBlur stdDeviation="12.4878"/>
<feComposite in2="hardAlpha" operator="out"/>
<feColorMatrix type="matrix" values="0 0 0 0 0 0 0 0 0 0 0 0 0 0 0 0 0 0 0.4 0"/>
<feBlend mode="normal" in2="BackgroundImageFix" result="effect1_dropShadow_3167_8620"/>
<feBlend mode="normal" in="SourceGraphic" in2="effect1_dropShadow_3167_8620" result="shape"/>
</filter>
</defs>
</svg>
