<svg width="39" height="27" viewBox="0 0 39 27" fill="none" xmlns="http://www.w3.org/2000/svg">
<g clip-path="url(#clip0_775_31103)">
<path fill-rule="evenodd" clip-rule="evenodd" d="M3.14516 0H5.66129V1.84317H7.10783C7.47381 1.84317 7.83036 1.86418 8.17738 1.9062V0.0516273C8.99898 0.132375 9.79053 0.308386 10.5464 0.583443C10.5969 0.605056 10.646 0.627266 10.6936 0.650075V2.66039C10.7868 2.70775 10.8791 2.75716 10.9705 2.80864C12.1134 3.44497 13.0039 4.34827 13.6421 5.51854C14.2878 6.68149 14.6143 7.98707 14.6217 9.43529V10.1704C14.6217 11.6332 14.3063 12.946 13.6755 14.109C13.0522 15.2647 12.169 16.1716 11.0261 16.8299C10.9166 16.8927 10.8057 16.9526 10.6936 17.0095V19.0104C10.5941 19.0581 10.4878 19.1032 10.3768 19.1457C9.67177 19.3864 8.93727 19.5416 8.17738 19.6137V17.7598C7.86523 17.7964 7.54582 17.8156 7.21915 17.8173H5.66129V19.6605H3.14516V17.8173H0V14.7454H1.8871V4.91512H0V1.84317H3.14516V0ZM9.73493 13.6811C9.1338 14.4638 8.27297 14.8551 7.15236 14.8551H5.79431V4.81638H7.10783C8.25813 4.81638 9.1338 5.20768 9.73493 5.9903C10.336 6.77292 10.6366 7.93588 10.6366 9.47915V10.1704C10.6366 11.721 10.336 12.8912 9.73493 13.6811Z" fill="#333333"/>
<path d="M27.3336 14.8547H20.5322V1.84277H16.625V17.8169H27.3336V14.8547Z" fill="#333333"/>
<path d="M34.7818 1.84277L31.7985 8.77657L28.8041 1.84277H24.6074L29.8171 12.0789V17.8169H33.7799V12.0789L39.0006 1.84277H34.7818Z" fill="#333333"/>
</g>
<path d="M11.6464 25.4399C11.5995 25.9304 11.4164 26.3136 11.0971 26.5894C10.7777 26.8631 10.3529 27 9.82273 27C9.45225 27 9.12542 26.9137 8.84224 26.741C8.56119 26.5663 8.34401 26.3189 8.19071 25.9988C8.0374 25.6788 7.95756 25.3072 7.95117 24.884V24.4545C7.95117 24.0208 8.02889 23.6387 8.18432 23.3081C8.33975 22.9776 8.56225 22.7228 8.85182 22.5438C9.14352 22.3649 9.47993 22.2754 9.86106 22.2754C10.3742 22.2754 10.7873 22.4133 11.1002 22.6891C11.4132 22.9649 11.5953 23.3544 11.6464 23.8576H10.8416C10.8032 23.5271 10.7053 23.2892 10.5477 23.1439C10.3923 22.9965 10.1634 22.9228 9.86106 22.9228C9.50974 22.9228 9.23933 23.0502 9.04984 23.3049C8.86247 23.5576 8.76665 23.9292 8.76239 24.4198V24.8272C8.76239 25.3241 8.85182 25.703 9.03067 25.9641C9.21165 26.2252 9.47567 26.3557 9.82273 26.3557C10.14 26.3557 10.3785 26.2852 10.5381 26.1441C10.6978 26.0031 10.799 25.7683 10.8416 25.4399H11.6464Z" fill="#333333"/>
<path d="M20.3341 24.7577C20.3341 25.2083 20.2554 25.6041 20.0978 25.9452C19.9402 26.2841 19.7145 26.5452 19.4207 26.7284C19.129 26.9094 18.7926 27 18.4115 27C18.0346 27 17.6982 26.9094 17.4022 26.7284C17.1084 26.5452 16.8806 26.2852 16.7188 25.9483C16.5591 25.6114 16.4782 25.223 16.476 24.783V24.524C16.476 24.0755 16.5559 23.6797 16.7156 23.3365C16.8774 22.9933 17.1041 22.7312 17.3958 22.5501C17.6897 22.367 18.0261 22.2754 18.4051 22.2754C18.7841 22.2754 19.1194 22.3659 19.4111 22.547C19.705 22.726 19.9317 22.9849 20.0914 23.3239C20.2511 23.6608 20.332 24.0534 20.3341 24.5019V24.7577ZM19.5261 24.5177C19.5261 24.0082 19.4282 23.6176 19.2323 23.346C19.0385 23.0744 18.7628 22.9386 18.4051 22.9386C18.0559 22.9386 17.7823 23.0744 17.5843 23.346C17.3884 23.6155 17.2883 23.9976 17.2841 24.4924V24.7577C17.2841 25.263 17.3831 25.6536 17.5811 25.9294C17.7812 26.2052 18.058 26.3431 18.4115 26.3431C18.7692 26.3431 19.0438 26.2083 19.2355 25.9388C19.4292 25.6693 19.5261 25.2756 19.5261 24.7577V24.5177Z" fill="#333333"/>
<path d="M26.1986 25.2283V26.9368H25.3905V22.3386H27.1695C27.689 22.3386 28.101 22.4722 28.4055 22.7396C28.7121 23.007 28.8654 23.3607 28.8654 23.8008C28.8654 24.2513 28.7153 24.6019 28.4151 24.8524C28.117 25.103 27.6986 25.2283 27.1599 25.2283H26.1986ZM26.1986 24.5872H27.1695C27.4569 24.5872 27.6762 24.5208 27.8274 24.3882C27.9786 24.2534 28.0542 24.0597 28.0542 23.8071C28.0542 23.5587 27.9775 23.3607 27.8242 23.2134C27.6709 23.0639 27.4601 22.987 27.1918 22.9828H26.1986V24.5872Z" fill="#333333"/>
<defs>
<clipPath id="clip0_775_31103">
<rect width="39" height="19.6605" fill="white"/>
</clipPath>
</defs>
</svg>
