<svg width="188" height="188" viewBox="0 0 188 188" fill="none" xmlns="http://www.w3.org/2000/svg">
<circle opacity="0.08" cx="94.0002" cy="93.9993" r="93.3333" fill="#F9F9F9"/>
<circle cx="94" cy="94" r="56" fill="#FC764C"/>
<circle cx="47.1056" cy="48.9259" r="4.55285" fill="#FC764C"/>
<circle cx="139.073" cy="44.3743" r="2.73171" fill="#FC764C"/>
<circle cx="54.3904" cy="139.984" r="2.73171" fill="#FC764C"/>
<circle cx="140.894" cy="141.805" r="4.55285" fill="#FC764C"/>
<g filter="url(#filter0_d_775_36205)">
<path fill-rule="evenodd" clip-rule="evenodd" d="M130.444 68.2251C127.722 65.5031 123.315 65.4823 120.567 68.1786L83.1643 104.879C82.1719 105.853 80.5815 105.849 79.5933 104.871L67.7792 93.1773C65.0353 90.4612 60.6125 90.4724 57.8823 93.2023C55.1303 95.954 55.1437 100.42 57.9121 103.155L74.7806 119.821C78.4286 123.425 84.2937 123.435 87.9541 119.843L130.398 78.197C133.183 75.4641 133.204 70.9841 130.444 68.2251Z" fill="white"/>
</g>
<defs>
<filter id="filter0_d_775_36205" x="37.1604" y="56.8366" width="114.007" height="93.6947" filterUnits="userSpaceOnUse" color-interpolation-filters="sRGB">
<feFlood flood-opacity="0" result="BackgroundImageFix"/>
<feColorMatrix in="SourceAlpha" type="matrix" values="0 0 0 0 0 0 0 0 0 0 0 0 0 0 0 0 0 0 127 0" result="hardAlpha"/>
<feOffset dy="9.33333"/>
<feGaussianBlur stdDeviation="9.33333"/>
<feComposite in2="hardAlpha" operator="out"/>
<feColorMatrix type="matrix" values="0 0 0 0 0 0 0 0 0 0 0 0 0 0 0 0 0 0 0.4 0"/>
<feBlend mode="normal" in2="BackgroundImageFix" result="effect1_dropShadow_775_36205"/>
<feBlend mode="normal" in="SourceGraphic" in2="effect1_dropShadow_775_36205" result="shape"/>
</filter>
</defs>
</svg>
