<svg width="205" height="205" viewBox="0 0 205 205" fill="none" xmlns="http://www.w3.org/2000/svg">
<circle cx="102.5" cy="102.5" r="102.5" fill="#F9F9F9"/>
<circle cx="102.5" cy="102.5" r="61.5" fill="#FC764C"/>
<circle cx="51" cy="53" r="5" fill="#FC764C"/>
<circle cx="152" cy="48" r="3" fill="#FC764C"/>
<circle cx="59" cy="153" r="3" fill="#FC764C"/>
<circle cx="154" cy="155" r="5" fill="#FC764C"/>
<g filter="url(#filter0_d_621_29107)">
<path fill-rule="evenodd" clip-rule="evenodd" d="M64.5455 67.2865C64.7385 67.0935 65.0514 67.0935 65.2443 67.2865L70.433 72.4752C70.626 72.6682 70.626 72.9811 70.433 73.174C70.24 73.367 69.9272 73.367 69.7342 73.174L64.5455 67.9854C64.3525 67.7924 64.3525 67.4795 64.5455 67.2865Z" fill="#141414"/>
<path fill-rule="evenodd" clip-rule="evenodd" d="M71.1715 58.0225C71.432 57.9411 71.7091 58.0863 71.7905 58.3468L75.4967 70.2066C75.5781 70.4671 75.433 70.7443 75.1725 70.8257C74.912 70.9071 74.6348 70.7619 74.5534 70.5014L70.8472 58.6416C70.7658 58.3811 70.911 58.1039 71.1715 58.0225Z" fill="#141414"/>
<path fill-rule="evenodd" clip-rule="evenodd" d="M82.8368 60.0007C83.0965 60.0847 83.2389 60.3633 83.1549 60.623L80.437 69.0237C80.353 69.2834 80.0744 69.4258 79.8147 69.3418C79.555 69.2578 79.4127 68.9792 79.4967 68.7195L82.2145 60.3188C82.2986 60.0591 82.5772 59.9167 82.8368 60.0007Z" fill="#141414"/>
<path fill-rule="evenodd" clip-rule="evenodd" d="M110.722 72.7539C128.003 70.9269 143.27 82.1496 144.915 97.7113C145.852 106.574 142.182 114.973 135.653 120.91C135.091 121.42 134.768 122.158 134.812 122.932L135.374 132.641C135.443 133.84 134.134 134.619 133.113 133.987L124.255 128.501C123.65 128.126 122.921 128.037 122.248 128.222C120.463 128.712 118.609 129.065 116.697 129.267C99.4168 131.094 84.1498 119.872 82.5045 104.31C80.8591 88.7482 93.4417 74.581 110.722 72.7539ZM145.898 97.6074C144.186 81.4148 128.349 69.8964 110.618 71.7711C92.8875 73.6457 79.8096 88.2213 81.5216 104.414C83.2336 120.606 99.0704 132.125 116.801 130.25C118.766 130.042 120.673 129.679 122.509 129.175C122.93 129.059 123.374 129.118 123.734 129.341L132.593 134.828C134.294 135.881 136.476 134.582 136.361 132.584L135.799 122.875C135.773 122.415 135.965 121.962 136.318 121.641C143.052 115.517 146.872 106.818 145.898 97.6074Z" fill="#141414"/>
<path d="M87.8733 129.9C105.476 129.9 119.747 116.958 119.747 100.992C119.747 85.0264 105.476 72.0837 87.8733 72.0837C70.2702 72.0837 56 85.0264 56 100.992C56 110.079 60.6228 118.187 67.8518 123.487C68.3504 123.852 68.6694 124.417 68.6988 125.034L69.1614 134.749C69.2375 136.348 71.0829 137.198 72.3475 136.217L80.5801 129.829C81.0284 129.481 81.604 129.346 82.1639 129.438C84.0163 129.742 85.9244 129.9 87.8733 129.9Z" fill="white"/>
<circle cx="77.4959" cy="98.5211" r="3.7062" fill="#141414"/>
<circle cx="97.2624" cy="98.5211" r="3.7062" fill="#141414"/>
<path fill-rule="evenodd" clip-rule="evenodd" d="M87.6262 110.381C85.3064 110.381 83.4259 112.261 83.4259 114.581C83.4259 115.264 82.8728 115.817 82.1905 115.817C81.5082 115.817 80.9551 115.264 80.9551 114.581C80.9551 110.897 83.9419 107.91 87.6262 107.91C91.3106 107.91 94.2974 110.897 94.2974 114.581C94.2974 115.264 93.7443 115.817 93.062 115.817C92.3797 115.817 91.8266 115.264 91.8266 114.581C91.8266 112.261 89.946 110.381 87.6262 110.381Z" fill="#141414"/>
</g>
<defs>
<filter id="filter0_d_621_29107" x="25.5978" y="42.7988" width="150.853" height="139.439" filterUnits="userSpaceOnUse" color-interpolation-filters="sRGB">
<feFlood flood-opacity="0" result="BackgroundImageFix"/>
<feColorMatrix in="SourceAlpha" type="matrix" values="0 0 0 0 0 0 0 0 0 0 0 0 0 0 0 0 0 0 127 0" result="hardAlpha"/>
<feOffset dy="15.2011"/>
<feGaussianBlur stdDeviation="15.2011"/>
<feComposite in2="hardAlpha" operator="out"/>
<feColorMatrix type="matrix" values="0 0 0 0 0 0 0 0 0 0 0 0 0 0 0 0 0 0 0.4 0"/>
<feBlend mode="normal" in2="BackgroundImageFix" result="effect1_dropShadow_621_29107"/>
<feBlend mode="normal" in="SourceGraphic" in2="effect1_dropShadow_621_29107" result="shape"/>
</filter>
</defs>
</svg>
