<svg width="205" height="205" viewBox="0 0 205 205" fill="none" xmlns="http://www.w3.org/2000/svg">
<circle cx="102.5" cy="102.5" r="102.5" fill="#F9F9F9"/>
<circle cx="102.5" cy="102.5" r="61.5" fill="#FC764C"/>
<circle cx="51" cy="53" r="5" fill="#FC764C"/>
<circle cx="152" cy="48" r="3" fill="#FC764C"/>
<circle cx="59" cy="153" r="3" fill="#FC764C"/>
<circle cx="154" cy="155" r="5" fill="#FC764C"/>
<g filter="url(#filter0_d_699_29816)">
<path d="M142 133.154V95.7697H123.538C120.48 95.7697 118 98.2494 118 101.308C118 104.367 115.52 106.847 112.462 106.847H94C90.9412 106.847 88.4615 104.367 88.4615 101.308C88.4615 98.2494 85.9819 95.7697 82.9231 95.7697H64V133.154C64 137.233 67.3062 140.539 71.3846 140.539H134.615C138.694 140.539 142 137.233 142 133.154Z" fill="white"/>
<path d="M79.1083 67.7115L64 95.7697H82.9231C85.9819 95.7697 88.4615 98.2494 88.4615 101.308C88.4615 104.367 90.9412 106.847 94 106.847H112.462C115.52 106.847 118 104.367 118 101.308C118 98.2494 120.48 95.7697 123.538 95.7697H142L126.661 67.7115C126.017 66.5155 124.768 65.7697 123.41 65.7697H82.3592C81.0009 65.7697 79.7523 66.5155 79.1083 67.7115Z" fill="#C2C2C2"/>
<path fill-rule="evenodd" clip-rule="evenodd" d="M110.313 63.8606C110.495 63.6482 110.47 63.3285 110.258 63.1465C108.625 61.7471 106.886 60.5666 105.075 59.5873C104.829 59.4543 104.522 59.5459 104.389 59.7919C104.256 60.0379 104.347 60.3452 104.593 60.4782C106.343 61.4244 108.022 62.5645 109.599 63.9156C109.811 64.0976 110.131 64.073 110.313 63.8606ZM113.864 67.6221C113.642 67.7922 113.6 68.11 113.77 68.3321C114.374 69.1214 114.952 69.9566 115.501 70.8391C115.911 71.5 116.281 72.1856 116.611 72.8904C116.729 73.1438 117.031 73.2531 117.284 73.1347C117.537 73.0162 117.647 72.7148 117.528 72.4614C117.182 71.7216 116.793 71.0006 116.361 70.3046C115.795 69.3943 115.199 68.5321 114.574 67.7163C114.404 67.4942 114.086 67.4521 113.864 67.6221ZM99.6103 57.8086C99.6914 57.5409 99.5402 57.2582 99.2726 57.177C98.2648 56.8715 97.2474 56.6164 96.2255 56.4091L96.0242 57.4017C97.0157 57.6028 98.0022 57.8503 98.9787 58.1463C99.2464 58.2274 99.5291 58.0762 99.6103 57.8086ZM118.493 76.7072C118.22 76.7682 118.048 77.0389 118.109 77.3119C118.452 78.8445 118.634 80.4082 118.659 81.9564C118.663 82.236 118.894 82.459 119.173 82.4545C119.453 82.4499 119.676 82.2195 119.671 81.9399C119.645 80.3241 119.456 78.6919 119.098 77.0909C119.037 76.8179 118.766 76.6461 118.493 76.7072ZM118.844 86.212C118.57 86.1578 118.304 86.3362 118.249 86.6106C117.939 88.1794 117.457 89.6718 116.81 91.0322C116.69 91.2848 116.797 91.5869 117.05 91.707C117.302 91.8271 117.604 91.7197 117.724 91.4672C118.41 90.0245 118.918 88.4511 119.243 86.807C119.297 86.5326 119.119 86.2663 118.844 86.212ZM106.641 80.5989C107.358 81.1187 107.749 81.7297 107.904 82.4082C107.967 82.6808 108.239 82.851 108.511 82.7885C108.784 82.7259 108.954 82.4542 108.892 82.1816C108.676 81.2433 108.132 80.4294 107.236 79.7791C106.468 79.2226 105.668 78.9658 104.867 78.9878C104.587 78.9954 104.367 79.2283 104.374 79.5078C104.382 79.7874 104.615 80.0078 104.894 80.0002C105.446 79.9851 106.031 80.1569 106.641 80.5989ZM107.355 86.8036C107.115 86.6603 106.804 86.7389 106.661 86.9791C105.884 88.2809 104.81 89.6608 103.547 91.0542C103.359 91.2614 103.375 91.5817 103.582 91.7695C103.789 91.9574 104.109 91.9416 104.297 91.7344C105.588 90.3107 106.708 88.8762 107.531 87.4979C107.674 87.2577 107.595 86.9469 107.355 86.8036ZM101.597 81.409C101.374 81.2409 101.056 81.2859 100.888 81.5094C100.044 82.6328 99.3343 84.0484 98.8189 85.5766C98.7295 85.8416 98.8719 86.1289 99.1369 86.2183C99.4019 86.3077 99.6892 86.1653 99.7785 85.9003C100.267 84.4528 100.93 83.1385 101.698 82.118C101.866 81.8945 101.821 81.577 101.597 81.409ZM114.935 94.8243C114.734 94.63 114.413 94.6357 114.219 94.8369C113.151 95.9428 111.901 96.8257 110.475 97.4192C110.217 97.5267 110.095 97.8231 110.202 98.0813C110.31 98.3395 110.606 98.4617 110.864 98.3542C112.428 97.7034 113.791 96.7379 114.948 95.5403C115.142 95.3391 115.136 95.0185 114.935 94.8243ZM98.4643 89.5556C98.1852 89.5373 97.9441 89.7487 97.9258 90.0278C97.8216 91.6186 97.9601 93.1964 98.4216 94.5868C98.5097 94.8523 98.7963 94.996 99.0617 94.9079C99.3272 94.8198 99.4709 94.5332 99.3828 94.2678C98.9725 93.0314 98.8385 91.5902 98.9365 90.094C98.9548 89.8149 98.7433 89.5739 98.4643 89.5556ZM106.507 98.781C106.508 98.5013 106.282 98.2738 106.003 98.2728C105.266 98.2702 104.498 98.2057 103.697 98.0733C102.959 97.9514 102.327 97.722 101.788 97.4096C101.546 97.2693 101.236 97.3518 101.096 97.5938C100.956 97.8358 101.038 98.1456 101.28 98.2859C101.933 98.664 102.682 98.9321 103.532 99.0726C104.383 99.2134 105.206 99.2828 105.999 99.2856C106.279 99.2866 106.506 99.0606 106.507 98.781ZM100.58 94.7421C100.392 94.5349 100.072 94.5192 99.8645 94.7071C98.5693 95.8813 97.2179 97.0137 95.8885 98.0609C95.6688 98.234 95.6309 98.5524 95.804 98.7721C95.9771 98.9918 96.2955 99.0296 96.5152 98.8565C97.8608 97.7966 99.2304 96.6491 100.545 95.4574C100.752 95.2696 100.768 94.9493 100.58 94.7421ZM92.4027 101.274C92.2453 101.043 91.9303 100.983 91.6991 101.14C90.9183 101.672 90.1865 102.144 89.5261 102.545L90.052 103.411C90.7296 102.999 91.4761 102.517 92.269 101.977C92.5002 101.82 92.56 101.505 92.4027 101.274Z" fill="#141414"/>
<path fill-rule="evenodd" clip-rule="evenodd" d="M93.713 57.0585C93.35 57.2574 92.8447 57.3588 92.2874 57.2791C91.7301 57.1994 91.2735 56.9605 90.9809 56.6677C90.6884 56.3752 90.5849 56.0617 90.6237 55.7901C90.6625 55.5185 90.8498 55.2466 91.2125 55.0478C91.5755 54.8488 92.0808 54.7474 92.6381 54.8271C93.1954 54.9068 93.652 55.1457 93.9446 55.4385C94.2371 55.731 94.3406 56.0445 94.3018 56.3161C94.2629 56.5877 94.0757 56.8596 93.713 57.0585ZM94.9148 56.4038C94.7696 57.4194 93.554 58.0858 92.1997 57.8922C90.8455 57.6985 89.8654 56.7181 90.0107 55.7024C90.1559 54.6868 91.3715 54.0204 92.7257 54.2141C94.08 54.4077 95.0601 55.3881 94.9148 56.4038Z" fill="#141414"/>
<path fill-rule="evenodd" clip-rule="evenodd" d="M94.1329 60.198C93.8461 60.3135 93.4531 60.3474 93.0306 60.2362C92.6081 60.1249 92.2827 59.902 92.0899 59.6602C91.8972 59.4185 91.8593 59.1947 91.9038 59.0257C91.9482 58.8568 92.0914 58.6807 92.3782 58.5651C92.665 58.4496 93.058 58.4157 93.4805 58.527C93.903 58.6382 94.2284 58.8611 94.4211 59.1029C94.6139 59.3446 94.6518 59.5684 94.6073 59.7374C94.5628 59.9063 94.4197 60.0824 94.1329 60.198ZM95.2062 59.895C94.9949 60.6977 93.9503 61.1186 92.873 60.835C91.7957 60.5514 91.0936 59.6708 91.3049 58.8681C91.5162 58.0654 92.5608 57.6445 93.6381 57.9281C94.7154 58.2117 95.4174 59.0923 95.2062 59.895Z" fill="#141414"/>
<path fill-rule="evenodd" clip-rule="evenodd" d="M95.7627 53.6549C95.6518 53.9166 95.4178 54.1958 95.0679 54.3993C94.7179 54.6029 94.3595 54.6682 94.0772 54.6352C93.7951 54.6022 93.6294 54.4813 93.5514 54.3472C93.4734 54.2131 93.4503 54.0092 93.5611 53.7477C93.672 53.4861 93.906 53.2068 94.256 53.0033C94.6059 52.7998 94.9643 52.7345 95.2466 52.7675C95.5287 52.8005 95.6944 52.9214 95.7724 53.0555C95.8504 53.1896 95.8736 53.3934 95.7627 53.6549ZM96.3077 52.7442C96.7039 53.4253 96.2881 54.406 95.3792 54.9347C94.4702 55.4633 93.4122 55.3396 93.0161 54.6585C92.62 53.9773 93.0357 52.9966 93.9447 52.468C94.8536 51.9394 95.9116 52.063 96.3077 52.7442Z" fill="#141414"/>
</g>
<defs>
<filter id="filter0_d_699_29816" x="32" y="36.1401" width="142" height="152.399" filterUnits="userSpaceOnUse" color-interpolation-filters="sRGB">
<feFlood flood-opacity="0" result="BackgroundImageFix"/>
<feColorMatrix in="SourceAlpha" type="matrix" values="0 0 0 0 0 0 0 0 0 0 0 0 0 0 0 0 0 0 127 0" result="hardAlpha"/>
<feOffset dy="16"/>
<feGaussianBlur stdDeviation="16"/>
<feComposite in2="hardAlpha" operator="out"/>
<feColorMatrix type="matrix" values="0 0 0 0 0 0 0 0 0 0 0 0 0 0 0 0 0 0 0.4 0"/>
<feBlend mode="normal" in2="BackgroundImageFix" result="effect1_dropShadow_699_29816"/>
<feBlend mode="normal" in="SourceGraphic" in2="effect1_dropShadow_699_29816" result="shape"/>
</filter>
</defs>
</svg>
