<svg width="188" height="188" viewBox="0 0 188 188" fill="none" xmlns="http://www.w3.org/2000/svg">
<circle opacity="0.08" cx="94.0003" cy="94.0003" r="93.3333" fill="#F9F9F9"/>
<circle cx="94" cy="94" r="56" fill="#FC764C"/>
<circle cx="47.1056" cy="48.9269" r="4.55285" fill="#FC764C"/>
<circle cx="139.073" cy="44.3743" r="2.73171" fill="#FC764C"/>
<circle cx="54.3909" cy="139.984" r="2.73171" fill="#FC764C"/>
<circle cx="140.894" cy="141.805" r="4.55285" fill="#FC764C"/>
<g filter="url(#filter0_d_775_47640)">
<path fill-rule="evenodd" clip-rule="evenodd" d="M130.445 68.2251C127.722 65.5031 123.315 65.4823 120.567 68.1786L83.1644 104.879C82.172 105.853 80.5816 105.849 79.5934 104.871L67.7793 93.1773C65.0354 90.4612 60.6126 90.4724 57.8824 93.2023C55.1304 95.954 55.1438 100.42 57.9123 103.155L74.7807 119.821C78.4287 123.425 84.2938 123.435 87.9542 119.843L130.398 78.197C133.183 75.4641 133.204 70.9841 130.445 68.2251Z" fill="white"/>
</g>
<defs>
<filter id="filter0_d_775_47640" x="37.1605" y="56.8366" width="114.006" height="93.6937" filterUnits="userSpaceOnUse" color-interpolation-filters="sRGB">
<feFlood flood-opacity="0" result="BackgroundImageFix"/>
<feColorMatrix in="SourceAlpha" type="matrix" values="0 0 0 0 0 0 0 0 0 0 0 0 0 0 0 0 0 0 127 0" result="hardAlpha"/>
<feOffset dy="9.33333"/>
<feGaussianBlur stdDeviation="9.33333"/>
<feComposite in2="hardAlpha" operator="out"/>
<feColorMatrix type="matrix" values="0 0 0 0 0 0 0 0 0 0 0 0 0 0 0 0 0 0 0.4 0"/>
<feBlend mode="normal" in2="BackgroundImageFix" result="effect1_dropShadow_775_47640"/>
<feBlend mode="normal" in="SourceGraphic" in2="effect1_dropShadow_775_47640" result="shape"/>
</filter>
</defs>
</svg>
