<svg width="111" height="25" viewBox="0 0 111 25" fill="none" xmlns="http://www.w3.org/2000/svg">
<path fill-rule="evenodd" clip-rule="evenodd" d="M61.9536 24.1781C68.6067 24.1781 74.0001 18.7656 74.0001 12.0891C74.0001 5.41245 68.6067 0 61.9536 0C55.3005 0 49.9071 5.41245 49.9071 12.0891C49.9071 18.7656 55.3005 24.1781 61.9536 24.1781ZM60.985 3.00443H58.5897V5.15654H55.6199V8.43401H57.1467V16.647H55.6199V19.9244L58.5897 19.9245V21.9337H60.985V19.9245H62.8067C62.9469 19.9245 63.0858 19.9206 63.2232 19.9129V21.6389C63.6656 21.5915 64.7204 21.4214 65.4012 21.1204V19.421C65.4803 19.3881 65.5588 19.3535 65.6367 19.3173C66.5215 18.9125 67.2892 18.3707 67.9398 17.6917C68.6034 17.0127 69.1173 16.2292 69.4816 15.3413C69.859 14.4404 70.0476 13.5068 70.0476 12.5405C70.0476 11.5612 69.859 10.6276 69.4816 9.7397C69.1043 8.83873 68.5838 8.05529 67.9203 7.38936C67.2697 6.71037 66.502 6.16849 65.6172 5.76371C65.5457 5.73048 65.4737 5.69862 65.4012 5.66812V3.82336C64.7204 3.52244 63.6656 3.35233 63.2232 3.30489V5.16841C63.0857 5.1605 62.9468 5.15654 62.8067 5.15654H60.985V3.00443ZM61.8504 16.6732H60.9721V8.40784H61.8504C62.501 8.40784 63.0865 8.5123 63.607 8.72122C64.1274 8.93014 64.5633 9.2174 64.9146 9.58301C65.2789 9.94862 65.5587 10.386 65.7538 10.8953C65.949 11.4045 66.0466 11.9529 66.0466 12.5405C66.0466 13.1412 65.949 13.6961 65.7538 14.2053C65.5717 14.7015 65.2984 15.1324 64.9341 15.498C64.5828 15.8636 64.1469 16.1509 63.6265 16.3598C63.106 16.5687 62.514 16.6732 61.8504 16.6732Z" fill="white"/>
<path fill-rule="evenodd" clip-rule="evenodd" d="M58.5897 3.00391H60.9849V5.15602H62.8067C62.9468 5.15602 63.0856 5.15997 63.2232 5.16789V3.30437C63.6655 3.35181 64.7204 3.52192 65.4012 3.82284V5.66759C65.4736 5.69809 65.5456 5.72996 65.6172 5.76319C66.502 6.16797 67.2697 6.70985 67.9202 7.38884C68.5838 8.05477 69.1043 8.83821 69.4816 9.73917C69.8589 10.6271 70.0476 11.5607 70.0476 12.54C70.0476 13.5062 69.8589 14.4398 69.4816 15.3408C69.1173 16.2287 68.6033 17.0122 67.9398 17.6911C67.2892 18.3701 66.5215 18.912 65.6367 19.3168C65.5588 19.353 65.4803 19.3876 65.4012 19.4205V21.1199C64.7204 21.4208 63.6655 21.5909 63.2232 21.6384V19.9124C63.0857 19.9201 62.9469 19.924 62.8067 19.924H60.9849V21.9332H58.5897V19.924L55.6199 19.9239V16.6465H57.1467V8.43348H55.6199V5.15602H58.5897V3.00391ZM60.9721 16.6727H61.8504C62.514 16.6727 63.106 16.5682 63.6264 16.3593C64.1469 16.1504 64.5828 15.8631 64.9341 15.4975C65.2984 15.1319 65.5717 14.701 65.7538 14.2048C65.949 13.6956 66.0466 13.1406 66.0466 12.54C66.0466 11.9524 65.949 11.404 65.7538 10.8948C65.5587 10.3855 65.2789 9.94809 64.9146 9.58249C64.5633 9.21688 64.1274 8.92961 63.6069 8.72069C63.0865 8.51178 62.501 8.40732 61.8504 8.40732H60.9721V16.6727Z" fill="#333333"/>
<path d="M3.78247 4.81641V16.2289H8.33291V19.4542H0V4.81641H3.78247Z" fill="white"/>
<path d="M19.79 18.1572C18.5009 19.4308 16.9924 19.7811 15.4166 19.7811C13.9953 19.7811 12.4245 19.4959 11.0656 18.1572C10.5786 17.691 10.1931 17.1286 9.93347 16.5054C9.67384 15.8823 9.54569 15.2119 9.5571 14.5365C9.54608 13.8646 9.6745 13.1977 9.9342 12.5782C10.1939 11.9588 10.5792 11.4003 11.0656 10.9384C11.8735 10.1477 13.2947 9.31445 15.4166 9.31445C17.5808 9.31445 18.9821 10.1702 19.79 10.9384C20.2741 11.4014 20.6571 11.9603 20.9146 12.5798C21.1722 13.1992 21.2986 13.8655 21.286 14.5365C21.299 15.211 21.1728 15.8808 20.9154 16.5039C20.6579 17.127 20.2747 17.6899 19.79 18.1572ZM13.8632 12.9351C13.5528 13.2484 13.3417 13.6469 13.2564 14.0803C13.1712 14.5137 13.2156 14.9628 13.384 15.3709C13.5525 15.7791 13.8374 16.1281 14.2031 16.3742C14.5688 16.6202 14.9988 16.7521 15.439 16.7535C16.0228 16.7472 16.5807 16.5109 16.9924 16.0954C17.2041 15.8947 17.3733 15.6532 17.4899 15.3854C17.6064 15.1175 17.6679 14.8288 17.6706 14.5365C17.6533 13.9361 17.4112 13.3643 16.9924 12.9351C16.5735 12.5263 16.0122 12.2975 15.4278 12.2975C14.8434 12.2975 14.2821 12.5263 13.8632 12.9351Z" fill="white"/>
<path d="M30.7036 19.2337C29.9503 19.6112 29.1168 19.7993 28.275 19.7817C26.8443 19.8126 25.4597 19.2727 24.4252 18.2804C23.9466 17.7991 23.568 17.2272 23.3112 16.598C23.0544 15.9687 22.9245 15.2946 22.9292 14.6147C22.9287 13.9088 23.0677 13.2099 23.3382 12.5583C23.6087 11.9068 24.0053 11.3155 24.505 10.8188C25.5747 9.82654 26.9857 9.28848 28.4421 9.31752C29.2326 9.31672 30.0121 9.50454 30.7161 9.8655V12.8256C30.1923 12.4282 29.5573 12.2058 28.9009 12.19C28.5822 12.1763 28.2643 12.2298 27.9675 12.347C27.6707 12.4643 27.4018 12.6426 27.1779 12.8706C26.7384 13.3216 26.4945 13.9288 26.4997 14.5596C26.4996 15.1682 26.7183 15.7563 27.1156 16.2161C27.3451 16.4606 27.6233 16.6539 27.9322 16.7832C28.2411 16.9125 28.5737 16.9751 28.9083 16.9667C29.5674 16.9786 30.2073 16.744 30.7036 16.3087V19.2337Z" fill="white"/>
<path d="M40.2582 9.64254H43.749V19.4536H40.2582V18.3777C39.4504 19.4962 38.1812 19.7814 37.2188 19.7814C36.555 19.7864 35.8977 19.6495 35.2907 19.3799C34.6836 19.1102 34.1408 18.714 33.6981 18.2176C33.2364 17.7421 32.8747 17.1783 32.6344 16.5597C32.3941 15.9412 32.2802 15.2805 32.2993 14.6169C32.2993 12.7753 33.0199 11.4791 33.8078 10.6885C34.758 9.78658 36.0207 9.29121 37.3285 9.30724C37.8791 9.29751 38.4254 9.40612 38.9307 9.6258C39.436 9.84547 39.8887 10.1711 40.2582 10.5809V9.64254ZM36.5854 12.9354C36.1506 13.3556 35.8988 13.9312 35.8848 14.5368C35.8873 14.8358 35.9484 15.1313 36.0648 15.4065C36.1812 15.6817 36.3505 15.9312 36.563 16.1407C36.9958 16.5439 37.5586 16.7775 38.1488 16.7988C38.7432 16.7903 39.3099 16.5456 39.7246 16.1182C39.937 15.9145 40.1049 15.6687 40.2177 15.3965C40.3306 15.1243 40.386 14.8316 40.3804 14.5368C40.3836 14.2374 40.325 13.9405 40.2083 13.6649C40.0916 13.3893 39.9192 13.1409 39.7022 12.9354C39.2875 12.5281 38.7303 12.3001 38.15 12.3001C37.5698 12.3001 37.0126 12.5281 36.5979 12.9354H36.5854Z" fill="white"/>
<path d="M90.7238 9.64062V19.4517H87.233V9.64062H90.7238Z" fill="white"/>
<path d="M90.0714 4.64914C89.7479 4.43221 89.3675 4.31642 88.9784 4.31642C88.7198 4.31543 88.4635 4.36582 88.2244 4.46468C87.9853 4.56354 87.768 4.70892 87.5851 4.89245C87.4022 5.07597 87.2574 5.294 87.1589 5.53397C87.0603 5.77395 87.0101 6.03111 87.0111 6.29065C87.0111 6.68112 87.1265 7.06281 87.3427 7.38748C87.5588 7.71214 87.8661 7.96518 88.2256 8.1146C88.585 8.26403 88.9806 8.30312 89.3622 8.22695C89.7438 8.15077 90.0944 7.96274 90.3695 7.68664C90.6446 7.41054 90.832 7.05877 90.9079 6.6758C90.9838 6.29284 90.9448 5.89589 90.7959 5.53515C90.647 5.1744 90.3949 4.86607 90.0714 4.64914Z" fill="white"/>
<path d="M96.6106 3.45312V19.4522H93.1199V3.45312H96.6106Z" fill="white"/>
<path d="M102.515 18.1131L97.7926 9.64062H101.859L104.462 14.6675L106.998 9.64062H111L103.151 24.4711H99.2363L102.515 18.1131Z" fill="white"/>
<path fill-rule="evenodd" clip-rule="evenodd" d="M49.6608 6.253C48.8254 8.02216 48.3581 10.0005 48.3581 12.0883C48.3581 14.1761 48.8254 16.1544 49.6608 17.9235V19.4522H46.17V3.45312H49.6608V6.253Z" fill="white"/>
<path fill-rule="evenodd" clip-rule="evenodd" d="M74.3413 17.7189C75.1169 16.0027 75.5488 14.0969 75.5488 12.0897C75.5488 11.458 75.506 10.8363 75.4232 10.2273C76.2843 9.61958 77.3192 9.29406 78.384 9.3072C78.9346 9.29779 79.4808 9.40656 79.9861 9.62621C80.4913 9.84586 80.944 10.1713 81.3138 10.5808L81.3262 9.6425H84.817V19.4536H81.3262V18.3777C80.5159 19.4961 79.2492 19.7814 78.2868 19.7814C77.6229 19.7865 76.9656 19.6497 76.3586 19.38C75.7515 19.1104 75.2087 18.7141 74.7661 18.2175C74.6133 18.0606 74.4715 17.894 74.3413 17.7189ZM73.9983 11.8865C73.9983 11.8865 73.9983 11.8865 73.9983 11.8865C73.9993 11.9445 73.9998 12.0026 73.9999 12.0608C73.9998 12.0026 73.9992 11.9445 73.9983 11.8865ZM76.9528 14.5368C76.9659 13.9315 77.2168 13.3558 77.651 12.9354H77.6609C78.0761 12.5279 78.6336 12.2998 79.2143 12.2998C79.795 12.2998 80.3526 12.5279 80.7677 12.9354C80.9848 13.1409 81.1571 13.3893 81.2738 13.6649C81.3905 13.9405 81.4491 14.2373 81.4459 14.5368C81.451 14.8315 81.3955 15.1241 81.2826 15.3962C81.1698 15.6683 81.0021 15.9141 80.7901 16.1182C80.3754 16.5455 79.8087 16.7903 79.2143 16.7988C78.6249 16.7773 78.0629 16.5437 77.631 16.1407C77.4175 15.932 77.2475 15.6826 77.1311 15.4072C77.0146 15.1318 76.954 14.8359 76.9528 14.5368Z" fill="white"/>
</svg>
