<svg width="247" height="54" viewBox="0 0 247 54" fill="none" xmlns="http://www.w3.org/2000/svg">
<path fill-rule="evenodd" clip-rule="evenodd" d="M137.86 53.3505C152.665 53.3505 164.667 41.4076 164.667 26.6753C164.667 11.9429 152.665 0 137.86 0C123.056 0 111.054 11.9429 111.054 26.6753C111.054 41.4076 123.056 53.3505 137.86 53.3505ZM135.705 6.6293H130.375V11.3781H123.767V18.61H127.164V36.7324H123.767V43.9644L130.375 43.9645V48.398H135.705V43.9645H139.759C140.071 43.9645 140.38 43.956 140.686 43.9389V47.7475C141.67 47.6428 144.017 47.2674 145.532 46.6034V42.8536C145.708 42.7809 145.883 42.7046 146.056 42.6247C148.025 41.7316 149.733 40.5359 151.181 39.0376C152.658 37.5394 153.801 35.8107 154.612 33.8515C155.452 31.8634 155.872 29.8034 155.872 27.6713C155.872 25.5104 155.452 23.4503 154.612 21.4911C153.772 19.5031 152.614 17.7743 151.138 16.3049C149.69 14.8067 147.982 13.611 146.013 12.7178C145.854 12.6445 145.693 12.5742 145.532 12.5069V8.43633C144.017 7.77233 141.67 7.39697 140.686 7.29229V11.4043C140.38 11.3868 140.071 11.3781 139.759 11.3781H135.705V6.6293ZM137.631 36.7903H135.677V18.5523H137.631C139.079 18.5523 140.381 18.7828 141.54 19.2438C142.698 19.7048 143.668 20.3386 144.449 21.1454C145.26 21.9521 145.883 22.9173 146.317 24.041C146.751 25.1646 146.968 26.3747 146.968 27.6713C146.968 28.9966 146.751 30.2211 146.317 31.3448C145.912 32.4397 145.304 33.3905 144.493 34.1972C143.711 35.0039 142.741 35.6378 141.583 36.0988C140.425 36.5598 139.107 36.7903 137.631 36.7903Z" fill="#FC764C"/>
<path fill-rule="evenodd" clip-rule="evenodd" d="M130.375 6.62939H135.705V11.3782H139.759C140.071 11.3782 140.38 11.3869 140.686 11.4044V7.29238C141.67 7.39706 144.017 7.77242 145.532 8.43642V12.507C145.693 12.5743 145.854 12.6446 146.013 12.7179C147.982 13.6111 149.69 14.8068 151.138 16.305C152.614 17.7744 153.772 19.5032 154.612 21.4912C155.452 23.4504 155.872 25.5105 155.872 27.6714C155.872 29.8035 155.452 31.8635 154.612 33.8516C153.801 35.8108 152.658 37.5395 151.181 39.0377C149.733 40.5359 148.025 41.7317 146.056 42.6248C145.883 42.7047 145.708 42.781 145.532 42.8537V46.6035C144.017 47.2675 141.67 47.6429 140.686 47.7476V43.939C140.38 43.9561 140.071 43.9646 139.759 43.9646H135.705V48.398H130.375V43.9646L123.767 43.9645V36.7325H127.164V18.6101H123.767V11.3782H130.375V6.62939ZM135.677 36.7904H137.631C139.108 36.7904 140.425 36.5599 141.583 36.0989C142.741 35.6379 143.711 35.004 144.493 34.1973C145.304 33.3906 145.912 32.4398 146.317 31.3449C146.751 30.2212 146.968 28.9967 146.968 27.6714C146.968 26.3748 146.751 25.1647 146.317 24.0411C145.883 22.9174 145.26 21.9522 144.449 21.1454C143.668 20.3387 142.698 19.7048 141.54 19.2439C140.381 18.7829 139.079 18.5524 137.631 18.5524H135.677V36.7904Z" fill="white"/>
<path d="M8.41685 10.625V35.8074H18.5426V42.9243H0V10.625H8.41685Z" fill="white"/>
<path d="M44.0371 40.0644C41.1686 42.8747 37.8119 43.6476 34.3053 43.6476C31.1428 43.6476 27.6473 43.0182 24.6234 40.0644C23.5397 39.0356 22.682 37.7946 22.1042 36.4196C21.5265 35.0445 21.2413 33.5653 21.2667 32.0751C21.2422 30.5924 21.5279 29.1208 22.1058 27.754C22.6837 26.3871 23.5411 25.1548 24.6234 24.1355C26.4211 22.3908 29.5837 20.5522 34.3053 20.5522C39.1213 20.5522 42.2395 22.4405 44.0371 24.1355C45.1145 25.1573 45.9667 26.3906 46.5397 27.7573C47.1128 29.1241 47.3942 30.5944 47.3662 32.0751C47.3951 33.5633 47.1143 35.0413 46.5414 36.4162C45.9685 37.7911 45.1158 39.0332 44.0371 40.0644ZM30.8487 28.5415C30.158 29.2328 29.6883 30.112 29.4986 31.0684C29.3088 32.0247 29.4076 33.0156 29.7824 33.9162C30.1573 34.8169 30.7914 35.5871 31.6051 36.1299C32.4188 36.6728 33.3756 36.964 34.3553 36.9669C35.6543 36.9531 36.8959 36.4316 37.8119 35.5148C38.2831 35.072 38.6596 34.5392 38.9189 33.9481C39.1782 33.3571 39.315 32.72 39.321 32.0751C39.2827 30.7502 38.7438 29.4885 37.8119 28.5415C36.8797 27.6393 35.6307 27.1345 34.3303 27.1345C33.0299 27.1345 31.7809 27.6393 30.8487 28.5415Z" fill="white"/>
<path d="M68.3225 42.4386C66.6463 43.2716 64.7916 43.6866 62.9184 43.6478C59.7347 43.716 56.6538 42.5246 54.3517 40.335C53.2867 39.2729 52.4441 38.0111 51.8727 36.6227C51.3012 35.2342 51.0123 33.7467 51.0227 32.2464C51.0216 30.6889 51.331 29.1467 51.9329 27.709C52.5348 26.2713 53.4173 24.9666 54.5293 23.8706C56.9095 21.6811 60.0493 20.4938 63.2901 20.5579C65.0493 20.5561 66.7837 20.9706 68.3502 21.767V28.2987C67.1847 27.4217 65.7718 26.9311 64.311 26.8963C63.602 26.866 62.8945 26.9841 62.2341 27.2427C61.5737 27.5014 60.9752 27.895 60.4771 28.3981C59.499 29.3931 58.9564 30.733 58.968 32.1249C58.9677 33.4677 59.4543 34.7656 60.3384 35.78C60.849 36.3196 61.4682 36.746 62.1556 37.0314C62.843 37.3168 63.5831 37.4548 64.3277 37.4364C65.7942 37.4625 67.2182 36.9449 68.3225 35.9843V42.4386Z" fill="white"/>
<path d="M89.5836 21.2756H97.3513V42.9244H89.5836V40.5503C87.7859 43.0183 84.9618 43.6477 82.8202 43.6477C81.343 43.6587 79.8805 43.3566 78.5297 42.7616C77.1789 42.1666 75.9709 41.2924 74.9859 40.1969C73.9586 39.1477 73.1537 37.9037 72.619 36.5389C72.0843 35.174 71.8307 33.7161 71.8732 32.2518C71.8732 28.1882 73.4767 25.3282 75.23 23.5835C77.3444 21.5934 80.1542 20.5004 83.0643 20.5358C84.2895 20.5143 85.5052 20.7539 86.6296 21.2387C87.7541 21.7234 88.7613 22.4419 89.5836 23.3461V21.2756ZM81.4109 28.5416C80.4433 29.4688 79.8829 30.7388 79.8518 32.0752C79.8573 32.7348 79.9934 33.387 80.2523 33.9942C80.5113 34.6015 80.888 35.152 81.3609 35.6143C82.324 36.504 83.5765 37.0193 84.8897 37.0664C86.2123 37.0477 87.4734 36.5076 88.3962 35.5646C88.8687 35.115 89.2423 34.5727 89.4935 33.9721C89.7447 33.3715 89.8679 32.7256 89.8555 32.0752C89.8626 31.4144 89.7322 30.7593 89.4725 30.1512C89.2128 29.5431 88.8293 28.995 88.3463 28.5416C87.4235 27.6429 86.1837 27.1396 84.8925 27.1396C83.6013 27.1396 82.3614 27.6429 81.4386 28.5416H81.4109Z" fill="white"/>
<path d="M201.881 21.2756V42.9245H194.113V21.2756H201.881Z" fill="white"/>
<path d="M200.429 10.2611C199.709 9.78238 198.863 9.52689 197.997 9.52689C197.421 9.5247 196.851 9.63588 196.319 9.85403C195.787 10.0722 195.303 10.393 194.896 10.7979C194.49 11.2029 194.167 11.684 193.948 12.2135C193.729 12.743 193.617 13.3105 193.619 13.8832C193.619 14.7447 193.876 15.587 194.357 16.3034C194.838 17.0197 195.522 17.5781 196.322 17.9078C197.121 18.2375 198.002 18.3238 198.851 18.1557C199.7 17.9876 200.48 17.5727 201.092 16.9635C201.705 16.3543 202.121 15.5781 202.29 14.733C202.459 13.888 202.373 13.0121 202.041 12.2161C201.71 11.4201 201.149 10.7397 200.429 10.2611Z" fill="white"/>
<path d="M214.981 7.62158V42.9245H207.213V7.62158H214.981Z" fill="white"/>
<path d="M228.119 39.9706L217.61 21.2756H226.66L232.452 32.3678L238.095 21.2756H247L229.534 54.0001H220.823L228.119 39.9706Z" fill="white"/>
<path fill-rule="evenodd" clip-rule="evenodd" d="M110.506 13.7995C108.648 17.7032 107.608 22.0684 107.608 26.6753C107.608 31.2822 108.648 35.6474 110.506 39.5512V42.9245H102.739V7.62158H110.506V13.7995Z" fill="white"/>
<path fill-rule="evenodd" clip-rule="evenodd" d="M165.426 39.0967C167.152 35.3098 168.113 31.1042 168.113 26.6752C168.113 25.2813 168.018 23.9094 167.834 22.5658C169.75 21.2249 172.053 20.5067 174.422 20.5357C175.647 20.5149 176.863 20.7549 177.987 21.2396C179.111 21.7243 180.119 22.4424 180.941 23.346L180.969 21.2755H188.737V42.9243H180.969V40.5502C179.166 43.0182 176.347 43.6476 174.206 43.6476C172.729 43.6589 171.266 43.357 169.915 42.762C168.564 42.167 167.356 41.2926 166.371 40.1968C166.032 39.8506 165.716 39.483 165.426 39.0967ZM171.237 32.0751C171.266 30.7394 171.825 29.4692 172.791 28.5415H172.813C173.737 27.6424 174.978 27.139 176.27 27.139C177.562 27.139 178.803 27.6424 179.726 28.5415C180.209 28.9949 180.593 29.543 180.853 30.1511C181.112 30.7593 181.243 31.4143 181.236 32.0751C181.247 32.7254 181.123 33.371 180.872 33.9715C180.621 34.5719 180.248 35.1143 179.776 35.5645C178.853 36.5075 177.592 37.0476 176.27 37.0663C174.958 37.0189 173.708 36.5035 172.747 35.6142C172.271 35.1536 171.893 34.6034 171.634 33.9958C171.375 33.3881 171.24 32.7352 171.237 32.0751Z" fill="white"/>
</svg>
