<svg width="205" height="205" viewBox="0 0 205 205" fill="none" xmlns="http://www.w3.org/2000/svg">
<circle opacity="0.05" cx="102.5" cy="102.5" r="102.5" fill="#EBEBEB"/>
<circle cx="103" cy="103" r="66" fill="#FC764C"/>
<g filter="url(#filter0_d_736_29237)">
<path d="M60.643 86.8323L93.5618 115.584C94.8877 116.742 96.5914 117.38 98.3552 117.38H108.838C110.624 117.38 112.347 116.726 113.679 115.542L146.013 86.7967C149.331 83.8472 149.234 78.6492 145.809 75.8241L108.218 44.8197C105.543 42.6138 101.675 42.5998 98.9843 44.7863L60.8403 75.7842C57.358 78.6141 57.264 83.881 60.643 86.8323Z" fill="#C2C2C2"/>
<g filter="url(#filter1_d_736_29237)">
<path d="M72.21 106.335L95.6141 127.224H110.994L134.398 106.324V63.2169L122.362 53.1865H76.0581C73.9328 53.1865 72.21 54.9094 72.21 57.0347V106.335Z" fill="#FAFBFC"/>
<path d="M110.95 127.109H95.6581L72.3254 106.284V57.0347C72.3254 54.9731 73.9966 53.302 76.0581 53.302H122.32L134.283 63.2709V106.272L110.95 127.109Z" stroke="white" stroke-width="0.230887"/>
</g>
<rect x="80.2339" y="97.8379" width="46.8083" height="2.67476" rx="1.33738" fill="#141414"/>
<rect x="80.2339" y="104.633" width="26.7476" height="2.67476" rx="1.33738" fill="#141414"/>
<mask id="mask0_736_29237" style="mask-type:alpha" maskUnits="userSpaceOnUse" x="58" y="43" width="91" height="106">
<path d="M58.1675 142.122C58.1675 145.815 61.1616 148.809 64.8544 148.809H141.754C145.447 148.809 148.441 145.815 148.441 142.122V81.2711C148.441 80.1867 148.183 79.1628 147.724 78.257C147.286 77.3491 146.647 76.5155 145.809 75.8241L108.217 44.8197C105.543 42.6138 101.675 42.5998 98.9844 44.7863L60.8403 75.7842C59.9359 76.519 59.26 77.4182 58.814 78.3985C58.3993 79.2688 58.1675 80.2428 58.1675 81.2711V142.122Z" fill="#333333"/>
</mask>
<g mask="url(#mask0_736_29237)">
<rect x="58.1675" y="123.4" width="90.2732" height="25.4092" fill="#E0E0E0"/>
<path d="M94.5128 115.709L65.5169 142.116C62.9176 144.483 64.5923 148.809 68.1079 148.809H138.5C142.016 148.809 143.691 144.483 141.091 142.116L112.095 115.709C111.387 115.064 110.463 114.706 109.504 114.706H97.1038C96.1453 114.706 95.2214 115.064 94.5128 115.709Z" fill="#E0E0E0"/>
<path fill-rule="evenodd" clip-rule="evenodd" d="M148.44 81.2692L143.422 85.7503C144.864 84.2003 145.746 82.1222 145.746 79.8381C145.746 77.3442 144.694 75.0958 143.01 73.5122L145.81 75.8212C147.525 77.2357 148.405 79.245 148.44 81.2692ZM148.441 148.809V81.2716L114.177 111.864C112.475 113.384 112.462 116.043 114.149 117.579L148.441 148.809Z" fill="#EBEBEB"/>
<path fill-rule="evenodd" clip-rule="evenodd" d="M58.168 81.2692L63.1869 85.7503C61.7449 84.2003 60.8629 82.1222 60.8629 79.8381C60.8629 77.3442 61.9145 75.0958 63.5983 73.5122L60.7988 75.8212C59.0839 77.2357 58.2033 79.245 58.168 81.2692ZM58.1677 148.809V81.2717L92.4311 111.864C94.1334 113.384 94.1465 116.043 92.4592 117.58L58.1677 148.809Z" fill="#EBEBEB"/>
</g>
<path d="M122.362 59.3688V53.1865L134.398 63.2169H126.21C124.085 63.2169 122.362 61.494 122.362 59.3688Z" fill="#E0E0E0"/>
</g>
<path d="M144.081 155.229L142.907 168.189L168.007 151.338L144.081 155.229Z" fill="#E6633A"/>
<path d="M149.77 164.489L142.907 168.19L146.118 160.772L149.455 161.876L149.77 164.489Z" fill="#C55633"/>
<path d="M168.008 151.338L143.798 158.358L140.694 155.129C140.106 154.517 140.494 153.496 141.341 153.43L168.008 151.338Z" fill="#FF9A7A"/>
<path d="M167.959 151.405L168.008 151.338L146.117 160.772L152.981 167.757C153.848 168.639 155.298 168.537 156.033 167.543L167.958 151.406L167.959 151.405Z" fill="#FC764C"/>
<path d="M87.067 94.2179C90.5199 85.9593 89.2257 65.1002 72.6277 62.4111C47.8295 58.3935 41.5514 84.8434 54.7353 97.2312C66.8947 108.656 85.1838 116.985 93.3452 127.364C101.507 137.743 100.879 166.536 123.166 167.876C135.953 168.644 141.058 165.644 142 164.528" stroke="#141414" stroke-linecap="round" stroke-dasharray="7.7 7.7"/>
<path fill-rule="evenodd" clip-rule="evenodd" d="M103.332 86.021C110.18 86.021 115.732 80.4498 115.732 73.5774C115.732 66.705 110.18 61.1338 103.332 61.1338C96.4837 61.1338 90.9321 66.705 90.9321 73.5774C90.9321 80.4498 96.4837 86.021 103.332 86.021ZM102.335 64.2263H99.8696V66.4415H96.8127V69.8151H98.3844V78.2689H96.8127V81.6425L99.8696 81.6425V83.7107H102.335V81.6425H104.21C104.355 81.6425 104.498 81.6386 104.639 81.6306V83.4072C105.094 83.3584 106.18 83.1833 106.881 82.8736V81.1243C106.962 81.0904 107.043 81.0548 107.123 81.0176C108.034 80.6009 108.824 80.0431 109.494 79.3442C110.177 78.6453 110.706 77.8389 111.081 76.925C111.469 75.9976 111.664 75.0366 111.664 74.042C111.664 73.034 111.469 72.073 111.081 71.159C110.693 70.2317 110.157 69.4252 109.474 68.7398C108.804 68.0409 108.014 67.4831 107.103 67.0665C107.03 67.0323 106.955 66.9995 106.881 66.9681V65.0692C106.18 64.7595 105.094 64.5844 104.639 64.5355V66.4537C104.497 66.4456 104.355 66.4415 104.21 66.4415H102.335V64.2263ZM103.226 78.2959H102.322V69.7881H103.226C103.896 69.7881 104.498 69.8956 105.034 70.1107C105.57 70.3257 106.018 70.6214 106.38 70.9978C106.755 71.3741 107.043 71.8243 107.244 72.3485C107.445 72.8727 107.545 73.4372 107.545 74.042C107.545 74.6603 107.445 75.2315 107.244 75.7556C107.056 76.2664 106.775 76.7099 106.4 77.0862C106.039 77.4626 105.59 77.7583 105.054 77.9733C104.518 78.1884 103.909 78.2959 103.226 78.2959Z" fill="#FC764C"/>
<path fill-rule="evenodd" clip-rule="evenodd" d="M99.8694 64.2261H102.335V66.4413H104.21C104.354 66.4413 104.497 66.4454 104.639 66.4535V64.5353C105.094 64.5842 106.18 64.7593 106.881 65.069V66.9679C106.955 66.9993 107.029 67.0321 107.103 67.0663C108.014 67.4829 108.804 68.0407 109.474 68.7396C110.157 69.4251 110.692 70.2315 111.081 71.1589C111.469 72.0728 111.663 73.0338 111.663 74.0418C111.663 75.0364 111.469 75.9974 111.081 76.9248C110.706 77.8387 110.177 78.6451 109.494 79.344C108.824 80.0429 108.034 80.6007 107.123 81.0174C107.043 81.0546 106.962 81.0902 106.881 81.1241V82.8734C106.18 83.1831 105.094 83.3582 104.639 83.407V81.6304C104.497 81.6384 104.354 81.6424 104.21 81.6424H102.335V83.7105H99.8694V81.6424L96.8125 81.6423V78.2687H98.3841V69.8149H96.8125V66.4413H99.8694V64.2261ZM102.322 78.2957H103.226C103.909 78.2957 104.518 78.1882 105.054 77.9731C105.59 77.7581 106.038 77.4624 106.4 77.0861C106.775 76.7097 107.056 76.2662 107.244 75.7555C107.445 75.2313 107.545 74.6601 107.545 74.0418C107.545 73.437 107.445 72.8725 107.244 72.3483C107.043 71.8242 106.755 71.3739 106.38 70.9976C106.018 70.6213 105.57 70.3256 105.034 70.1105C104.498 69.8955 103.895 69.788 103.226 69.788H102.322V78.2957Z" fill="white"/>
<circle cx="65.5" cy="30.5" r="6.5" fill="#FC764C"/>
<circle cx="44.5" cy="150.5" r="2.5" fill="#FC764C"/>
<circle cx="176" cy="72" r="3" fill="#FC764C"/>
<defs>
<filter id="filter0_d_736_29237" x="26.1675" y="27.1558" width="154.273" height="169.653" filterUnits="userSpaceOnUse" color-interpolation-filters="sRGB">
<feFlood flood-opacity="0" result="BackgroundImageFix"/>
<feColorMatrix in="SourceAlpha" type="matrix" values="0 0 0 0 0 0 0 0 0 0 0 0 0 0 0 0 0 0 127 0" result="hardAlpha"/>
<feOffset dy="16"/>
<feGaussianBlur stdDeviation="16"/>
<feComposite in2="hardAlpha" operator="out"/>
<feColorMatrix type="matrix" values="0 0 0 0 0 0 0 0 0 0 0 0 0 0 0 0 0 0 0.4 0"/>
<feBlend mode="normal" in2="BackgroundImageFix" result="effect1_dropShadow_736_29237"/>
<feBlend mode="normal" in="SourceGraphic" in2="effect1_dropShadow_736_29237" result="shape"/>
</filter>
<filter id="filter1_d_736_29237" x="68.4991" y="53.1865" width="69.6096" height="81.4592" filterUnits="userSpaceOnUse" color-interpolation-filters="sRGB">
<feFlood flood-opacity="0" result="BackgroundImageFix"/>
<feColorMatrix in="SourceAlpha" type="matrix" values="0 0 0 0 0 0 0 0 0 0 0 0 0 0 0 0 0 0 127 0" result="hardAlpha"/>
<feOffset dy="3.71081"/>
<feGaussianBlur stdDeviation="1.85541"/>
<feComposite in2="hardAlpha" operator="out"/>
<feColorMatrix type="matrix" values="0 0 0 0 0 0 0 0 0 0 0 0 0 0 0 0 0 0 0.25 0"/>
<feBlend mode="normal" in2="BackgroundImageFix" result="effect1_dropShadow_736_29237"/>
<feBlend mode="normal" in="SourceGraphic" in2="effect1_dropShadow_736_29237" result="shape"/>
</filter>
</defs>
</svg>
