<svg width="198" height="185" viewBox="0 0 198 185" fill="none" xmlns="http://www.w3.org/2000/svg">
<circle opacity="0.24" cx="100.734" cy="85" r="66" fill="#707070"/>
<path d="M55.0152 62.5446L90.4993 93.5367C91.9286 94.785 93.765 95.4734 95.6663 95.4734H106.966C108.891 95.4734 110.748 94.7678 112.184 93.4913L147.038 62.5063C150.614 59.3269 150.51 53.7238 146.818 50.6786L106.297 17.2579C103.414 14.8801 99.2447 14.865 96.3444 17.2219L55.2278 50.6355C51.4741 53.686 51.3727 59.3633 55.0152 62.5446Z" fill="#707070"/>
<path d="M109.242 105.96H92.7589L67.6078 83.5119V30.4249C67.6078 28.2027 69.4093 26.4013 71.6314 26.4013H121.498L134.394 37.1472V83.4994L109.242 105.96Z" fill="#FAFBFC" stroke="#EDEDED" stroke-width="0.248881"/>
<rect x="76.1331" y="72.4082" width="50.4561" height="2.88321" rx="1.4416" fill="#C2C2C2"/>
<rect x="76.1331" y="76.7324" width="28.8321" height="2.88321" rx="1.4416" fill="#C2C2C2"/>
<rect x="76.1331" y="81.0576" width="28.8321" height="2.88321" rx="1.4416" fill="#C2C2C2"/>
<mask id="mask0_94_15335" style="mask-type:alpha" maskUnits="userSpaceOnUse" x="52" y="15" width="98" height="115">
<path d="M52.3467 122.143C52.3467 126.124 55.5741 129.351 59.5547 129.351H142.447C146.428 129.351 149.655 126.124 149.655 122.143V56.5501C149.655 55.3811 149.377 54.2774 148.883 53.3011C148.41 52.3224 147.722 51.4239 146.818 50.6786L106.297 17.2579C103.415 14.8801 99.2446 14.865 96.3445 17.2219L55.2278 50.6355C54.2529 51.4277 53.5243 52.3969 53.0435 53.4536C52.5966 54.3918 52.3467 55.4417 52.3467 56.5501V122.143Z" fill="#402424"/>
</mask>
<g mask="url(#mask0_94_15335)">
<rect x="52.3467" y="101.962" width="97.3083" height="27.3894" fill="#E0E0E0"/>
<path d="M91.5244 93.672L60.2688 122.137C57.467 124.689 59.2722 129.352 63.0618 129.352H138.94C142.729 129.352 144.535 124.689 141.733 122.137L110.477 93.672C109.713 92.9764 108.717 92.5908 107.684 92.5908H94.3174C93.2842 92.5908 92.2882 92.9764 91.5244 93.672Z" fill="#C2C2C2"/>
<path fill-rule="evenodd" clip-rule="evenodd" d="M149.654 56.548L144.244 61.3784C145.799 59.7075 146.749 57.4675 146.749 55.0054C146.749 52.3171 145.616 49.8935 143.801 48.1865L146.819 50.6755C148.667 52.2002 149.616 54.3661 149.654 56.548ZM149.655 129.352V56.5507L112.721 89.5271C110.886 91.1655 110.872 94.0317 112.691 95.6881L149.655 129.352Z" fill="#E0E0E0"/>
<path fill-rule="evenodd" clip-rule="evenodd" d="M52.3468 56.548L57.7569 61.3784C56.2025 59.7075 55.2518 57.4675 55.2518 55.0054C55.2518 52.3171 56.3853 49.8935 58.2004 48.1865L55.1827 50.6755C53.3341 52.2002 52.3849 54.3661 52.3468 56.548ZM52.3465 129.352V56.5507L89.2802 89.5271C91.1151 91.1655 91.1292 94.0317 89.3105 95.6881L52.3465 129.352Z" fill="#E0E0E0"/>
</g>
<path d="M121.543 32.9409V26.2769L134.518 37.0889H125.691C123.401 37.0889 121.543 35.2318 121.543 32.9409Z" fill="#C2C2C2"/>
<path d="M144.956 136.273L143.69 150.243L170.747 132.078L144.956 136.273Z" fill="#E46D47"/>
<path d="M151.088 146.253L143.691 150.242L147.151 142.246L150.748 143.436L151.088 146.253Z" fill="#B35436"/>
<path d="M170.747 132.078L144.65 139.644L141.305 136.164C140.671 135.504 141.089 134.404 142.002 134.332L170.747 132.078Z" fill="#FF9877"/>
<path d="M170.695 132.149L170.747 132.078L147.151 142.247L154.55 149.776C155.484 150.727 157.047 150.617 157.839 149.545L170.693 132.15L170.695 132.149Z" fill="#FC764C"/>
<path d="M79.1124 70.9658C83.0768 62.0759 81.5909 39.6224 62.5342 36.7277C34.0626 32.4029 26.8545 60.8747 41.9914 74.2095C55.952 86.5081 76.9503 95.4731 86.3207 106.646C95.6911 117.818 94.9703 148.812 120.559 150.254C135.24 151.081 141.102 147.851 142.183 146.65" stroke="#707070" stroke-width="0.829602" stroke-linecap="round" stroke-dasharray="8.3 8.3"/>
<path fill-rule="evenodd" clip-rule="evenodd" d="M101.031 61.6699C108.413 61.6699 114.397 55.6646 114.397 48.2566C114.397 40.8486 108.413 34.8433 101.031 34.8433C93.6493 34.8433 87.665 40.8486 87.665 48.2566C87.665 55.6646 93.6493 61.6699 101.031 61.6699ZM99.9567 38.1766H97.299V40.5645H94.0039V44.201H95.698V53.3136H94.0039V56.9501L97.299 56.9502V59.1795H99.9567V56.9502H101.978C102.134 56.9502 102.288 56.9459 102.44 56.9373V58.8524C102.931 58.7998 104.101 58.611 104.857 58.2771V56.3916C104.944 56.355 105.032 56.3166 105.118 56.2765C106.1 55.8274 106.952 55.2261 107.673 54.4728C108.41 53.7194 108.98 52.8501 109.384 51.865C109.803 50.8653 110.012 49.8294 110.012 48.7573C110.012 47.6707 109.803 46.6349 109.384 45.6497C108.965 44.65 108.388 43.7808 107.652 43.0419C106.93 42.2885 106.078 41.6873 105.096 41.2382C105.017 41.2013 104.937 41.1659 104.857 41.1321V39.0853C104.101 38.7514 102.931 38.5626 102.44 38.51V40.5777C102.288 40.5689 102.133 40.5645 101.978 40.5645H99.9567V38.1766ZM100.917 53.3427H99.9424V44.1719H100.917C101.639 44.1719 102.288 44.2878 102.866 44.5197C103.443 44.7515 103.927 45.0702 104.317 45.4758C104.721 45.8815 105.031 46.3668 105.248 46.9319C105.465 47.4969 105.573 48.1054 105.573 48.7573C105.573 49.4238 105.465 50.0395 105.248 50.6045C105.046 51.1551 104.743 51.6332 104.338 52.0388C103.949 52.4445 103.465 52.7632 102.888 52.995C102.31 53.2268 101.653 53.3427 100.917 53.3427Z" fill="#FC764C"/>
<path fill-rule="evenodd" clip-rule="evenodd" d="M97.299 38.1768H99.9567V40.5646H101.978C102.133 40.5646 102.287 40.569 102.44 40.5778V38.5101C102.931 38.5628 104.101 38.7515 104.857 39.0854V41.1322C104.937 41.1661 105.017 41.2014 105.096 41.2383C106.078 41.6874 106.93 42.2887 107.652 43.042C108.388 43.7809 108.965 44.6502 109.384 45.6498C109.803 46.635 110.012 47.6709 110.012 48.7575C110.012 49.8296 109.803 50.8654 109.384 51.8651C108.98 52.8503 108.41 53.7195 107.673 54.4729C106.952 55.2263 106.1 55.8275 105.118 56.2766C105.032 56.3168 104.944 56.3551 104.857 56.3917V58.2773C104.101 58.6111 102.931 58.7999 102.44 58.8525V56.9374C102.288 56.946 102.134 56.9503 101.978 56.9503H99.9567V59.1796H97.299V56.9503L94.0039 56.9502V53.3138H95.698V44.2011H94.0039V40.5646H97.299V38.1768ZM99.9424 53.3428H100.917C101.653 53.3428 102.31 53.2269 102.888 52.9951C103.465 52.7633 103.949 52.4446 104.338 52.0389C104.743 51.6333 105.046 51.1552 105.248 50.6047C105.465 50.0396 105.573 49.4239 105.573 48.7575C105.573 48.1055 105.465 47.497 105.248 46.932C105.031 46.367 104.721 45.8816 104.317 45.476C103.927 45.0703 103.443 44.7516 102.866 44.5198C102.288 44.288 101.639 44.1721 100.917 44.1721H99.9424V53.3428Z" fill="#333333"/>
</svg>
