<svg width="205" height="205" viewBox="0 0 205 205" fill="none" xmlns="http://www.w3.org/2000/svg">
<circle cx="102.5" cy="102.5" r="102.5" fill="#F9F9F9"/>
<circle cx="102.5" cy="102.5" r="61.5" fill="#FC764C"/>
<circle cx="51" cy="53" r="5" fill="#FC764C"/>
<circle cx="152" cy="48" r="3" fill="#FC764C"/>
<circle cx="59" cy="153" r="3" fill="#FC764C"/>
<circle cx="154" cy="155" r="5" fill="#FC764C"/>
<g filter="url(#filter0_d_2203_1505)">
<path d="M59.5121 100.29C61.214 102.728 64.5702 103.325 67.0084 101.623L126.431 80.001L115.207 61.4158C113.505 58.9776 110.148 58.3806 107.71 60.0825L60.8455 92.7935C58.4072 94.4954 57.8103 97.8516 59.5121 100.29Z" fill="#C2C2C2"/>
<path d="M58.2947 98.1094C59.5648 100.798 62.774 101.948 65.4624 100.677L123.877 73.0793C126.566 71.8092 129.775 72.9589 131.045 75.6474L151.567 119.084C152.837 121.773 151.687 124.982 148.999 126.252L90.5838 153.85C87.8953 155.12 84.6862 153.971 83.416 151.282L58.2947 98.1094Z" fill="white"/>
<path d="M122.927 104.211C124.684 107.929 129.074 109.541 132.733 107.812L143.776 102.595L137.416 89.1329L126.373 94.3501C122.714 96.079 121.171 100.494 122.927 104.211Z" fill="#E0E0E0"/>
<circle cx="129.542" cy="101.551" r="3.31314" transform="rotate(-25.2883 129.542 101.551)" fill="#141414"/>
</g>
<path fill-rule="evenodd" clip-rule="evenodd" d="M132.026 106.087C134.804 104.774 135.988 101.45 134.671 98.6621C133.354 95.8741 130.034 94.678 127.256 95.9906C124.477 97.3031 123.293 100.627 124.61 103.415C125.927 106.203 129.247 107.4 132.026 106.087ZM127.444 97.4363L126.444 97.9089L126.868 98.8076L125.628 99.3935L126.275 100.762L126.912 100.461L128.533 103.891L127.895 104.192L128.542 105.56L129.782 104.974L130.178 105.813L131.178 105.341L130.782 104.502L131.543 104.143C131.601 104.115 131.659 104.086 131.714 104.056L132.055 104.776C132.23 104.669 132.637 104.39 132.862 104.13L132.527 103.42C132.553 103.391 132.579 103.361 132.605 103.331C132.894 102.987 133.108 102.609 133.246 102.197C133.389 101.783 133.449 101.354 133.426 100.912C133.406 100.461 133.3 100.034 133.11 99.6305C132.916 99.2216 132.653 98.8689 132.321 98.5726C131.985 98.2708 131.614 98.0463 131.205 97.8992C130.799 97.744 130.372 97.6692 129.923 97.6747C129.886 97.6749 129.85 97.6758 129.814 97.6774L129.45 96.907C129.106 96.9157 128.632 97.0528 128.438 97.1202L128.805 97.8984C128.746 97.9222 128.688 97.948 128.629 97.9756L127.868 98.335L127.444 97.4363ZM130.502 102.973L130.135 103.147L128.505 99.6953L128.871 99.522C129.143 99.3936 129.408 99.3217 129.667 99.3063C129.925 99.2909 130.164 99.3248 130.383 99.4082C130.607 99.489 130.81 99.6165 130.992 99.7906C131.174 99.9648 131.323 100.175 131.439 100.42C131.557 100.671 131.626 100.922 131.645 101.173C131.667 101.416 131.638 101.65 131.558 101.874C131.483 102.096 131.358 102.302 131.182 102.492C131.006 102.682 130.779 102.843 130.502 102.973Z" fill="#FC764C"/>
<path fill-rule="evenodd" clip-rule="evenodd" d="M126.444 97.9082L127.444 97.4357L127.869 98.3344L128.629 97.975C128.688 97.9473 128.747 97.9216 128.806 97.8977L128.438 97.1196C128.632 97.0521 129.106 96.915 129.45 96.9064L129.814 97.6767C129.85 97.6752 129.886 97.6743 129.923 97.674C130.372 97.6685 130.8 97.7433 131.205 97.8985C131.614 98.0457 131.986 98.2702 132.321 98.5719C132.654 98.8683 132.917 99.2209 133.11 99.6299C133.3 100.033 133.406 100.46 133.426 100.911C133.449 101.354 133.389 101.782 133.246 102.197C133.108 102.609 132.894 102.986 132.605 103.33C132.579 103.36 132.553 103.39 132.527 103.42L132.862 104.129C132.637 104.389 132.23 104.669 132.055 104.776L131.714 104.055C131.659 104.085 131.601 104.114 131.543 104.142L130.782 104.501L131.179 105.34L130.178 105.813L129.782 104.974L128.542 105.56L127.895 104.191L128.533 103.89L126.912 100.46L126.275 100.761L125.628 99.3928L126.868 98.8069L126.444 97.9082ZM130.135 103.146L130.502 102.973C130.779 102.842 131.006 102.681 131.182 102.492C131.358 102.302 131.483 102.096 131.558 101.874C131.638 101.649 131.667 101.415 131.645 101.172C131.626 100.921 131.558 100.67 131.439 100.419C131.323 100.174 131.174 99.9641 130.992 99.7899C130.81 99.6158 130.607 99.4883 130.383 99.4075C130.164 99.3242 129.925 99.2902 129.667 99.3056C129.408 99.3211 129.143 99.393 128.871 99.5213L128.505 99.6946L130.135 103.146Z" fill="white"/>
<path fill-rule="evenodd" clip-rule="evenodd" d="M60.6647 74.3659C59.035 74.1411 57.3412 74.0544 55.5883 74.135C55.3125 74.1477 55.0786 73.9343 55.0659 73.6585C55.0532 73.3826 55.2666 73.1487 55.5424 73.136C57.358 73.0526 59.1129 73.1424 60.8013 73.3753C61.0749 73.4131 61.266 73.6654 61.2283 73.939C61.1906 74.2125 60.9382 74.4037 60.6647 74.3659ZM50.9266 74.2199C50.9871 74.4894 50.8177 74.7568 50.5482 74.8173C49.7357 74.9996 48.9125 75.2191 48.079 75.4784L47.782 74.5236C48.6409 74.2563 49.4902 74.0298 50.3293 73.8415C50.5988 73.7811 50.8662 73.9505 50.9266 74.2199ZM65.3004 74.8801C65.3859 74.6176 65.6681 74.4741 65.9306 74.5596C67.6398 75.1163 69.2582 75.8095 70.7783 76.5973C71.0235 76.7244 71.1193 77.0261 70.9922 77.2713C70.8651 77.5165 70.5634 77.6122 70.3182 77.4852C68.8427 76.7205 67.2744 76.0491 65.6209 75.5104C65.3583 75.4249 65.2148 75.1427 65.3004 74.8801ZM74.5494 79.4677C74.711 79.2437 75.0235 79.1932 75.2474 79.3548C76.7315 80.4256 78.0792 81.5632 79.2795 82.7073C79.4793 82.8978 79.4869 83.2143 79.2964 83.4142C79.1059 83.6141 78.7894 83.6216 78.5895 83.4311C77.4199 82.3163 76.107 81.2082 74.6623 80.1657C74.4384 80.0041 74.3878 79.6916 74.5494 79.4677ZM82.1151 86.5013C82.3324 86.3308 82.6467 86.3687 82.8172 86.586C83.4056 87.3359 83.9183 88.0574 84.3511 88.7306L83.5099 89.2714C83.0953 88.6264 82.601 87.9304 82.0304 87.2033C81.86 86.9861 81.8979 86.6718 82.1151 86.5013Z" fill="#141414"/>
<path fill-rule="evenodd" clip-rule="evenodd" d="M112.008 36.949C112.02 36.6732 112.253 36.4592 112.529 36.4712C114.65 36.5632 116.701 36.8848 118.667 37.3996C118.934 37.4696 119.094 37.7428 119.024 38.01C118.954 38.2771 118.681 38.4369 118.414 38.367C116.514 37.8695 114.534 37.5591 112.486 37.4702C112.21 37.4583 111.996 37.2249 112.008 36.949ZM106.91 37.2672C106.956 37.5396 106.772 37.7973 106.499 37.8428C105.531 38.0044 104.551 38.217 103.561 38.4837C102.819 38.6834 102.09 38.9284 101.377 39.2145C101.12 39.3173 100.829 39.1929 100.726 38.9366C100.624 38.6804 100.748 38.3892 101.004 38.2864C101.753 37.9861 102.519 37.7284 103.301 37.5181C104.322 37.243 105.334 37.0235 106.335 36.8564C106.607 36.8109 106.865 36.9949 106.91 37.2672ZM123.808 39.8019C123.93 39.5542 124.23 39.4522 124.477 39.5742C125.41 40.0335 126.316 40.5355 127.193 41.0751L126.669 41.9267C125.818 41.4032 124.939 40.9164 124.036 40.4713C123.788 40.3494 123.686 40.0496 123.808 39.8019ZM97.4454 40.6978C97.6011 40.9259 97.5424 41.237 97.3144 41.3927C96.0337 42.2669 94.8483 43.2722 93.7861 44.3718C93.5942 44.5704 93.2777 44.5758 93.0791 44.384C92.8805 44.1921 92.875 43.8756 93.0668 43.677C94.1754 42.5294 95.4127 41.48 96.7506 40.5668C96.9786 40.4111 97.2897 40.4698 97.4454 40.6978ZM90.7823 47.3157C91.0167 47.4616 91.0885 47.7699 90.9426 48.0043C90.1084 49.3449 89.45 50.7467 88.9992 52.1641C88.9155 52.4272 88.6343 52.5727 88.3712 52.489C88.108 52.4053 87.9625 52.1241 88.0462 51.861C88.5243 50.3578 89.2193 48.8809 90.0936 47.476C90.2395 47.2415 90.5478 47.1698 90.7823 47.3157ZM103.369 51.497C102.501 51.3886 101.807 51.5655 101.237 51.9498C101.008 52.1042 100.698 52.0438 100.543 51.8148C100.389 51.5859 100.449 51.2751 100.678 51.1207C101.466 50.5893 102.407 50.3691 103.493 50.5047C104.421 50.6208 105.171 50.9751 105.735 51.5316C105.931 51.7256 105.933 52.0422 105.739 52.2387C105.545 52.4351 105.228 52.4371 105.032 52.243C104.644 51.8599 104.106 51.5892 103.369 51.497ZM98.6693 55.4901C98.9392 55.5488 99.1104 55.8151 99.0518 56.0849C98.7339 57.5475 98.5784 59.2673 98.5496 61.1239C98.5453 61.4 98.318 61.6204 98.0419 61.6161C97.7658 61.6118 97.5454 61.3845 97.5497 61.1084C97.5791 59.2115 97.7381 57.421 98.0746 55.8726C98.1332 55.6027 98.3995 55.4315 98.6693 55.4901ZM106.46 55.4825C106.734 55.5121 106.933 55.7586 106.904 56.0332C106.755 57.4128 106.312 58.9121 105.653 60.3618C105.539 60.6131 105.242 60.7243 104.991 60.6101C104.74 60.4958 104.628 60.1994 104.743 59.948C105.367 58.5749 105.774 57.1794 105.909 55.9262C105.939 55.6516 106.185 55.453 106.46 55.4825ZM87.794 56.1631C88.0701 56.1587 88.2975 56.379 88.3019 56.6551C88.3262 58.1727 88.6327 59.6526 89.2606 61.0421C89.3743 61.2938 89.2625 61.59 89.0109 61.7037C88.7593 61.8174 88.4631 61.7056 88.3494 61.454C87.6608 59.9304 87.3283 58.3144 87.3021 56.671C87.2977 56.3949 87.5179 56.1675 87.794 56.1631ZM103.226 63.4705C103.439 63.6455 103.47 63.9605 103.295 64.1741C102.298 65.3917 101.134 66.4362 99.8635 67.1278C99.621 67.2598 99.3173 67.1702 99.1853 66.9277C99.0533 66.6851 99.1429 66.3815 99.3854 66.2495C100.515 65.6345 101.584 64.6855 102.522 63.5403C102.697 63.3267 103.012 63.2955 103.226 63.4705ZM91.2038 64.6999C91.3917 64.4976 91.7081 64.4858 91.9105 64.6737C92.4431 65.1683 93.041 65.6402 93.708 66.0849C94.3221 66.4943 94.9324 66.7549 95.532 66.8932C95.801 66.9552 95.9689 67.2236 95.9068 67.4927C95.8448 67.7618 95.5763 67.9296 95.3072 67.8676C94.5817 67.7003 93.8605 67.3884 93.1533 66.9169C92.444 66.4441 91.8038 65.9393 91.23 65.4065C91.0277 65.2186 91.0159 64.9023 91.2038 64.6999ZM98.2023 65.7843C98.4775 65.7616 98.719 65.9662 98.7418 66.2414C98.884 67.9617 99.095 69.6898 99.3476 71.3415C99.3894 71.6145 99.2019 71.8696 98.929 71.9113C98.656 71.9531 98.4009 71.7656 98.3591 71.4927C98.1034 69.8208 97.8895 68.0696 97.7452 66.3238C97.7224 66.0486 97.9271 65.8071 98.2023 65.7843ZM99.695 76.0093C99.9644 75.9487 100.232 76.1179 100.292 76.3873C100.497 77.2971 100.706 78.1313 100.912 78.8661L99.9491 79.1357C99.7381 78.3819 99.5247 77.5307 99.3169 76.6068C99.2563 76.3374 99.4255 76.0699 99.695 76.0093Z" fill="#141414"/>
<path fill-rule="evenodd" clip-rule="evenodd" d="M44.9231 74.9962C44.3722 74.7643 43.6314 74.6935 42.8427 74.8906C42.0539 75.0877 41.4335 75.4987 41.0565 75.9626C40.6798 76.4262 40.5776 76.8918 40.6736 77.2762C40.7697 77.6606 41.0789 78.0234 41.6295 78.2552C42.1804 78.4872 42.9212 78.558 43.7099 78.3609C44.4987 78.1637 45.1191 77.7528 45.4961 77.2889C45.8728 76.8253 45.975 76.3597 45.879 75.9753C45.7829 75.5909 45.4737 75.2281 44.9231 74.9962ZM46.7465 75.7584C46.3873 74.321 44.5424 73.5441 42.6258 74.0231C40.7093 74.5021 39.4468 76.0556 39.8061 77.493C40.1653 78.9304 42.0102 79.7074 43.9268 79.2284C45.8433 78.7494 47.1058 77.1959 46.7465 75.7584Z" fill="#141414"/>
<path fill-rule="evenodd" clip-rule="evenodd" d="M45.0607 70.4245C44.6315 70.3011 44.062 70.3107 43.4716 70.5331C42.8812 70.7555 42.4468 71.124 42.2058 71.4999C41.9648 71.8757 41.9436 72.2028 42.0325 72.4389C42.1214 72.6749 42.3532 72.9067 42.7822 73.0302C43.2114 73.1536 43.7809 73.144 44.3713 72.9216C44.9617 72.6992 45.396 72.3307 45.6371 71.9548C45.8781 71.579 45.8993 71.2519 45.8104 71.0158C45.7215 70.7798 45.4897 70.548 45.0607 70.4245ZM46.6472 70.7006C46.2247 69.5789 44.6618 69.1292 43.1564 69.6963C41.651 70.2634 40.7731 71.6324 41.1956 72.7541C41.6182 73.8758 43.1811 74.3255 44.6865 73.7584C46.1919 73.1913 47.0698 71.8223 46.6472 70.7006Z" fill="#141414"/>
<path fill-rule="evenodd" clip-rule="evenodd" d="M48.3723 79.5802C48.1741 79.2208 47.7966 78.8544 47.2637 78.6139C46.7309 78.3734 46.2064 78.3328 45.8058 78.422C45.4055 78.5112 45.1853 78.7095 45.0932 78.9137C45.001 79.1179 44.998 79.4142 45.196 79.7733C45.3941 80.1327 45.7716 80.4991 46.3045 80.7396C46.8374 80.9801 47.3619 81.0207 47.7625 80.9314C48.1628 80.8423 48.3829 80.644 48.4751 80.4398C48.5672 80.2356 48.5703 79.9393 48.3723 79.5802ZM49.2902 80.8076C49.7582 79.7704 49.0156 78.4234 47.6316 77.7988C46.2475 77.1742 44.7461 77.5087 44.2781 78.5459C43.8101 79.583 44.5527 80.9301 45.9367 81.5547C47.3208 82.1792 48.8222 81.8448 49.2902 80.8076Z" fill="#141414"/>
<path fill-rule="evenodd" clip-rule="evenodd" d="M129.309 44.5059C129.571 45.0427 130.083 45.5827 130.808 45.9523C131.532 46.3218 132.27 46.4196 132.858 46.3175C133.447 46.2155 133.83 45.9317 134.01 45.5787C134.19 45.2258 134.195 44.7492 133.933 44.2127C133.67 43.6758 133.158 43.1358 132.434 42.7662C131.709 42.3967 130.972 42.2989 130.383 42.401C129.794 42.503 129.411 42.7868 129.231 43.1398C129.051 43.4927 129.046 43.9694 129.309 44.5059ZM128.435 42.7333C127.761 44.053 128.642 45.8508 130.401 46.7488C132.161 47.6468 134.133 47.3049 134.807 45.9852C135.48 44.6655 134.6 42.8677 132.84 41.9697C131.08 41.0717 129.108 41.4136 128.435 42.7333Z" fill="#141414"/>
<path fill-rule="evenodd" clip-rule="evenodd" d="M126.201 47.8642C126.443 48.2392 126.879 48.6061 127.47 48.8263C128.062 49.0465 128.631 49.0541 129.06 48.9291C129.488 48.804 129.719 48.5714 129.807 48.335C129.895 48.0986 129.873 47.7716 129.63 47.3967C129.388 47.0217 128.952 46.6548 128.361 46.4346C127.77 46.2144 127.2 46.2068 126.772 46.3319C126.343 46.4569 126.112 46.6895 126.024 46.9259C125.936 47.1623 125.959 47.4893 126.201 47.8642ZM125.186 46.6138C124.768 47.737 125.651 49.1028 127.158 49.6643C128.666 50.2258 130.227 49.7704 130.645 48.6471C131.064 47.5239 130.181 46.1581 128.673 45.5966C127.166 45.0351 125.605 45.4905 125.186 46.6138Z" fill="#141414"/>
<path fill-rule="evenodd" clip-rule="evenodd" d="M129.72 38.7841C129.634 39.1852 129.678 39.7095 129.921 40.2408C130.165 40.7722 130.534 41.1474 130.895 41.3433C131.255 41.5391 131.551 41.5342 131.755 41.4408C131.958 41.3474 132.155 41.126 132.242 40.7252C132.329 40.324 132.285 39.7998 132.041 39.2684C131.797 38.7371 131.429 38.3618 131.068 38.1659C130.708 37.9702 130.411 37.975 130.208 38.0685C130.004 38.1619 129.807 38.3832 129.72 38.7841ZM129.835 37.2557C128.801 37.7301 128.475 39.2336 129.109 40.6137C129.742 41.9939 131.093 42.7281 132.128 42.2536C133.162 41.7792 133.487 40.2757 132.854 38.8956C132.221 37.5154 130.869 36.7812 129.835 37.2557Z" fill="#141414"/>
<defs>
<filter id="filter0_d_2203_1505" x="26.2947" y="43.1133" width="157.789" height="159.254" filterUnits="userSpaceOnUse" color-interpolation-filters="sRGB">
<feFlood flood-opacity="0" result="BackgroundImageFix"/>
<feColorMatrix in="SourceAlpha" type="matrix" values="0 0 0 0 0 0 0 0 0 0 0 0 0 0 0 0 0 0 127 0" result="hardAlpha"/>
<feOffset dy="16"/>
<feGaussianBlur stdDeviation="16"/>
<feComposite in2="hardAlpha" operator="out"/>
<feColorMatrix type="matrix" values="0 0 0 0 0 0 0 0 0 0 0 0 0 0 0 0 0 0 0.4 0"/>
<feBlend mode="normal" in2="BackgroundImageFix" result="effect1_dropShadow_2203_1505"/>
<feBlend mode="normal" in="SourceGraphic" in2="effect1_dropShadow_2203_1505" result="shape"/>
</filter>
</defs>
</svg>
