<svg width="205" height="205" viewBox="0 0 205 205" fill="none" xmlns="http://www.w3.org/2000/svg">
<circle cx="102.5" cy="102.5" r="102.5" fill="#F9F9F9"/>
<circle cx="102.5" cy="102.5" r="61.5" fill="#FC764C"/>
<circle cx="47.5" cy="56.5" r="6.5" fill="#FC764C"/>
<circle cx="60.5" cy="156.5" r="2.5" fill="#FC764C"/>
<circle cx="150" cy="54" r="3" fill="#FC764C"/>
<circle cx="150" cy="154" r="5" fill="#FC764C"/>
<g filter="url(#filter0_d_517_17614)">
<path d="M111.96 78.513C104.863 82.0615 89.5705 86.7505 82.8115 88.6515V113.998C89.5705 115.899 104.863 120.588 111.96 124.136C120.831 128.572 134.137 138.076 136.038 130.473C137.939 122.869 138.573 108.928 138.573 101.324C138.573 93.7206 137.939 79.7803 136.038 72.1765C134.137 64.5727 120.831 74.0775 111.96 78.513Z" fill="white"/>
<path d="M68.8712 133.641L65.0693 113.998H78.376L82.8243 127.343C83.1898 128.439 82.7672 129.644 81.7967 130.272L72.6732 136.175C70.1386 137.189 69.0825 134.908 68.8712 133.641Z" fill="#C2C2C2"/>
<path d="M63.8019 88.6516H82.8115V113.998H63.8019C62.5346 113.998 60 113.306 60 110.541V92.1079C60 89.3429 62.5346 88.6516 63.8019 88.6516Z" fill="#EBEBEB"/>
<rect x="63.8018" y="94.988" width="8.87113" height="2.53461" rx="1.2673" fill="#FC764C"/>
<rect x="63.8018" y="100.057" width="8.87113" height="2.53461" rx="1.2673" fill="#FC764C"/>
<rect x="63.8018" y="105.127" width="8.87113" height="2.53461" rx="1.2673" fill="#FC764C"/>
<path d="M90.768 71.364H103V76H83.0703V72.8235L95.2671 55.6532H83V51H102.877V54.0907L90.768 71.364Z" fill="#141414"/>
<path d="M101.272 92.4038H108V95H97.0387V93.2212L103.747 83.6058H97V81H107.932V82.7308L101.272 92.4038Z" fill="#141414"/>
<path d="M113.719 106.331H118V108H111.025V106.856L115.293 100.675H111V99H117.957V100.113L113.719 106.331Z" fill="#141414"/>
</g>
<defs>
<filter id="filter0_d_517_17614" x="28" y="35" width="142.573" height="149.428" filterUnits="userSpaceOnUse" color-interpolation-filters="sRGB">
<feFlood flood-opacity="0" result="BackgroundImageFix"/>
<feColorMatrix in="SourceAlpha" type="matrix" values="0 0 0 0 0 0 0 0 0 0 0 0 0 0 0 0 0 0 127 0" result="hardAlpha"/>
<feOffset dy="16"/>
<feGaussianBlur stdDeviation="16"/>
<feComposite in2="hardAlpha" operator="out"/>
<feColorMatrix type="matrix" values="0 0 0 0 0 0 0 0 0 0 0 0 0 0 0 0 0 0 0.4 0"/>
<feBlend mode="normal" in2="BackgroundImageFix" result="effect1_dropShadow_517_17614"/>
<feBlend mode="normal" in="SourceGraphic" in2="effect1_dropShadow_517_17614" result="shape"/>
</filter>
</defs>
</svg>
