<svg width="133" height="131" viewBox="0 0 133 131" fill="none" xmlns="http://www.w3.org/2000/svg">
<circle cx="65" cy="52" r="52" fill="#FC764C"/>
<circle cx="21.4552" cy="10.1461" r="4.22764" fill="#FC764C"/>
<circle cx="106.854" cy="5.91891" r="2.53659" fill="#FC764C"/>
<circle cx="28.2192" cy="94.6992" r="2.53659" fill="#FC764C"/>
<circle cx="108.545" cy="96.3902" r="4.22764" fill="#FC764C"/>
<g filter="url(#filter0_d_2562_1129)">
<path d="M44.2132 79.6568L79.5708 70.1827C80.6867 69.8837 81.3489 68.7367 81.0499 67.6208L68.962 22.5082C68.8192 21.9753 68.4716 21.5203 67.9949 21.2424L60.2933 16.7532C59.8114 16.4724 59.2372 16.3956 58.6985 16.5399L29.4043 24.3893C28.2884 24.6883 27.6262 25.8353 27.9252 26.9512L41.6513 78.1776C41.9503 79.2935 43.0973 79.9558 44.2132 79.6568Z" fill="#EBEBEB"/>
<rect x="38.4746" y="33.5015" width="19.7934" height="0.870042" rx="0.435021" transform="rotate(-15 38.4746 33.5015)" fill="#333333"/>
<rect x="39.8252" y="38.5435" width="14.1382" height="0.870042" rx="0.435021" transform="rotate(-15 39.8252 38.5435)" fill="#333333"/>
<rect x="39.1504" y="36.0225" width="23.2736" height="0.870042" rx="0.435021" transform="rotate(-15 39.1504 36.0225)" fill="#333333"/>
<path d="M68.773 21.7796L59.4492 16.3965L60.8782 21.7294C61.1772 22.8453 62.3242 23.5076 63.4401 23.2085L68.773 21.7796Z" fill="#C2C2C2"/>
</g>
<g filter="url(#filter1_d_2562_1129)">
<path fill-rule="evenodd" clip-rule="evenodd" d="M76.4886 21.9835C74.8709 21.0496 72.8025 21.6038 71.8685 23.2215L48.1702 64.2681L44.285 70.9976L51.26 68.8085L52.7455 75.4679L59.2555 73.4247L60.7397 80.0781L67.3984 78.1156L69.0267 84.8575L75.6795 82.8967L77.4201 90.1035L81.2947 83.3925L104.993 42.3459C105.927 40.7283 105.373 38.6598 103.755 37.7259L76.4886 21.9835Z" fill="white"/>
</g>
<rect x="75.4277" y="33.2852" width="19.7934" height="0.870042" rx="0.435021" transform="rotate(30 75.4277 33.2852)" fill="#333333"/>
<rect x="72.8174" y="37.8062" width="14.1382" height="0.870042" rx="0.435021" transform="rotate(30 72.8174 37.8062)" fill="#333333"/>
<rect x="74.123" y="35.5454" width="23.2736" height="0.870042" rx="0.435021" transform="rotate(30 74.123 35.5454)" fill="#333333"/>
<path d="M87.7091 72.3362H85.6717L84.9496 71.6399C87.477 68.6998 88.9986 64.8829 88.9986 60.7307C88.9986 51.4722 81.4937 43.9673 72.2351 43.9673C62.9765 43.9673 55.4717 51.4722 55.4717 60.7307C55.4717 69.9893 62.9765 77.4942 72.2351 77.4942C76.3873 77.4942 80.2042 75.9726 83.1443 73.4452L83.8406 74.1673V76.2047L94.8123 87.1544C95.8748 88.2148 97.5955 88.214 98.6569 87.1525C99.7184 86.0911 99.7192 84.3704 98.6588 83.3079L87.7091 72.3362ZM72.2351 72.3362C65.8134 72.3362 60.6297 67.1524 60.6297 60.7307C60.6297 54.309 65.8134 49.1253 72.2351 49.1253C78.6568 49.1253 83.8406 54.309 83.8406 60.7307C83.8406 67.1524 78.6568 72.3362 72.2351 72.3362Z" fill="#333333"/>
<path d="M70.7418 63.9303C70.7418 63.1339 70.8408 62.4993 71.0387 62.0263C71.2366 61.5533 71.6264 61.0353 72.2082 60.4725C72.796 59.9037 73.1678 59.4996 73.3238 59.2601C73.5637 58.8949 73.6836 58.4997 73.6836 58.0746C73.6836 57.5118 73.5427 57.0837 73.2608 56.7903C72.9849 56.4909 72.5771 56.3412 72.0373 56.3412C71.5215 56.3412 71.1047 56.4879 70.7868 56.7813C70.4749 57.0687 70.319 57.4609 70.319 57.9578H68.1328C68.1448 56.8981 68.5047 56.0598 69.2124 55.4431C69.9261 54.8264 70.8677 54.5181 72.0373 54.5181C73.2428 54.5181 74.1815 54.8234 74.8532 55.4341C75.5309 56.0449 75.8698 56.8981 75.8698 57.9938C75.8698 58.9697 75.414 59.9307 74.5023 60.8767L73.3958 61.9634C72.9999 62.4125 72.796 63.0681 72.784 63.9303H70.7418ZM70.5889 66.7234C70.5889 66.3701 70.6998 66.0857 70.9217 65.8702C71.1436 65.6486 71.4435 65.5379 71.8214 65.5379C72.2052 65.5379 72.5081 65.6516 72.73 65.8792C72.9519 66.1007 73.0629 66.3821 73.0629 66.7234C73.0629 67.0527 72.9549 67.3281 72.739 67.5496C72.5231 67.7712 72.2172 67.8819 71.8214 67.8819C71.4255 67.8819 71.1196 67.7712 70.9037 67.5496C70.6938 67.3281 70.5889 67.0527 70.5889 66.7234Z" fill="#333333"/>
<defs>
<filter id="filter0_d_2562_1129" x="0.796604" y="2.86803" width="107.382" height="117.446" filterUnits="userSpaceOnUse" color-interpolation-filters="sRGB">
<feFlood flood-opacity="0" result="BackgroundImageFix"/>
<feColorMatrix in="SourceAlpha" type="matrix" values="0 0 0 0 0 0 0 0 0 0 0 0 0 0 0 0 0 0 127 0" result="hardAlpha"/>
<feOffset dy="13.5285"/>
<feGaussianBlur stdDeviation="13.5285"/>
<feComposite in2="hardAlpha" operator="out"/>
<feColorMatrix type="matrix" values="0 0 0 0 0 0 0 0 0 0 0 0 0 0 0 0 0 0 0.4 0"/>
<feBlend mode="normal" in2="BackgroundImageFix" result="effect1_dropShadow_2562_1129"/>
<feBlend mode="normal" in="SourceGraphic" in2="effect1_dropShadow_2562_1129" result="shape"/>
</filter>
<filter id="filter1_d_2562_1129" x="17.2282" y="8.00133" width="115.275" height="122.688" filterUnits="userSpaceOnUse" color-interpolation-filters="sRGB">
<feFlood flood-opacity="0" result="BackgroundImageFix"/>
<feColorMatrix in="SourceAlpha" type="matrix" values="0 0 0 0 0 0 0 0 0 0 0 0 0 0 0 0 0 0 127 0" result="hardAlpha"/>
<feOffset dy="13.5285"/>
<feGaussianBlur stdDeviation="13.5285"/>
<feComposite in2="hardAlpha" operator="out"/>
<feColorMatrix type="matrix" values="0 0 0 0 0 0 0 0 0 0 0 0 0 0 0 0 0 0 0.4 0"/>
<feBlend mode="normal" in2="BackgroundImageFix" result="effect1_dropShadow_2562_1129"/>
<feBlend mode="normal" in="SourceGraphic" in2="effect1_dropShadow_2562_1129" result="shape"/>
</filter>
</defs>
</svg>
