<svg width="148" height="120" viewBox="0 0 148 120" fill="none" xmlns="http://www.w3.org/2000/svg">
<circle cx="74" cy="52" r="52" fill="#FC764C"/>
<circle cx="30.4562" cy="10.1466" r="4.22764" fill="#FC764C"/>
<circle cx="115.853" cy="5.91842" r="2.53659" fill="#FC764C"/>
<circle cx="37.2202" cy="94.6997" r="2.53659" fill="#FC764C"/>
<circle cx="117.544" cy="96.3907" r="4.22764" fill="#FC764C"/>
<g filter="url(#filter0_d_2558_17419)">
<rect x="55.2793" y="26.4248" width="37.2512" height="50.0563" rx="3.10427" fill="white"/>
<rect x="94.082" y="34.9609" width="25.9982" height="34.923" rx="3.10427" fill="white"/>
<rect x="27.7285" y="34.9609" width="25.9982" height="34.923" rx="3.10427" fill="white"/>
<circle cx="74.098" cy="46.4086" r="11.0589" fill="#FC764C"/>
<path fill-rule="evenodd" clip-rule="evenodd" d="M71.592 43.5518C71.592 42.1693 72.7127 41.0486 74.0952 41.0486C75.4777 41.0486 76.5985 42.1693 76.5985 43.5518C76.5985 44.9343 75.4777 46.0551 74.0952 46.0551C72.7127 46.0551 71.592 44.9343 71.592 43.5518ZM74.0952 39.6182C71.9227 39.6182 70.1616 41.3793 70.1616 43.5518C70.1616 44.7828 70.727 45.8817 71.6123 46.603C69.6735 47.4411 68.2109 49.167 67.7429 51.2674C67.7138 51.3983 67.6885 51.5305 67.6672 51.6641C67.605 52.0542 67.8709 52.4208 68.2609 52.483C68.651 52.5452 69.0176 52.2793 69.0798 51.8893C69.0965 51.7846 69.1163 51.681 69.1391 51.5785C69.6604 49.2388 71.7603 47.4854 74.274 47.4854C76.7877 47.4854 78.8877 49.2388 79.4089 51.5785C79.4317 51.681 79.4516 51.7846 79.4682 51.8893C79.5304 52.2793 79.897 52.5452 80.2871 52.483C80.6772 52.4208 80.943 52.0542 80.8808 51.6641C80.8595 51.5305 80.8343 51.3983 80.8051 51.2674C80.318 49.0807 78.7528 47.3 76.6946 46.5044C77.5127 45.7835 78.0289 44.728 78.0289 43.5518C78.0289 41.3793 76.2677 39.6182 74.0952 39.6182Z" fill="#141414"/>
<rect x="68.084" y="62.5117" width="11.641" height="3.88033" rx="1.94017" fill="#C2C2C2"/>
<rect x="66.5312" y="67.5566" width="14.7453" height="2.3282" rx="1.1641" fill="#C2C2C2"/>
<circle cx="107.093" cy="48.362" r="7.57973" fill="#FC764C"/>
<path fill-rule="evenodd" clip-rule="evenodd" d="M105.156 46.6335C105.156 45.6053 105.99 44.7718 107.018 44.7718C108.046 44.7718 108.879 45.6053 108.879 46.6335C108.879 47.6617 108.046 48.4952 107.018 48.4952C105.99 48.4952 105.156 47.6617 105.156 46.6335ZM107.018 43.708C105.402 43.708 104.092 45.0178 104.092 46.6335C104.092 47.549 104.513 48.3663 105.171 48.9027C103.729 49.526 102.641 50.8095 102.293 52.3717C102.272 52.469 102.253 52.5674 102.237 52.6667C102.191 52.9568 102.389 53.2294 102.679 53.2757C102.969 53.3219 103.241 53.1242 103.288 52.8341C103.3 52.7563 103.315 52.6792 103.332 52.603C103.719 50.863 105.281 49.5589 107.151 49.5589C109.02 49.5589 110.582 50.863 110.97 52.603C110.987 52.6792 111.001 52.7563 111.014 52.8341C111.06 53.1242 111.333 53.3219 111.623 53.2757C111.913 53.2294 112.111 52.9568 112.064 52.6667C112.048 52.5674 112.03 52.469 112.008 52.3717C111.646 50.7454 110.482 49.4211 108.951 48.8293C109.559 48.2932 109.943 47.5082 109.943 46.6335C109.943 45.0178 108.633 43.708 107.018 43.708Z" fill="#141414"/>
<rect x="102.957" y="59.3994" width="7.97866" height="2.65955" rx="1.32978" fill="#C2C2C2"/>
<rect x="101.895" y="62.8564" width="10.1063" height="1.59573" rx="0.797866" fill="#C2C2C2"/>
<circle cx="40.7399" cy="48.362" r="7.57973" fill="#FC764C"/>
<path fill-rule="evenodd" clip-rule="evenodd" d="M38.8025 46.6335C38.8025 45.6053 39.6361 44.7718 40.6642 44.7718C41.6924 44.7718 42.5259 45.6053 42.5259 46.6335C42.5259 47.6617 41.6924 48.4952 40.6642 48.4952C39.6361 48.4952 38.8025 47.6617 38.8025 46.6335ZM40.6642 43.708C39.0485 43.708 37.7387 45.0178 37.7387 46.6335C37.7387 47.549 38.1592 48.3663 38.8177 48.9027C37.3757 49.526 36.288 50.8095 35.94 52.3717C35.9183 52.469 35.8995 52.5674 35.8837 52.6667C35.8374 52.9568 36.0351 53.2294 36.3252 53.2757C36.6153 53.3219 36.888 53.1242 36.9342 52.8341C36.9466 52.7563 36.9614 52.6792 36.9783 52.603C37.366 50.863 38.9277 49.5589 40.7972 49.5589C42.6667 49.5589 44.2284 50.863 44.6161 52.603C44.633 52.6792 44.6478 52.7563 44.6602 52.8341C44.7064 53.1242 44.9791 53.3219 45.2692 53.2757C45.5593 53.2294 45.757 52.9568 45.7107 52.6667C45.6949 52.5674 45.6761 52.469 45.6544 52.3717C45.2921 50.7454 44.1281 49.4211 42.5974 48.8293C43.2059 48.2932 43.5897 47.5082 43.5897 46.6335C43.5897 45.0178 42.2799 43.708 40.6642 43.708Z" fill="#141414"/>
<rect x="36.6055" y="59.3994" width="7.97866" height="2.65955" rx="1.32978" fill="#C2C2C2"/>
<rect x="35.541" y="62.8564" width="10.1063" height="1.59573" rx="0.797866" fill="#C2C2C2"/>
<path d="M91.2202 59.5589H88.9242L88.1104 58.7742C90.9586 55.4609 92.6734 51.1595 92.6734 46.4802C92.6734 36.0464 84.2159 27.5889 73.782 27.5889C63.3482 27.5889 54.8906 36.0464 54.8906 46.4802C54.8906 56.9141 63.3482 65.3716 73.782 65.3716C78.4613 65.3716 82.7627 63.6569 86.0759 60.8086L86.8607 61.6224V63.9184L101.392 78.4212L105.723 74.0907L91.2202 59.5589ZM73.782 59.5589C66.5452 59.5589 60.7034 53.7171 60.7034 46.4802C60.7034 39.2434 66.5452 33.4016 73.782 33.4016C81.0189 33.4016 86.8607 39.2434 86.8607 46.4802C86.8607 53.7171 81.0189 59.5589 73.782 59.5589Z" fill="#141414"/>
</g>
<defs>
<filter id="filter0_d_2558_17419" x="0.671604" y="12.8963" width="146.465" height="106.11" filterUnits="userSpaceOnUse" color-interpolation-filters="sRGB">
<feFlood flood-opacity="0" result="BackgroundImageFix"/>
<feColorMatrix in="SourceAlpha" type="matrix" values="0 0 0 0 0 0 0 0 0 0 0 0 0 0 0 0 0 0 127 0" result="hardAlpha"/>
<feOffset dy="13.5285"/>
<feGaussianBlur stdDeviation="13.5285"/>
<feComposite in2="hardAlpha" operator="out"/>
<feColorMatrix type="matrix" values="0 0 0 0 0 0 0 0 0 0 0 0 0 0 0 0 0 0 0.4 0"/>
<feBlend mode="normal" in2="BackgroundImageFix" result="effect1_dropShadow_2558_17419"/>
<feBlend mode="normal" in="SourceGraphic" in2="effect1_dropShadow_2558_17419" result="shape"/>
</filter>
</defs>
</svg>
