<svg width="61" height="61" viewBox="0 0 61 61" fill="none" xmlns="http://www.w3.org/2000/svg">
<circle cx="30.0764" cy="30.0764" r="30.0764" fill="#E6E922"/>
<path fill-rule="evenodd" clip-rule="evenodd" d="M21.6787 7.4751H27.6589V12.8291H32.2073C32.5569 12.8291 32.9032 12.839 33.2464 12.8586V8.22244C34.3509 8.34046 36.9846 8.76368 38.6842 9.51234V14.1016C38.8653 14.1776 39.0453 14.2569 39.2242 14.3397C41.4332 15.3468 43.3499 16.6949 44.9742 18.3842C46.6309 20.0409 47.9304 21.9901 48.8724 24.2316C49.8145 26.4406 50.2856 28.7633 50.2856 31.1997C50.2856 33.6037 49.8145 35.9264 48.8724 38.1679C47.9629 40.3769 46.6797 42.3261 45.0229 44.0153C43.3986 45.7046 41.482 47.0527 39.273 48.0598C39.0782 48.1499 38.8819 48.236 38.6842 48.3181V52.5464C36.9846 53.2951 34.3509 53.7183 33.2464 53.8363V49.5416C32.9035 49.5608 32.5571 49.5704 32.2073 49.5704H27.6589V54.5689H21.6787V49.5704H20.536V49.5708H14.2637V41.4168H18.0761V20.9831H14.2637V12.8291H18.0761H20.536H21.6787V7.4751ZM27.6269 41.4814H29.8196C31.4764 41.4814 32.9545 41.2216 34.2539 40.7018C35.5534 40.182 36.6416 39.4673 37.5187 38.5577C38.4283 37.6481 39.1105 36.5761 39.5653 35.3417C40.0526 34.0747 40.2963 32.6941 40.2963 31.1997C40.2963 29.7379 40.0526 28.3735 39.5653 27.1066C39.078 25.8396 38.3796 24.7513 37.47 23.8417C36.5929 22.9321 35.5046 22.2175 34.2052 21.6977C32.9058 21.1779 31.4439 20.918 29.8196 20.918H27.6269V41.4814Z" fill="black"/>
</svg>
