<svg width="53" height="38" viewBox="0 0 53 38" fill="none" xmlns="http://www.w3.org/2000/svg">
<g clip-path="url(#clip0_272_858)">
<path fill-rule="evenodd" clip-rule="evenodd" d="M4.27419 0H7.69355V2.53309H9.65936C10.1567 2.53309 10.6413 2.56197 11.1129 2.61972V0.0709519C12.2294 0.181924 13.3051 0.423818 14.3323 0.801833C14.4009 0.831536 14.4676 0.862058 14.5323 0.893405V3.6562C14.659 3.72129 14.7844 3.7892 14.9087 3.85995C16.4618 4.73446 17.672 5.97587 18.5393 7.58418C19.4167 9.18245 19.8605 10.9767 19.8705 12.967V13.9772C19.8705 15.9876 19.4419 17.7919 18.5847 19.3902C17.7375 20.9784 16.5374 22.2249 14.9842 23.1295C14.8353 23.2159 14.6846 23.2982 14.5323 23.3763V26.1262C14.3971 26.1918 14.2526 26.2537 14.1018 26.3121C13.1437 26.6429 12.1455 26.8562 11.1129 26.9553V24.4075C10.6886 24.4578 10.2546 24.4841 9.81064 24.4865H7.69355V27.0196H4.27419V24.4865H0V20.2647H2.56451V6.7549H0V2.53309H4.27419V0ZM13.2295 18.8021C12.4126 19.8777 11.2428 20.4155 9.71988 20.4155H7.87431V6.6192H9.65936C11.2226 6.6192 12.4126 7.15697 13.2295 8.23254C14.0464 9.3081 14.4549 10.9064 14.4549 13.0273V13.9772C14.4549 16.1083 14.0464 17.7165 13.2295 18.8021Z" fill="#333333"/>
<path d="M37.1461 20.415H27.9031V2.53263H22.5934V24.4861H37.1461V20.415Z" fill="#333333"/>
<path d="M47.2669 2.53263L43.2127 12.0618L39.1433 2.53263H33.4402L40.52 16.6003V24.4861H45.9054V16.6003L53.0002 2.53263H47.2669Z" fill="#333333"/>
</g>
<path d="M15.8279 34.9623C15.7643 35.6365 15.5154 36.1631 15.0814 36.5422C14.6474 36.9183 14.0701 37.1064 13.3496 37.1064C12.8461 37.1064 12.402 36.9878 12.0172 36.7505C11.6352 36.5103 11.3401 36.1703 11.1317 35.7305C10.9234 35.2907 10.8149 34.78 10.8062 34.1984V33.6081C10.8062 33.0121 10.9118 32.4869 11.1231 32.0326C11.3343 31.5783 11.6367 31.2282 12.0302 30.9823C12.4266 30.7363 12.8838 30.6133 13.4017 30.6133C14.099 30.6133 14.6604 30.8029 15.0857 31.1819C15.5111 31.561 15.7585 32.0963 15.8279 32.7878H14.7342C14.6821 32.3335 14.549 32.0066 14.3349 31.8069C14.1236 31.6044 13.8126 31.5031 13.4017 31.5031C12.9243 31.5031 12.5568 31.6782 12.2993 32.0283C12.0446 32.3755 11.9144 32.8862 11.9086 33.5604V34.1203C11.9086 34.8032 12.0302 35.324 12.2732 35.6828C12.5192 36.0416 12.878 36.221 13.3496 36.221C13.7808 36.221 14.1048 36.124 14.3218 35.9302C14.5389 35.7363 14.6763 35.4137 14.7342 34.9623H15.8279Z" fill="#333333"/>
<path d="M27.6343 34.0248C27.6343 34.644 27.5273 35.188 27.3132 35.6567C27.099 36.1226 26.7923 36.4814 26.393 36.7331C25.9966 36.982 25.5394 37.1064 25.0215 37.1064C24.5093 37.1064 24.0522 36.982 23.65 36.7331C23.2507 36.4814 22.9411 36.124 22.7211 35.6611C22.5041 35.1981 22.3942 34.6643 22.3913 34.0595V33.7036C22.3913 33.0873 22.4998 32.5433 22.7168 32.0717C22.9367 31.6 23.2449 31.2398 23.6413 30.9909C24.0406 30.7392 24.4978 30.6133 25.0128 30.6133C25.5279 30.6133 25.9836 30.7378 26.38 30.9866C26.7793 31.2326 27.0875 31.5885 27.3045 32.0543C27.5215 32.5173 27.6314 33.0569 27.6343 33.6732V34.0248ZM26.5362 33.6949C26.5362 32.9947 26.4031 32.458 26.1369 32.0847C25.8736 31.7114 25.4989 31.5248 25.0128 31.5248C24.5383 31.5248 24.1665 31.7114 23.8974 32.0847C23.6312 32.4551 23.4952 32.9802 23.4894 33.6602V34.0248C23.4894 34.7192 23.6239 35.256 23.893 35.635C24.165 36.0141 24.5412 36.2036 25.0215 36.2036C25.5076 36.2036 25.8809 36.0184 26.1413 35.6481C26.4046 35.2777 26.5362 34.7366 26.5362 34.0248V33.6949Z" fill="#333333"/>
<path d="M35.604 34.6715V37.0196H34.5059V30.7001H36.9234C37.6294 30.7001 38.1893 30.8839 38.6031 31.2514C39.0198 31.6188 39.2281 32.105 39.2281 32.7097C39.2281 33.3289 39.0241 33.8107 38.6161 34.155C38.211 34.4993 37.6424 34.6715 36.9104 34.6715H35.604ZM35.604 33.7904H36.9234C37.314 33.7904 37.6121 33.6993 37.8175 33.517C38.0229 33.3318 38.1257 33.0656 38.1257 32.7184C38.1257 32.3769 38.0215 32.105 37.8132 31.9024C37.6048 31.697 37.3184 31.5914 36.9538 31.5856H35.604V33.7904Z" fill="#333333"/>
<defs>
<clipPath id="clip0_272_858">
<rect width="53" height="27.0196" fill="white"/>
</clipPath>
</defs>
</svg>
