<svg width="38" height="27" viewBox="0 0 38 27" fill="none" xmlns="http://www.w3.org/2000/svg">
<g clip-path="url(#clip0_562_1452)">
<path fill-rule="evenodd" clip-rule="evenodd" d="M3.06451 0H5.51613V1.81618H6.92558C7.28218 1.81618 7.62958 1.83688 7.96771 1.87829V0.0508712C8.76824 0.130436 9.53949 0.30387 10.276 0.574899C10.3252 0.596195 10.373 0.61808 10.4194 0.640555V2.62143C10.5102 2.66809 10.6001 2.71678 10.6892 2.76751C11.8028 3.39452 12.6705 4.28459 13.2923 5.43772C13.9214 6.58364 14.2396 7.8701 14.2468 9.29711V10.0214C14.2468 11.4628 13.9394 12.7565 13.3249 13.9024C12.7175 15.0411 11.857 15.9348 10.7434 16.5834C10.6366 16.6453 10.5286 16.7044 10.4194 16.7604V18.732C10.3224 18.779 10.2189 18.8234 10.1108 18.8653C9.42378 19.1024 8.70811 19.2554 7.96771 19.3264V17.4997C7.66356 17.5358 7.35234 17.5547 7.03405 17.5564H5.51613V19.3725H3.06451V17.5564H0V14.5294H1.83871V4.84314H0V1.81618H3.06451V0ZM9.48532 13.4808C8.8996 14.2519 8.06084 14.6375 6.96897 14.6375H5.64573V4.74584H6.92558C8.04639 4.74584 8.8996 5.13142 9.48532 5.90258C10.071 6.67373 10.3639 7.81965 10.3639 9.34032V10.0214C10.3639 11.5493 10.071 12.7024 9.48532 13.4808Z" fill="white"/>
<path d="M26.6333 14.6373H20.0062V1.81592H16.1992V17.5561H26.6333V14.6373Z" fill="white"/>
<path d="M33.8895 1.81592L30.9828 8.64817L28.0651 1.81592H23.9761L29.0521 11.9022V17.5561H32.9134V11.9022L38.0002 1.81592H33.8895Z" fill="white"/>
</g>
<path d="M11.3481 25.3314C11.3025 25.8147 11.124 26.1923 10.8129 26.4641C10.5017 26.7338 10.0878 26.8686 9.5712 26.8686C9.21022 26.8686 8.89177 26.7836 8.61585 26.6135C8.342 26.4413 8.1304 26.1975 7.98102 25.8822C7.83165 25.5668 7.75386 25.2007 7.74763 24.7837V24.3604C7.74763 23.9331 7.82336 23.5565 7.9748 23.2308C8.12625 22.9051 8.34304 22.6541 8.62519 22.4777C8.90941 22.3014 9.23719 22.2132 9.60855 22.2132C10.1085 22.2132 10.511 22.3491 10.816 22.6209C11.1209 22.8927 11.2983 23.2765 11.3481 23.7723H10.5639C10.5266 23.4466 10.4311 23.2122 10.2776 23.069C10.1262 22.9238 9.90314 22.8512 9.60855 22.8512C9.26624 22.8512 9.00276 22.9767 8.81812 23.2277C8.63556 23.4767 8.5422 23.8428 8.53805 24.3262V24.7276C8.53805 25.2173 8.62519 25.5907 8.79945 25.8479C8.97579 26.1052 9.23304 26.2338 9.5712 26.2338C9.88032 26.2338 10.1127 26.1643 10.2683 26.0253C10.4239 25.8863 10.5224 25.655 10.5639 25.3314H11.3481ZM19.8131 24.6592C19.8131 25.1032 19.7363 25.4932 19.5828 25.8293C19.4293 26.1633 19.2094 26.4205 18.9231 26.601C18.6389 26.7794 18.3111 26.8686 17.9397 26.8686C17.5725 26.8686 17.2447 26.7794 16.9564 26.601C16.6701 26.4205 16.4481 26.1643 16.2904 25.8324C16.1348 25.5004 16.056 25.1177 16.0539 24.6841V24.4289C16.0539 23.987 16.1317 23.597 16.2873 23.2588C16.445 22.9207 16.6659 22.6624 16.9501 22.484C17.2364 22.3035 17.5642 22.2132 17.9335 22.2132C18.3028 22.2132 18.6295 22.3024 18.9137 22.4809C19.2 22.6572 19.421 22.9124 19.5766 23.2464C19.7322 23.5783 19.811 23.9652 19.8131 24.4071V24.6592ZM19.0258 24.4227C19.0258 23.9206 18.9303 23.5358 18.7395 23.2682C18.5507 23.0005 18.282 22.8667 17.9335 22.8667C17.5933 22.8667 17.3267 23.0005 17.1337 23.2682C16.9429 23.5337 16.8454 23.9103 16.8412 24.3978V24.6592C16.8412 25.1571 16.9377 25.5419 17.1306 25.8137C17.3256 26.0855 17.5953 26.2214 17.9397 26.2214C18.2883 26.2214 18.5559 26.0886 18.7426 25.823C18.9314 25.5575 19.0258 25.1695 19.0258 24.6592V24.4227ZM25.5271 25.1229V26.8064H24.7398V22.2755H26.4732C26.9794 22.2755 27.3808 22.4072 27.6775 22.6707C27.9762 22.9342 28.1256 23.2827 28.1256 23.7163C28.1256 24.1602 27.9793 24.5057 27.6868 24.7525C27.3964 24.9994 26.9887 25.1229 26.4638 25.1229H25.5271ZM25.5271 24.4911H26.4732C26.7532 24.4911 26.9669 24.4258 27.1142 24.2951C27.2615 24.1623 27.3352 23.9715 27.3352 23.7225C27.3352 23.4777 27.2605 23.2827 27.1111 23.1375C26.9617 22.9902 26.7563 22.9145 26.4949 22.9103H25.5271V24.4911Z" fill="white"/>
<defs>
<clipPath id="clip0_562_1452">
<rect width="38" height="19.3725" fill="white"/>
</clipPath>
</defs>
</svg>
