<svg width="35" height="26" viewBox="0 0 35 26" fill="none" xmlns="http://www.w3.org/2000/svg">
<g clip-path="url(#clip0_621_27327)">
<path fill-rule="evenodd" clip-rule="evenodd" d="M2.82258 0H5.08065V1.7749H6.37883C6.70727 1.7749 7.02724 1.79514 7.33868 1.8356V0.0497152C8.07601 0.127472 8.78637 0.296964 9.46475 0.561834C9.51005 0.582647 9.55411 0.604034 9.59679 0.625998V2.56185C9.68045 2.60746 9.76328 2.65505 9.84536 2.70462C10.871 3.31738 11.6702 4.18722 12.2429 5.31415C12.8224 6.43403 13.1154 7.69125 13.122 9.08583V9.79368C13.122 11.2023 12.839 12.4666 12.2729 13.5865C11.7135 14.6993 10.9209 15.5727 9.89525 16.2066C9.79691 16.2671 9.6974 16.3247 9.59679 16.3795V18.3063C9.50751 18.3523 9.41212 18.3957 9.31254 18.4366C8.67979 18.6683 8.02063 18.8178 7.33868 18.8872V17.1021C7.05854 17.1373 6.77189 17.1557 6.47873 17.1574H5.08065V18.9323H2.82258V17.1574H0V14.1992H1.69355V4.73308H0V1.7749H2.82258V0ZM8.73648 13.1744C8.197 13.9281 7.42446 14.3049 6.41879 14.3049H5.20002V4.63799H6.37883C7.41115 4.63799 8.197 5.0148 8.73648 5.76844C9.27589 6.52207 9.54567 7.64195 9.54567 9.12807V9.79368C9.54567 11.2869 9.27589 12.4138 8.73648 13.1744Z" fill="#00875A"/>
<path d="M24.5304 14.3044H18.4266V1.77441H14.9201V17.1569H24.5304V14.3044Z" fill="#00875A"/>
<path d="M31.214 1.77441L28.5367 8.4514L25.8494 1.77441H22.0832L26.7585 11.6314V17.1569H30.3149V11.6314L35.0002 1.77441H31.214Z" fill="#00875A"/>
</g>
<path d="M10.4524 24.4975C10.4103 24.9699 10.246 25.3389 9.9594 25.6044C9.67278 25.868 9.29157 25.9998 8.81577 25.9998C8.48329 25.9998 8.18998 25.9167 7.93585 25.7504C7.68362 25.5821 7.48871 25.3439 7.35114 25.0357C7.21356 24.7276 7.1419 24.3697 7.13617 23.9622V23.5486C7.13617 23.131 7.20591 22.763 7.3454 22.4447C7.48489 22.1264 7.68457 21.881 7.94444 21.7087C8.20623 21.5364 8.50813 21.4502 8.85017 21.4502C9.31068 21.4502 9.68137 21.583 9.96226 21.8486C10.2432 22.1142 10.4065 22.4893 10.4524 22.9738H9.7301C9.6957 22.6555 9.60781 22.4264 9.46641 22.2865C9.32692 22.1446 9.12151 22.0736 8.85017 22.0736C8.53489 22.0736 8.29221 22.1963 8.12215 22.4416C7.954 22.6849 7.86801 23.0428 7.86419 23.5152V23.9075C7.86419 24.3859 7.94444 24.7509 8.10495 25.0023C8.26737 25.2537 8.50431 25.3794 8.81577 25.3794C9.10049 25.3794 9.3145 25.3115 9.45781 25.1756C9.60112 25.0398 9.69188 24.8137 9.7301 24.4975H10.4524Z" fill="#00875A"/>
<path d="M18.2491 23.8406C18.2491 24.2744 18.1784 24.6556 18.037 24.984C17.8956 25.3105 17.693 25.5619 17.4293 25.7383C17.1676 25.9126 16.8657 25.9998 16.5236 25.9998C16.1854 25.9998 15.8835 25.9126 15.6179 25.7383C15.3542 25.5619 15.1497 25.3115 15.0045 24.9871C14.8612 24.6627 14.7886 24.2886 14.7867 23.8649V23.6155C14.7867 23.1837 14.8583 22.8025 15.0017 22.472C15.1469 22.1416 15.3504 21.8891 15.6122 21.7148C15.8758 21.5384 16.1778 21.4502 16.5179 21.4502C16.858 21.4502 17.159 21.5374 17.4207 21.7117C17.6844 21.8841 17.8879 22.1334 18.0312 22.4599C18.1746 22.7843 18.2472 23.1624 18.2491 23.5942V23.8406ZM17.5239 23.6094C17.5239 23.1188 17.436 22.7427 17.2602 22.4812C17.0864 22.2196 16.8389 22.0888 16.5179 22.0888C16.2045 22.0888 15.959 22.2196 15.7813 22.4812C15.6055 22.7407 15.5157 23.1087 15.5118 23.5851V23.8406C15.5118 24.3272 15.6007 24.7032 15.7784 24.9688C15.958 25.2344 16.2064 25.3672 16.5236 25.3672C16.8446 25.3672 17.0911 25.2375 17.2631 24.978C17.437 24.7184 17.5239 24.3393 17.5239 23.8406V23.6094Z" fill="#00875A"/>
<path d="M23.512 24.2937V25.939H22.7869V21.511H24.3834C24.8496 21.511 25.2193 21.6398 25.4926 21.8972C25.7678 22.1547 25.9053 22.4953 25.9053 22.9191C25.9053 23.353 25.7706 23.6905 25.5012 23.9318C25.2337 24.1731 24.8582 24.2937 24.3748 24.2937H23.512ZM23.512 23.6763H24.3834C24.6413 23.6763 24.8381 23.6125 24.9738 23.4847C25.1095 23.355 25.1773 23.1685 25.1773 22.9252C25.1773 22.6859 25.1085 22.4953 24.9709 22.3534C24.8334 22.2095 24.6442 22.1355 24.4034 22.1314H23.512V23.6763Z" fill="#00875A"/>
<defs>
<clipPath id="clip0_621_27327">
<rect width="35" height="18.9323" fill="white"/>
</clipPath>
</defs>
</svg>
