<svg width="40" height="40" viewBox="0 0 40 40" fill="none" xmlns="http://www.w3.org/2000/svg">
<path d="M19.9833 3.33325C10.7833 3.33325 3.33325 10.7999 3.33325 19.9999C3.33325 29.1999 10.7833 36.6666 19.9833 36.6666C29.1999 36.6666 36.6666 29.1999 36.6666 19.9999C36.6666 10.7999 29.1999 3.33325 19.9833 3.33325ZM31.5333 13.3333H26.6166C26.0833 11.2499 25.3166 9.24992 24.3166 7.39992C27.3833 8.44992 29.9333 10.5833 31.5333 13.3333ZM19.9999 6.73325C21.3833 8.73325 22.4666 10.9499 23.1833 13.3333H16.8166C17.5333 10.9499 18.6166 8.73325 19.9999 6.73325ZM7.09992 23.3333C6.83325 22.2666 6.66659 21.1499 6.66659 19.9999C6.66659 18.8499 6.83325 17.7333 7.09992 16.6666H12.7333C12.5999 17.7666 12.4999 18.8666 12.4999 19.9999C12.4999 21.1333 12.5999 22.2333 12.7333 23.3333H7.09992ZM8.46659 26.6666H13.3833C13.9166 28.7499 14.6833 30.7499 15.6833 32.5999C12.6166 31.5499 10.0666 29.4333 8.46659 26.6666ZM13.3833 13.3333H8.46659C10.0666 10.5666 12.6166 8.44992 15.6833 7.39992C14.6833 9.24992 13.9166 11.2499 13.3833 13.3333ZM19.9999 33.2666C18.6166 31.2666 17.5333 29.0499 16.8166 26.6666H23.1833C22.4666 29.0499 21.3833 31.2666 19.9999 33.2666ZM23.8999 23.3333H16.0999C15.9499 22.2333 15.8333 21.1333 15.8333 19.9999C15.8333 18.8666 15.9499 17.7499 16.0999 16.6666H23.8999C24.0499 17.7499 24.1666 18.8666 24.1666 19.9999C24.1666 21.1333 24.0499 22.2333 23.8999 23.3333ZM24.3166 32.5999C25.3166 30.7499 26.0833 28.7499 26.6166 26.6666H31.5333C29.9333 29.4166 27.3833 31.5499 24.3166 32.5999ZM27.2666 23.3333C27.3999 22.2333 27.4999 21.1333 27.4999 19.9999C27.4999 18.8666 27.3999 17.7666 27.2666 16.6666H32.8999C33.1666 17.7333 33.3333 18.8499 33.3333 19.9999C33.3333 21.1499 33.1666 22.2666 32.8999 23.3333H27.2666Z" fill="#333333"/>
</svg>
