<svg width="40" height="40" viewBox="0 0 40 40" fill="none" xmlns="http://www.w3.org/2000/svg">
<path d="M3.33341 28.3334H36.6667V31.6668H3.33341V28.3334ZM5.25008 21.5834L6.66675 19.1167L8.08341 21.5834L10.2501 20.3334L8.83341 17.8667H11.6667V15.3667H8.83341L10.2501 12.9167L8.08341 11.6667L6.66675 14.1167L5.25008 11.6667L3.08341 12.9167L4.50008 15.3667H1.66675V17.8667H4.50008L3.08341 20.3334L5.25008 21.5834ZM16.4167 20.3334L18.5834 21.5834L20.0001 19.1167L21.4167 21.5834L23.5834 20.3334L22.1667 17.8667H25.0001V15.3667H22.1667L23.5834 12.9167L21.4167 11.6667L20.0001 14.1167L18.5834 11.6667L16.4167 12.9167L17.8334 15.3667H15.0001V17.8667H17.8334L16.4167 20.3334ZM38.3334 15.3667H35.5001L36.9167 12.9167L34.7501 11.6667L33.3334 14.1167L31.9167 11.6667L29.7501 12.9167L31.1667 15.3667H28.3334V17.8667H31.1667L29.7501 20.3334L31.9167 21.5834L33.3334 19.1167L34.7501 21.5834L36.9167 20.3334L35.5001 17.8667H38.3334V15.3667Z" fill="#333333"/>
</svg>
